SplineFontDB: 3.0
FontName: Chilanka
FullName: Chilanka
FamilyName: Chilanka
Weight: Book
Copyright: Copyright 2014 Santhosh Thottingal, Kavya Manohar, Swathanthra Malayalam Computing (http://smc.org.in)
Version: 0.1
ItalicAngle: 0
UnderlinePosition: -942
UnderlineWidth: 61
Ascent: 1434
Descent: 614
sfntRevision: 0x00060000
LayerCount: 2
Layer: 0 1 "Back"  1
Layer: 1 1 "Fore"  0
XUID: [1021 393 960756424 4828222]
FSType: 0
OS2Version: 1
OS2_WeightWidthSlopeOnly: 0
OS2_UseTypoMetrics: 1
CreationTime: 1201144287
ModificationTime: 1412952291
PfmFamily: 65
TTFWeight: 400
TTFWidth: 5
LineGap: 0
VLineGap: 0
OS2TypoAscent: 0
OS2TypoAOffset: 1
OS2TypoDescent: 0
OS2TypoDOffset: 1
OS2TypoLinegap: 0
OS2WinAscent: 0
OS2WinAOffset: 1
OS2WinDescent: 0
OS2WinDOffset: 1
HheadAscent: 0
HheadAOffset: 1
HheadDescent: 0
HheadDOffset: 1
OS2SubXSize: 1327
OS2SubYSize: 1225
OS2SubXOff: 0
OS2SubYOff: 150
OS2SupXSize: 1327
OS2SupYSize: 1427
OS2SupXOff: 0
OS2SupYOff: 977
OS2StrikeYSize: 98
OS2StrikeYPos: 512
OS2Vendor: 'PfEd'
OS2CodePages: 00000001.00000000
OS2UnicodeRanges: 80800003.00002000.00000000.00000000
Lookup: 4 0 0 "'akhn' Akhand in Malay+AQEA-lam lookup 0"  {"'akhn' Akhand in Malay+AQEA-lam lookup 0 subtable"  } ['akhn' ('mlym' <'dflt' > ) ]
Lookup: 4 0 0 "'akhn' Akhand in Malay+AQEA-lam2 lookup 0"  {"'akhn' Akhand in Malay+AQEA-lam2 lookup 0 subtable"  } ['akhn' ('mlm2' <'dflt' > ) ]
Lookup: 4 0 0 "'pref' Pre Base Forms in Malay+AQEA-lam2 lookup 1"  {"'pref' Pre Base Forms in Malay+AQEA-lam2 lookup 1 subtable"  } ['pref' ('mlm2' <'dflt' > ) ]
Lookup: 4 0 0 "'half' Half Forms in Malay+AQEA-lam lookup 1"  {"'half' Half Forms in Malay+AQEA-lam lookup 1 subtable"  } ['half' ('mlym' <'dflt' > ) ]
Lookup: 4 0 0 "'blwf' Below Base Forms in Malay+AQEA-lam lookup 2"  {"'blwf' Below Base Forms in Malay+AQEA-lam lookup 2 subtable"  } ['blwf' ('mlym' <'dflt' > ) ]

StartChar: .notdef
Encoding: 121 -1 0
Width: 692
GlyphClass: 2
Flags: MW
LayerCount: 2
Fore
SplineSet
45 1 m 1,0,-1
 45 1119 l 1,1,-1
 606 1119 l 1,2,-1
 606 1 l 1,3,-1
 45 1 l 1,0,-1
102 55 m 1,4,-1
 552 55 l 1,5,-1
 552 1063 l 1,6,-1
 102 1063 l 1,7,-1
 102 55 l 1,4,-1
EndSplineSet
EndChar

StartChar: exclam
Encoding: 1 33 2
Width: 409
GlyphClass: 2
Flags: MW
LayerCount: 2
Fore
SplineSet
128.089 975.095 m 0,0,1
 131.364 1004.02 131.364 1004.02 148.216 1020.21 c 128,-1,2
 165.069 1036.4 165.069 1036.4 188.572 1039.51 c 128,-1,3
 212.074 1042.62 212.074 1042.62 233.647 1026.08 c 128,-1,4
 255.221 1009.55 255.221 1009.55 258.703 983.22 c 0,5,6
 304.026 640.571 304.026 640.571 292.115 433.632 c 1,7,8
 290.038 421.13 290.038 421.13 292.112 399.293 c 128,-1,9
 294.187 377.456 294.187 377.456 289.815 351.166 c 128,-1,10
 285.443 324.876 285.443 324.876 277.795 302.174 c 0,11,12
 259.779 248.697 259.779 248.697 194.873 253.287 c 0,13,14
 111.123 259.213 111.123 259.213 106.369 371.149 c 0,15,16
 105.666 387.7 105.666 387.7 105.445 411.021 c 128,-1,17
 105.226 434.342 105.226 434.342 104.714 441.872 c 0,18,19
 90.8281 646.22 90.8281 646.22 128.089 975.095 c 0,0,1
125.438 11.1289 m 0,20,21
 147.453 66.0372 147.453 66.0372 170.417 79.8111 c 128,-1,22
 193.38 93.585 193.38 93.585 219.747 86.9883 c 128,-1,23
 246.115 80.3916 246.115 80.3916 259.776 57.6191 c 0,24,25
 340.926 -77.6522 340.926 -77.6522 303.066 -171.409 c 0,26,27
 288.066 -208.559 288.066 -208.559 250.292 -224.168 c 128,-1,28
 212.518 -239.776 212.518 -239.776 177.667 -225.519 c 128,-1,29
 142.815 -211.261 142.815 -211.261 124.237 -182.031 c 0,30,31
 77.4795 -108.468 77.4795 -108.468 125.438 11.1289 c 0,20,21
EndSplineSet
EndChar

StartChar: numbersign
Encoding: 3 35 4
Width: 1113
GlyphClass: 2
Flags: MW
LayerCount: 2
Fore
SplineSet
68.2783 379.7 m 128,-1,1
 68.2783 406.256 68.2783 406.256 87.4974 425.478 c 128,-1,2
 106.717 444.7 106.717 444.7 133.278 444.7 c 2,3,-1
 261.11 444.7 l 1,4,-1
 304.297 581.46 l 1,5,-1
 228.279 581.46 l 2,6,7
 201.717 581.458 201.717 581.458 182.498 600.679 c 128,-1,8
 163.279 619.903 163.279 619.903 163.279 646.46 c 128,-1,9
 163.279 673.016 163.279 673.016 182.498 692.238 c 128,-1,10
 201.717 711.46 201.717 711.46 228.279 711.46 c 2,11,-1
 345.35 711.46 l 1,12,-1
 418.017 941.574 l 2,13,14
 426.016 966.902 426.016 966.902 450.133 979.441 c 128,-1,15
 474.251 991.98 474.251 991.98 499.574 983.983 c 128,-1,16
 524.897 975.986 524.897 975.986 537.439 951.87 c 128,-1,17
 549.982 927.755 549.982 927.755 541.983 902.426 c 2,18,-1
 481.678 711.46 l 1,19,-1
 676.391 711.46 l 1,20,-1
 741.413 917.363 l 2,21,22
 749.412 942.691 749.412 942.691 773.529 955.23 c 128,-1,23
 797.646 967.769 797.646 967.769 822.969 959.772 c 128,-1,24
 848.292 951.774 848.292 951.774 860.835 927.659 c 128,-1,25
 873.378 903.544 873.378 903.544 865.378 878.216 c 2,26,-1
 812.719 711.46 l 1,27,-1
 948.207 711.46 l 2,28,29
 974.763 711.458 974.763 711.458 993.985 692.238 c 128,-1,30
 1013.21 673.02 1013.21 673.02 1013.21 646.46 c 128,-1,31
 1013.21 619.898 1013.21 619.898 993.985 600.679 c 128,-1,32
 974.763 581.46 974.763 581.46 948.207 581.46 c 2,33,-1
 771.666 581.46 l 1,34,-1
 728.479 444.7 l 1,35,-1
 853.206 444.7 l 2,36,37
 879.762 444.699 879.762 444.699 898.984 425.478 c 128,-1,38
 918.206 406.26 918.206 406.26 918.206 379.7 c 128,-1,39
 918.206 353.138 918.206 353.138 898.984 333.919 c 128,-1,40
 879.762 314.7 879.762 314.7 853.206 314.7 c 2,41,-1
 687.426 314.7 l 1,42,-1
 577.378 -33.7835 l 2,43,44
 569.381 -59.1067 569.381 -59.1067 545.266 -71.6491 c 128,-1,45
 521.151 -84.1915 521.151 -84.1915 495.822 -76.1928 c 128,-1,46
 470.493 -68.1942 470.493 -68.1942 457.955 -44.077 c 128,-1,47
 445.416 -19.9598 445.416 -19.9598 453.413 5.36359 c 2,48,-1
 551.098 314.7 l 1,49,-1
 356.385 314.7 l 1,50,-1
 253.983 -9.57354 l 2,51,52
 245.986 -34.8967 245.986 -34.8967 221.871 -47.4391 c 128,-1,53
 197.755 -59.9815 197.755 -59.9815 172.426 -51.9829 c 128,-1,54
 147.098 -43.9843 147.098 -43.9843 134.559 -19.8669 c 128,-1,55
 122.02 4.25037 122.02 4.25037 130.017 29.5735 c 2,56,-1
 220.057 314.7 l 1,57,-1
 133.278 314.7 l 2,58,59
 106.717 314.699 106.717 314.699 87.4974 333.919 c 128,-1,0
 68.2783 353.143 68.2783 353.143 68.2783 379.7 c 128,-1,1
592.151 444.7 m 1,60,-1
 635.338 581.46 l 1,61,-1
 440.625 581.46 l 1,62,-1
 397.438 444.7 l 1,63,-1
 592.151 444.7 l 1,60,-1
EndSplineSet
EndChar

StartChar: dollar
Encoding: 4 36 5
Width: 955
GlyphClass: 2
Flags: MW
LayerCount: 2
Fore
SplineSet
676.672 795.68 m 128,-1,1
 654.107 781.684 654.107 781.684 627.641 787.886 c 128,-1,2
 601.174 794.089 601.174 794.089 587.175 816.662 c 0,3,4
 542.788 888.236 542.788 888.236 463.802 924.79 c 1,5,6
 462.774 789.897 462.774 789.897 461.746 655.003 c 1,7,8
 463.377 654.533 463.377 654.533 496.057 645.146 c 0,9,10
 660.575 597.894 660.575 597.894 727.189 535.724 c 0,11,12
 858.642 413.039 858.642 413.039 844.686 242.72 c 0,13,14
 831.332 79.7357 831.332 79.7357 693.558 -25.7876 c 0,15,16
 592.731 -103.014 592.731 -103.014 455.986 -100.778 c 1,17,-1
 455.269 -194.93 l 2,18,19
 455.066 -221.485 455.066 -221.485 435.701 -240.56 c 128,-1,20
 416.336 -259.635 416.336 -259.635 389.775 -259.433 c 128,-1,21
 363.214 -259.23 363.214 -259.23 344.142 -239.862 c 128,-1,22
 325.07 -220.494 325.07 -220.494 325.397 -177.568 c 128,-1,23
 325.724 -134.641 325.724 -134.641 326.176 -75.3435 c 1,24,25
 255.622 -48.0962 255.622 -48.0962 193.278 11.6481 c 128,-1,26
 130.934 71.3924 130.934 71.3924 101.008 157.605 c 0,27,28
 92.2999 182.692 92.2999 182.692 104.153 207.154 c 128,-1,29
 116.006 231.615 116.006 231.615 141.099 240.326 c 0,30,31
 202.504 261.64 202.504 261.64 227.334 190.11 c 128,-1,32
 252.164 118.58 252.164 118.58 327.28 69.457 c 1,33,34
 329.151 314.934 329.151 314.934 331.021 560.412 c 1,35,36
 130.425 635.698 130.425 635.698 94.5013 792.772 c 0,37,38
 66.0972 916.942 66.0972 916.942 146.299 995.556 c 128,-1,39
 226.5 1074.17 226.5 1074.17 334.979 1079.71 c 1,40,41
 335.304 1122.34 335.304 1122.34 354.672 1141.41 c 128,-1,42
 374.039 1160.48 374.039 1160.48 400.595 1160.28 c 128,-1,43
 427.149 1160.08 427.149 1160.08 446.225 1140.72 c 128,-1,44
 465.3 1121.35 465.3 1121.35 465.139 1100.16 c 128,-1,45
 464.977 1078.96 464.977 1078.96 464.856 1063.14 c 1,46,47
 615.303 1017.97 615.303 1017.97 697.654 885.178 c 0,48,49
 711.652 862.601 711.652 862.601 705.446 836.139 c 128,-1,0
 699.24 809.676 699.24 809.676 676.672 795.68 c 128,-1,1
333.985 949.282 m 1,50,51
 279.709 944.29 279.709 944.29 255.058 920.127 c 0,52,53
 182.596 849.096 182.596 849.096 241.223 775.55 c 0,54,55
 278.466 728.831 278.466 728.831 332.097 701.608 c 1,56,-1
 333.985 949.282 l 1,50,51
456.977 29.2738 m 1,57,58
 549.076 27.3005 549.076 27.3005 627.777 87.5793 c 128,-1,59
 706.478 147.858 706.478 147.858 715.12 253.334 c 0,60,61
 729.867 433.305 729.867 433.305 508.922 505.473 c 0,62,63
 495.817 509.753 495.817 509.753 460.717 519.982 c 1,64,-1
 456.977 29.2738 l 1,57,58
EndSplineSet
EndChar

StartChar: percent
Encoding: 5 37 6
Width: 972
GlyphClass: 2
Flags: MW
LayerCount: 2
Fore
SplineSet
618.146 344.941 m 1,0,1
 636.967 349.024 636.967 349.024 654.436 342.802 c 0,2,3
 915.592 249.771 915.592 249.771 918.593 96.4268 c 0,4,5
 919.725 38.5801 919.725 38.5801 871.747 -22.8018 c 128,-1,6
 823.77 -84.1836 823.77 -84.1836 711.429 -103.912 c 0,7,8
 599.088 -123.641 599.088 -123.641 533.641 -51.4142 c 0,9,10
 468.194 20.8125 468.194 20.8125 470.917 126.223 c 1,11,-1
 240.711 -62.5654 l 2,12,13
 206.258 -90.8193 206.258 -90.8193 174.999 -72.9033 c 128,-1,14
 143.74 -54.9863 143.74 -54.9863 136.861 -28.6855 c 128,-1,15
 129.983 -2.38379 129.983 -2.38379 143.397 20.5322 c 2,16,-1
 607.914 814.082 l 1,17,-1
 538.984 779.214 l 2,18,19
 529.683 774.367 529.683 774.367 518.873 769.98 c 1,20,21
 513.422 712.988 513.422 712.988 481.062 668.768 c 128,-1,22
 448.701 624.547 448.701 624.547 396.2 602.203 c 0,23,24
 304.12 563.015 304.12 563.015 203.936 602.771 c 0,25,26
 103.752 642.527 103.752 642.527 93.8311 745.398 c 0,27,28
 80.3809 884.858 80.3809 884.858 278.331 1044.52 c 0,29,30
 299.01 1061.2 299.01 1061.2 328.839 1058 c 0,31,32
 358.668 1054.8 358.668 1054.8 375.149 1026.91 c 1,33,34
 396.921 1033.71 396.921 1033.71 418.898 1025.78 c 128,-1,35
 440.875 1017.84 440.875 1017.84 452.248 998.802 c 0,36,37
 481.48 949.874 481.48 949.874 498.299 904.319 c 1,38,-1
 746.153 1029.7 l 2,39,40
 769.848 1041.68 769.848 1041.68 795.678 1033.21 c 128,-1,41
 821.508 1024.73 821.508 1024.73 835.496 997.079 c 128,-1,42
 849.483 969.429 849.483 969.429 831.589 938.858 c 2,43,-1
 438.986 268.162 l 1,44,-1
 534.061 346.131 l 2,45,46
 551.465 360.117 551.465 360.117 575.439 359.624 c 128,-1,47
 599.414 359.132 599.414 359.132 618.146 344.941 c 1,0,1
389.511 782.984 m 1,48,49
 338.401 825.632 338.401 825.632 332 919.9 c 1,50,51
 217.295 819.417 217.295 819.417 223.23 757.878 c 0,52,53
 224.563 744.057 224.563 744.057 230.787 736.537 c 128,-1,54
 237.011 729.017 237.011 729.017 269.506 716.207 c 128,-1,55
 302 703.396 302 703.396 335.271 717.556 c 128,-1,56
 368.54 731.715 368.54 731.715 377.965 744.812 c 128,-1,57
 387.39 757.911 387.39 757.911 389.511 782.984 c 1,48,49
617.745 217.839 m 1,58,59
 581.012 89.915 581.012 89.915 622.296 44.3516 c 0,60,61
 645.488 18.7559 645.488 18.7559 698.965 27.0176 c 128,-1,62
 752.44 35.2803 752.44 35.2803 779.001 68.9355 c 0,63,64
 792.12 84.3818 792.12 84.3818 791.933 94.2197 c 128,-1,65
 791.745 104.058 791.745 104.058 776.147 124.04 c 0,66,67
 737.071 174.105 737.071 174.105 617.745 217.839 c 1,58,59
EndSplineSet
EndChar

StartChar: ampersand
Encoding: 6 38 7
Width: 871
GlyphClass: 2
Flags: MW
LayerCount: 2
Fore
SplineSet
807.695 498.48 m 128,-1,1
 833.107 490.771 833.107 490.771 845.922 466.8 c 128,-1,2
 858.736 442.828 858.736 442.828 851.025 417.41 c 0,3,4
 815.364 299.852 815.364 299.852 731.384 203.435 c 1,5,6
 801.144 109.673 801.144 109.673 790.493 76.5371 c 128,-1,7
 779.842 43.4014 779.842 43.4014 756.213 31.2705 c 128,-1,8
 732.58 19.1396 732.58 19.1396 706.704 27.4609 c 128,-1,9
 680.829 35.7832 680.829 35.7832 667.806 61.1514 c 128,-1,10
 654.781 86.5195 654.781 86.5195 636.188 113.211 c 1,11,12
 501.68 6.90234 501.68 6.90234 368.194 -9.1416 c 0,13,14
 209.604 -28.2028 209.604 -28.2028 149.794 101.996 c 0,15,16
 117.191 172.967 117.191 172.967 157.031 303.309 c 0,17,18
 178.617 371.753 178.617 371.753 251.252 466.631 c 1,19,20
 228.639 490.175 228.639 490.175 195.815 529.895 c 128,-1,21
 162.991 569.614 162.991 569.614 131.916 650.666 c 128,-1,22
 100.841 731.718 100.841 731.718 106.925 813.121 c 0,23,24
 118.935 973.83 118.935 973.83 247.471 1022.89 c 1,25,26
 350.505 1061.05 350.505 1061.05 460 1011.5 c 128,-1,27
 569.495 961.948 569.495 961.948 603.481 860.743 c 0,28,29
 654.847 707.793 654.847 707.793 496.382 549.328 c 0,30,31
 462.503 515.449 462.503 515.449 430.116 479.051 c 1,32,33
 457.578 456.108 457.578 456.108 527.235 402.154 c 128,-1,34
 596.893 348.201 596.893 348.201 644.315 301.824 c 1,35,36
 701.456 372.182 701.456 372.182 726.624 455.15 c 0,37,38
 734.335 480.567 734.335 480.567 758.309 493.379 c 128,-1,0
 782.283 506.19 782.283 506.19 807.695 498.48 c 128,-1,1
347.622 378.571 m 1,39,40
 295.162 308.521 295.162 308.521 275.63 245.266 c 128,-1,41
 256.098 182.01 256.098 182.01 268.423 155.179 c 128,-1,42
 280.749 128.348 280.749 128.348 296.372 121.693 c 128,-1,43
 311.995 115.04 311.995 115.04 352.681 119.93 c 0,44,45
 447.905 131.375 447.905 131.375 550.793 211.445 c 1,46,47
 509.474 251.477 509.474 251.477 443.21 302.802 c 128,-1,48
 376.946 354.128 376.946 354.128 347.622 378.571 c 1,39,40
334.809 567.502 m 1,49,50
 368.649 605.443 368.649 605.443 404.458 641.252 c 0,51,52
 505.968 742.762 505.968 742.762 480.246 819.357 c 0,53,54
 464.291 866.865 464.291 866.865 404.931 893.729 c 128,-1,55
 345.571 920.593 345.571 920.593 305.604 905.633 c 128,-1,56
 265.636 890.673 265.636 890.673 250.765 868.901 c 128,-1,57
 235.894 847.13 235.894 847.13 236.986 792.017 c 0,58,59
 239.389 670.895 239.389 670.895 334.809 567.502 c 1,49,50
EndSplineSet
EndChar

StartChar: quotesingle
Encoding: 7 39 8
Width: 368
GlyphClass: 2
Flags: MW
LayerCount: 2
Fore
SplineSet
203.366 953.969 m 128,-1,1
 179.659 940.672 179.659 940.672 148.109 949.55 c 128,-1,2
 116.56 958.428 116.56 958.428 105.115 1005.9 c 0,3,4
 50.11 1234.09 50.11 1234.09 100.91 1335.06 c 0,5,6
 141.432 1415.6 141.432 1415.6 215.291 1375.3 c 0,7,8
 325.041 1315.41 325.041 1315.41 234.268 992.828 c 0,9,0
 227.074 967.265 227.074 967.265 203.366 953.969 c 128,-1,1
EndSplineSet
EndChar

StartChar: parenleft
Encoding: 8 40 9
Width: 500
GlyphClass: 2
Flags: MW
LayerCount: 2
Fore
SplineSet
380.554 1120.86 m 128,-1,1
 402.892 1106.5 402.892 1106.5 408.668 1079.94 c 128,-1,2
 414.445 1053.38 414.445 1053.38 392.473 1019.2 c 0,3,4
 215.421 743.751 215.421 743.751 207.184 499.984 c 0,5,6
 202.128 350.319 202.128 350.319 235.443 241.2 c 0,7,8
 297.353 38.4242 297.353 38.4242 414.155 -135.742 c 0,9,10
 428.947 -157.794 428.947 -157.794 423.691 -184.465 c 128,-1,11
 418.435 -211.135 418.435 -211.135 396.374 -225.93 c 128,-1,12
 374.31 -240.723 374.31 -240.723 347.644 -235.464 c 128,-1,13
 320.978 -230.204 320.978 -230.204 306.187 -208.149 c 0,14,15
 -110.732 413.529 -110.732 413.529 235.253 1010.89 c 0,16,17
 259.51 1052.77 259.51 1052.77 282.301 1088.22 c 128,-1,18
 305.091 1123.67 305.091 1123.67 331.655 1129.45 c 128,-1,0
 358.219 1135.22 358.219 1135.22 380.554 1120.86 c 128,-1,1
EndSplineSet
EndChar

StartChar: parenright
Encoding: 9 41 10
Width: 537
GlyphClass: 2
Flags: MW
LayerCount: 2
Fore
SplineSet
121.814 1120.86 m 0,0,1
 176.483 1156.01 176.483 1156.01 220.065 1088.23 c 0,2,3
 415.668 783.946 415.668 783.946 425.11 504.374 c 0,4,5
 437.044 151.007 437.044 151.007 196.182 -208.149 c 0,6,7
 181.391 -230.204 181.391 -230.204 154.724 -235.464 c 128,-1,8
 128.058 -240.723 128.058 -240.723 105.994 -225.93 c 128,-1,9
 83.9334 -211.135 83.9334 -211.135 78.6773 -184.464 c 128,-1,10
 73.4212 -157.794 73.4212 -157.794 88.213 -135.742 c 0,11,12
 356.415 264.18 356.415 264.18 279.27 626.947 c 0,13,14
 238.351 819.372 238.351 819.372 102.286 1031.03 c 0,15,16
 87.9234 1053.38 87.9234 1053.38 93.6997 1079.94 c 128,-1,17
 99.476 1106.5 99.476 1106.5 121.814 1120.86 c 0,0,1
EndSplineSet
EndChar

StartChar: asterisk
Encoding: 10 42 11
Width: 1182
GlyphClass: 2
Flags: MW
LayerCount: 2
Fore
SplineSet
257.742 598.681 m 128,-1,1
 238.965 617.458 238.965 617.458 238.962 644.639 c 128,-1,2
 238.96 671.819 238.96 671.819 257.742 690.604 c 2,3,-1
 485.789 918.651 l 1,4,-1
 136.808 1034.98 l 2,5,6
 111.614 1043.38 111.614 1043.38 99.4561 1067.69 c 128,-1,7
 87.2979 1092 87.2979 1092 95.6982 1117.2 c 128,-1,8
 104.098 1142.4 104.098 1142.4 128.411 1154.55 c 128,-1,9
 152.724 1166.71 152.724 1166.71 177.917 1158.31 c 2,10,-1
 524.362 1042.83 l 1,11,-1
 524.362 1352.64 l 2,12,13
 524.362 1385.31 524.362 1385.31 544.533 1405.47 c 128,-1,14
 564.704 1425.64 564.704 1425.64 591.704 1425.64 c 128,-1,15
 618.704 1425.64 618.704 1425.64 637.704 1406.64 c 128,-1,16
 656.704 1387.64 656.704 1387.64 656.704 1360.64 c 2,17,-1
 656.704 1050.83 l 1,18,-1
 1003.15 1166.31 l 2,19,20
 1028.34 1174.71 1028.34 1174.71 1052.66 1162.55 c 128,-1,21
 1076.97 1150.4 1076.97 1150.4 1085.37 1125.2 c 128,-1,22
 1093.77 1100 1093.77 1100 1081.61 1075.69 c 128,-1,23
 1069.45 1051.38 1069.45 1051.38 1044.26 1042.98 c 2,24,-1
 691.034 925.236 l 1,25,-1
 925.666 690.604 l 2,26,27
 944.444 671.822 944.444 671.822 944.446 644.639 c 128,-1,28
 944.448 617.463 944.448 617.463 925.666 598.681 c 128,-1,29
 906.881 579.899 906.881 579.899 879.7 579.9 c 128,-1,30
 852.52 579.901 852.52 579.901 833.742 598.681 c 2,31,-1
 591.704 840.719 l 1,32,-1
 349.666 598.681 l 2,33,34
 330.881 579.899 330.881 579.899 303.7 579.9 c 128,-1,0
 276.52 579.901 276.52 579.901 257.742 598.681 c 128,-1,1
EndSplineSet
EndChar

StartChar: plus
Encoding: 11 43 12
Width: 1233
GlyphClass: 2
Flags: MW
LayerCount: 2
Fore
SplineSet
1141.13 599 m 128,-1,1
 1141.13 572 1141.13 572 1122.13 553 c 128,-1,2
 1103.13 534 1103.13 534 1076.13 534 c 2,3,-1
 676 534 l 1,4,-1
 676 94.0801 l 2,5,6
 675.998 67.5244 675.998 67.5244 656.778 48.3018 c 128,-1,7
 637.561 29.0801 637.561 29.0801 611 29.0801 c 128,-1,8
 584.438 29.0801 584.438 29.0801 565.219 48.3018 c 128,-1,9
 546 67.5244 546 67.5244 546 94.0801 c 2,10,-1
 546 534 l 1,11,-1
 164.135 534 l 2,12,13
 137.135 534 137.135 534 118.135 553 c 128,-1,14
 99.1348 572 99.1348 572 99.1348 599 c 128,-1,15
 99.1348 626 99.1348 626 118.135 645 c 128,-1,16
 137.135 664 137.135 664 164.135 664 c 2,17,-1
 546 664 l 1,18,-1
 546 1070.08 l 2,19,20
 545.998 1096.64 545.998 1096.64 565.219 1115.86 c 128,-1,21
 584.442 1135.08 584.442 1135.08 611 1135.08 c 128,-1,22
 637.556 1135.08 637.556 1135.08 656.778 1115.86 c 128,-1,23
 676 1096.64 676 1096.64 676 1070.08 c 2,24,-1
 676 664 l 1,25,-1
 1076.13 664 l 2,26,27
 1103.13 664 1103.13 664 1122.13 645 c 128,-1,0
 1141.13 626 1141.13 626 1141.13 599 c 128,-1,1
EndSplineSet
EndChar

StartChar: comma
Encoding: 12 44 13
Width: 445
GlyphClass: 2
Flags: MW
LayerCount: 2
Fore
SplineSet
233.813 -363.666 m 1,0,1
 222.201 -383.603 222.201 -383.603 200.104 -391.82 c 128,-1,2
 178.006 -400.037 178.006 -400.037 154.587 -391.909 c 128,-1,3
 131.169 -383.781 131.169 -383.781 119.312 -359.321 c 128,-1,4
 107.454 -334.862 107.454 -334.862 118.567 -302.844 c 0,5,6
 142.696 -233.326 142.696 -233.326 135.772 -188.269 c 0,7,8
 122.943 -104.784 122.943 -104.784 111.276 -67.0075 c 0,9,10
 85.1711 17.5133 85.1711 17.5133 117.839 81.9736 c 0,11,12
 135.572 117.002 135.572 117.002 168.126 140.389 c 128,-1,13
 200.68 163.775 200.68 163.775 243.434 156.525 c 0,14,15
 321.382 143.305 321.382 143.305 338.377 54.0111 c 128,-1,16
 355.373 -35.2832 355.373 -35.2832 323.046 -148.511 c 128,-1,17
 290.719 -261.739 290.719 -261.739 266.681 -308.525 c 128,-1,18
 242.643 -355.311 242.643 -355.311 233.813 -363.666 c 1,0,1
EndSplineSet
EndChar

StartChar: hyphen
Encoding: 13 45 14
Width: 783
GlyphClass: 2
Flags: MW
LayerCount: 2
Fore
SplineSet
107 490 m 128,-1,1
 107 517 107 517 126 536 c 128,-1,2
 145 555 145 555 172 555 c 2,3,-1
 613 555 l 2,4,5
 640 555 640 555 659 536 c 128,-1,6
 678 517 678 517 678 490 c 128,-1,7
 678 463 678 463 659 444 c 128,-1,8
 640 425 640 425 613 425 c 2,9,-1
 172 425 l 2,10,11
 145 425 145 425 126 444 c 128,-1,0
 107 463 107 463 107 490 c 128,-1,1
EndSplineSet
EndChar

StartChar: period
Encoding: 14 46 15
Width: 422
GlyphClass: 2
Flags: MW
LayerCount: 2
Fore
SplineSet
100.042 89.084 m 128,-1,1
 99.4307 115.326 99.4307 115.326 107.711 150.617 c 128,-1,2
 115.99 185.908 115.99 185.908 145.496 228.561 c 128,-1,3
 175.002 271.214 175.002 271.214 206.767 265.991 c 0,4,5
 257.646 257.625 257.646 257.625 294.094 183.818 c 0,6,7
 330.541 110.011 330.541 110.011 319.217 66.7314 c 128,-1,8
 307.893 23.4512 307.893 23.4512 280.789 1.50684 c 128,-1,9
 253.686 -20.4375 253.686 -20.4375 217.705 -21.8916 c 128,-1,10
 181.726 -23.3457 181.726 -23.3457 155.112 -6.30762 c 128,-1,11
 128.5 10.7305 128.5 10.7305 114.577 36.7861 c 128,-1,0
 100.653 62.8418 100.653 62.8418 100.042 89.084 c 128,-1,1
EndSplineSet
EndChar

StartChar: slash
Encoding: 15 47 16
Width: 572
GlyphClass: 2
Flags: MW
LayerCount: 2
Fore
SplineSet
607.317 1037.18 m 128,-1,1
 631.353 1025.88 631.353 1025.88 640.576 1000.32 c 128,-1,2
 649.8 974.749 649.8 974.749 638.506 950.705 c 2,3,-1
 126.238 -139.548 l 2,4,5
 114.944 -163.583 114.944 -163.583 89.3779 -172.807 c 128,-1,6
 63.8105 -182.03 63.8105 -182.03 39.7666 -170.736 c 128,-1,7
 15.7256 -159.44 15.7256 -159.44 6.50488 -133.868 c 128,-1,8
 -2.71582 -108.296 -2.71582 -108.296 8.57812 -84.2646 c 2,9,-1
 520.846 1005.99 l 2,10,11
 532.141 1030.03 532.141 1030.03 557.714 1039.25 c 128,-1,0
 583.287 1048.47 583.287 1048.47 607.317 1037.18 c 128,-1,1
EndSplineSet
EndChar

StartChar: zero
Encoding: 16 48 17
Width: 1144
GlyphClass: 2
Flags: MW
LayerCount: 2
Fore
SplineSet
656.363 1225.25 m 1,0,1
 838.146 1192.25 838.146 1192.25 951.8 954.571 c 128,-1,2
 1065.45 716.888 1065.45 716.888 1044.48 496.162 c 128,-1,3
 1023.5 275.437 1023.5 275.437 946.573 182.987 c 0,4,5
 810.283 19.1984 810.283 19.1984 608.707 17.5752 c 0,6,7
 318.88 15.2417 318.88 15.2417 178.484 325.057 c 0,8,9
 87.1367 526.635 87.1367 526.635 102.269 774.717 c 128,-1,10
 117.4 1022.8 117.4 1022.8 213.739 1150.55 c 0,11,12
 386.708 1379.93 386.708 1379.93 631.922 1345.31 c 0,13,14
 658.224 1341.6 658.224 1341.6 674.567 1319.88 c 0,15,16
 717.091 1263.38 717.091 1263.38 656.363 1225.25 c 1,0,1
585.113 1219.57 m 1,17,18
 435.868 1229.21 435.868 1229.21 340.321 1102.5 c 128,-1,19
 244.774 975.795 244.774 975.795 231.817 763.355 c 128,-1,20
 218.859 550.915 218.859 550.915 295.557 381.664 c 0,21,22
 402.389 145.915 402.389 145.915 604.563 147.545 c 128,-1,23
 806.738 149.174 806.738 149.174 878.977 333.081 c 128,-1,24
 951.215 516.989 951.215 516.989 887.073 755.444 c 128,-1,25
 822.93 993.9 822.93 993.9 692.484 1074.01 c 0,26,27
 654.533 1097.32 654.533 1097.32 621.941 1098.96 c 0,28,29
 550.952 1102.52 550.952 1102.52 554.219 1167.45 c 0,30,31
 555.932 1201.52 555.932 1201.52 585.113 1219.57 c 1,17,18
EndSplineSet
EndChar

StartChar: one
Encoding: 17 49 18
Width: 620
GlyphClass: 2
Flags: MW
LayerCount: 2
Fore
SplineSet
116.589 1199.74 m 128,-1,1
 72.9425 1247.9 72.9425 1247.9 111.465 1282.81 c 0,2,3
 224.059 1384.83 224.059 1384.83 320.232 1355.7 c 0,4,5
 513.431 1297.18 513.431 1297.18 520.246 815.852 c 0,6,7
 524.534 513.068 524.534 513.068 465.912 304.694 c 128,-1,8
 407.29 96.3203 407.29 96.3203 354.626 24.3912 c 128,-1,9
 301.961 -47.5379 301.961 -47.5379 249.513 -9.14258 c 128,-1,10
 197.064 29.2605 197.064 29.2605 242.789 91.7069 c 128,-1,11
 288.514 154.153 288.514 154.153 341.397 342.128 c 128,-1,12
 394.28 530.103 394.28 530.103 390.356 807.16 c 128,-1,13
 386.433 1084.22 386.433 1084.22 320.504 1195.5 c 0,14,15
 298.733 1232.25 298.733 1232.25 280.175 1237.84 c 128,-1,16
 261.617 1243.44 261.617 1243.44 210.924 1197.5 c 128,-1,0
 160.23 1151.57 160.23 1151.57 116.589 1199.74 c 128,-1,1
EndSplineSet
EndChar

StartChar: two
Encoding: 18 50 19
Width: 1331
GlyphClass: 2
Flags: MW
LayerCount: 2
Fore
SplineSet
122.74 1031.8 m 128,-1,1
 73.1673 1073.83 73.1673 1073.83 115.205 1123.41 c 0,2,3
 314.52 1358.45 314.52 1358.45 514.62 1374.48 c 128,-1,4
 714.72 1390.5 714.72 1390.5 834.588 1282.06 c 128,-1,5
 954.456 1173.61 954.456 1173.61 965.899 1034.38 c 128,-1,6
 977.342 895.152 977.342 895.152 905.853 779.453 c 0,7,8
 743.515 516.724 743.515 516.724 439.294 185.344 c 1,9,10
 596.788 216.454 596.788 216.454 811.961 182.778 c 128,-1,11
 1027.13 149.102 1027.13 149.102 1117.47 178.822 c 128,-1,12
 1207.81 208.541 1207.81 208.541 1228.13 146.798 c 128,-1,13
 1248.44 85.0513 1248.44 85.0513 1182.99 63.5217 c 0,14,15
 1057.82 22.343 1057.82 22.343 957.092 33.295 c 128,-1,16
 856.365 44.2471 856.365 44.2471 673.478 72.8671 c 128,-1,17
 490.59 101.487 490.59 101.487 269.792 -3.43018 c 0,18,19
 192.721 -40.0527 192.721 -40.0527 167.139 -13.8355 c 0,20,21
 114.707 39.8983 114.707 39.8983 161.229 85.2939 c 2,22,-1
 202.82 125.877 l 2,23,24
 559.14 473.562 559.14 473.562 797.986 848.772 c 1,25,26
 844.328 926.543 844.328 926.543 836.713 1019.13 c 128,-1,27
 829.099 1111.72 829.099 1111.72 749.118 1184.08 c 128,-1,28
 669.137 1256.43 669.137 1256.43 523.935 1244.81 c 128,-1,29
 378.732 1233.18 378.732 1233.18 214.354 1039.33 c 0,30,0
 172.312 989.753 172.312 989.753 122.74 1031.8 c 128,-1,1
EndSplineSet
EndChar

StartChar: three
Encoding: 19 51 20
Width: 1181
GlyphClass: 2
Flags: MW
LayerCount: 2
Fore
SplineSet
147.147 1021.63 m 132,-1,1
 128.755 1040.78 128.755 1040.78 129.307 1067.96 c 132,-1,2
 129.857 1095.14 129.857 1095.14 149.018 1113.54 c 4,3,4
 402.914 1357.32 402.914 1357.32 629.18 1376.76 c 4,5,6
 804.712 1391.83 804.712 1391.83 902.048 1274.93 c 132,-1,7
 999.384 1158.03 999.384 1158.03 971.222 985.005 c 132,-1,8
 943.061 811.979 943.061 811.979 794.578 655.706 c 5,9,10
 851.386 644.224 851.386 644.224 903.229 612.54 c 4,11,12
 1017.38 542.775 1017.38 542.775 1062.79 403.882 c 132,-1,13
 1108.21 264.988 1108.21 264.988 1046.72 145.795 c 4,14,15
 970.59 -1.76703 970.59 -1.76703 774.735 -15.4658 c 4,16,17
 522.573 -33.1016 522.573 -33.1016 132.379 193.02 c 4,18,19
 109.403 206.335 109.403 206.335 102.408 232.6 c 132,-1,20
 95.4141 258.865 95.4141 258.865 108.731 281.85 c 132,-1,21
 122.05 304.831 122.05 304.831 148.319 311.822 c 132,-1,22
 174.588 318.813 174.588 318.813 197.562 305.498 c 4,23,24
 553.263 99.3613 553.263 99.3613 765.666 114.218 c 4,25,26
 888.583 122.815 888.583 122.815 928.167 199.542 c 132,-1,27
 967.75 276.268 967.75 276.268 938.229 366.552 c 132,-1,28
 908.707 456.835 908.707 456.835 835.436 501.616 c 4,29,30
 737.768 561.307 737.768 561.307 603.111 499.342 c 4,31,32
 581.13 488.759 581.13 488.759 557.316 495.249 c 132,-1,33
 533.504 501.74 533.504 501.74 519.555 523.001 c 132,-1,34
 505.605 544.262 505.605 544.262 511.133 570.879 c 132,-1,35
 516.66 597.497 516.66 597.497 538.861 612.063 c 4,36,37
 610.442 659.028 610.442 659.028 667.292 712.469 c 4,38,39
 818.25 854.373 818.25 854.373 843.326 1008.44 c 4,40,41
 861.596 1120.69 861.596 1120.69 805.053 1189.11 c 4,42,43
 748.509 1256.53 748.509 1256.53 640.301 1247.23 c 4,44,45
 459.835 1231.73 459.835 1231.73 239.052 1019.76 c 4,46,47
 219.889 1001.36 219.889 1001.36 192.713 1001.92 c 132,-1,0
 165.538 1002.47 165.538 1002.47 147.147 1021.63 c 132,-1,1
EndSplineSet
EndChar

StartChar: four
Encoding: 20 52 21
Width: 1496
GlyphClass: 2
Flags: MW
LayerCount: 2
Fore
SplineSet
757.453 1104.4 m 128,-1,1
 784.009 1104.4 784.009 1104.4 803.23 1085.18 c 128,-1,2
 822.453 1065.96 822.453 1065.96 822.453 1039.4 c 2,3,-1
 822.453 722.934 l 1,4,5
 1213.47 770.685 1213.47 770.685 1282.18 744.052 c 0,6,7
 1393.18 701.021 1393.18 701.021 1396.14 623.813 c 0,8,9
 1397.16 597.277 1397.16 597.277 1378.69 577.333 c 128,-1,10
 1360.22 557.389 1360.22 557.389 1335.26 556.432 c 0,11,12
 1280.21 554.32 1280.21 554.32 1267.61 607.734 c 1,13,14
 1199.64 638.552 1199.64 638.552 822.453 591.97 c 1,15,-1
 822.453 89.127 l 2,16,17
 822.452 62.5713 822.452 62.5713 803.23 43.3486 c 128,-1,18
 784.013 24.127 784.013 24.127 757.453 24.127 c 128,-1,19
 730.891 24.127 730.891 24.127 711.672 43.3486 c 128,-1,20
 692.453 62.5713 692.453 62.5713 692.453 89.127 c 2,21,-1
 692.453 575.386 l 1,22,23
 685.84 574.519 685.84 574.519 519.348 552.606 c 128,-1,24
 352.856 530.692 352.856 530.692 287.039 538 c 0,25,26
 200.358 547.625 200.358 547.625 166.459 561.494 c 0,27,28
 91.633 592.11 91.633 592.11 98.7931 655.777 c 128,-1,29
 105.953 719.443 105.953 719.443 151.554 773.134 c 0,30,31
 347.091 1003.36 347.091 1003.36 399.008 1070.57 c 128,-1,32
 450.926 1137.77 450.926 1137.77 571.974 1317.22 c 0,33,34
 608.326 1371.11 608.326 1371.11 646.275 1345.51 c 0,35,36
 716.09 1298.41 716.09 1298.41 679.748 1244.52 c 0,37,38
 556.312 1061.54 556.312 1061.54 502.158 991.447 c 128,-1,39
 448.004 921.355 448.004 921.355 346.225 801.521 c 128,-1,40
 244.446 681.688 244.446 681.688 239.529 674.814 c 1,41,42
 323.796 657.989 323.796 657.989 500.672 681.269 c 128,-1,43
 677.548 704.549 677.548 704.549 692.453 706.49 c 1,44,-1
 692.453 1039.4 l 2,45,46
 692.452 1065.96 692.452 1065.96 711.672 1085.18 c 128,-1,0
 730.895 1104.4 730.895 1104.4 757.453 1104.4 c 128,-1,1
EndSplineSet
EndChar

StartChar: five
Encoding: 21 53 22
Width: 1306
GlyphClass: 2
Flags: MW
LayerCount: 2
Fore
SplineSet
1203.1 1381.49 m 132,-1,1
 1211.88 1356.44 1211.88 1356.44 1200.11 1331.94 c 132,-1,2
 1188.33 1307.44 1188.33 1307.44 1163.27 1298.65 c 4,3,4
 975.691 1232.86 975.691 1232.86 702.877 1247.5 c 4,5,6
 596.06 1253.24 596.06 1253.24 450.621 1264.17 c 132,-1,7
 305.183 1275.1 305.183 1275.1 254.654 1252.97 c 5,8,9
 241.063 1225.57 241.063 1225.57 231.013 1096 c 132,-1,10
 220.962 966.433 220.962 966.433 246.075 763.334 c 5,11,12
 632.593 932.652 632.593 932.652 870.165 864.336 c 4,13,14
 1044.45 814.215 1044.45 814.215 1095.87 661.77 c 132,-1,15
 1147.28 509.324 1147.28 509.324 1074.12 344.872 c 132,-1,16
 1000.95 180.42 1000.95 180.42 845.307 85.9951 c 4,17,18
 624.811 -47.7734 624.811 -47.7734 346.979 25.5576 c 4,19,20
 254.241 50.0352 254.241 50.0352 159.817 98.0029 c 4,21,22
 136.142 110.03 136.142 110.03 127.709 135.869 c 132,-1,23
 119.276 161.709 119.276 161.709 131.306 185.394 c 132,-1,24
 143.336 209.074 143.336 209.074 169.18 217.504 c 132,-1,25
 195.023 225.934 195.023 225.934 218.695 213.905 c 4,26,27
 538.076 51.6601 538.076 51.6601 777.876 197.14 c 4,28,29
 898.732 270.46 898.732 270.46 953.31 393.151 c 132,-1,30
 1007.89 515.843 1007.89 515.843 975.466 611.976 c 132,-1,31
 943.044 708.109 943.044 708.109 834.234 739.399 c 4,32,33
 620.74 800.793 620.74 800.793 223.66 609.96 c 4,34,35
 190.909 594.217 190.909 594.217 164.123 611.719 c 132,-1,36
 137.337 629.221 137.337 629.221 131.889 655.209 c 4,37,38
 114.43 738.485 114.43 738.485 103.82 893.205 c 132,-1,39
 93.2112 1047.92 93.2112 1047.92 104.574 1158.14 c 132,-1,40
 115.937 1268.35 115.937 1268.35 132.275 1304.66 c 132,-1,41
 148.614 1340.96 148.614 1340.96 190.309 1366.43 c 4,42,43
 259.782 1408.88 259.782 1408.88 521.781 1389.19 c 132,-1,44
 783.78 1369.49 783.78 1369.49 909.538 1380.51 c 132,-1,45
 1035.3 1391.53 1035.3 1391.53 1120.25 1421.32 c 4,46,47
 1145.31 1430.11 1145.31 1430.11 1169.81 1418.33 c 132,-1,0
 1194.31 1406.55 1194.31 1406.55 1203.1 1381.49 c 132,-1,1
EndSplineSet
EndChar

StartChar: six
Encoding: 22 54 23
Width: 1177
GlyphClass: 2
Flags: MW
LayerCount: 2
Fore
SplineSet
663.362 1314.11 m 0,0,1
 697.401 1258.74 697.401 1258.74 635.375 1220.61 c 0,2,3
 435.19 1097.56 435.19 1097.56 304.624 816.775 c 0,4,5
 233.322 663.435 233.322 663.435 231.026 539.941 c 0,6,7
 223.782 150.232 223.782 150.232 618.428 155.562 c 0,8,9
 828.109 158.394 828.109 158.394 894.699 242.715 c 128,-1,10
 961.288 327.037 961.288 327.037 942.04 411.954 c 128,-1,11
 922.791 496.871 922.791 496.871 843.753 552.657 c 128,-1,12
 764.715 608.443 764.715 608.443 655.599 574.711 c 128,-1,13
 546.482 540.979 546.482 540.979 472.202 470.304 c 128,-1,14
 397.922 399.629 397.922 399.629 353.118 446.725 c 128,-1,15
 308.318 493.821 308.318 493.821 355.404 538.62 c 0,16,17
 478.969 656.178 478.969 656.178 633.197 703.856 c 128,-1,18
 787.425 751.534 787.425 751.534 912.982 662.915 c 128,-1,19
 1038.54 574.295 1038.54 574.295 1070.17 434.751 c 128,-1,20
 1101.8 295.208 1101.8 295.208 996.783 162.224 c 128,-1,21
 891.765 29.2393 891.765 29.2393 620.183 25.5732 c 0,22,23
 245.647 20.5181 245.647 20.5181 131.907 307.845 c 0,24,25
 74.8173 452.064 74.8173 452.064 108.268 613.412 c 0,26,27
 183.804 977.765 183.804 977.765 396.591 1189.85 c 128,-1,28
 609.379 1401.94 609.379 1401.94 663.362 1314.11 c 0,0,1
EndSplineSet
EndChar

StartChar: seven
Encoding: 23 55 24
Width: 1200
GlyphClass: 2
Flags: MW
LayerCount: 2
Fore
SplineSet
102.2 1205.3 m 128,-1,1
 92.8516 1230.15 92.8516 1230.15 104.072 1254.91 c 128,-1,2
 115.293 1279.67 115.293 1279.67 140.155 1289.02 c 0,3,4
 630.998 1473.64 630.998 1473.64 857.293 1416.32 c 0,5,6
 1148.49 1342.56 1148.49 1342.56 1087.85 910.671 c 0,7,8
 1070.17 784.74 1070.17 784.74 993.519 489.854 c 128,-1,9
 916.863 194.967 916.863 194.967 904.106 64.7969 c 0,10,11
 901.517 38.3682 901.517 38.3682 880.514 21.1133 c 128,-1,12
 859.51 3.85742 859.51 3.85742 833.075 6.44922 c 128,-1,13
 806.64 9.04004 806.64 9.04004 789.389 30.0449 c 128,-1,14
 772.137 51.0508 772.137 51.0508 774.727 77.4805 c 0,15,16
 788.479 217.8 788.479 217.8 865.477 514.007 c 128,-1,17
 942.476 810.215 942.476 810.215 957.274 912.771 c 0,18,19
 994.012 1167.35 994.012 1167.35 909.689 1246.52 c 0,20,21
 847.15 1305.23 847.15 1305.23 667.323 1293 c 128,-1,22
 487.497 1280.77 487.497 1280.77 185.923 1167.34 c 0,23,24
 161.062 1157.99 161.062 1157.99 136.305 1169.21 c 128,-1,0
 111.549 1180.44 111.549 1180.44 102.2 1205.3 c 128,-1,1
EndSplineSet
EndChar

StartChar: eight
Encoding: 24 56 25
Width: 1189
GlyphClass: 2
Flags: MW
LayerCount: 2
Fore
SplineSet
820.369 1001.79 m 128,-1,1
 759.031 1023.3 759.031 1023.3 774.841 1070.86 c 128,-1,2
 790.651 1118.43 790.651 1118.43 718.473 1157.14 c 128,-1,3
 646.294 1195.85 646.294 1195.85 466.156 1193.61 c 128,-1,4
 286.018 1191.37 286.018 1191.37 242.822 1106.76 c 128,-1,5
 199.625 1022.15 199.625 1022.15 307.373 882.954 c 1,6,7
 417.73 794.698 417.73 794.698 527.766 728.905 c 1,8,9
 590.137 775.892 590.137 775.892 729.476 873.116 c 128,-1,10
 868.814 970.34 868.814 970.34 918.085 1022.38 c 128,-1,11
 967.355 1074.43 967.355 1074.43 1014.56 1029.75 c 128,-1,12
 1061.77 985.055 1061.77 985.055 1007.93 928.194 c 128,-1,13
 954.097 871.332 954.097 871.332 822.7 779.648 c 128,-1,14
 691.303 687.963 691.303 687.963 655.957 662.148 c 1,15,16
 679.024 651.277 679.024 651.277 787.245 602.694 c 128,-1,17
 895.465 554.111 895.465 554.111 967.22 472.735 c 128,-1,18
 1038.97 391.359 1038.97 391.359 1071.41 325.28 c 128,-1,19
 1103.85 259.2 1103.85 259.2 1080.95 185.576 c 128,-1,20
 1058.05 111.952 1058.05 111.952 959.347 50.7593 c 128,-1,21
 860.641 -10.4336 860.641 -10.4336 656.824 -12.4121 c 128,-1,22
 453.007 -14.3906 453.007 -14.3906 344.254 44.0376 c 0,23,24
 -31.4522 245.889 -31.4522 245.889 419.838 642.713 c 1,25,26
 243.111 754.64 243.111 754.64 205.705 801.882 c 0,27,28
 113.558 918.259 113.558 918.259 100.137 1036.77 c 128,-1,29
 86.7148 1155.28 86.7148 1155.28 196.288 1238.45 c 128,-1,30
 305.86 1321.62 305.86 1321.62 492.029 1323.94 c 128,-1,31
 678.197 1326.26 678.197 1326.26 771.224 1276.36 c 0,32,33
 951.615 1179.61 951.615 1179.61 903.217 1041.61 c 0,34,0
 881.705 980.276 881.705 980.276 820.369 1001.79 c 128,-1,1
539.861 573.961 m 1,35,36
 343.01 413.931 343.01 413.931 309.821 291.629 c 0,37,38
 290.517 220.482 290.517 220.482 387.821 168.205 c 128,-1,39
 485.126 115.928 485.126 115.928 654.08 117.567 c 128,-1,40
 823.033 119.207 823.033 119.207 888.43 159.75 c 128,-1,41
 953.826 200.292 953.826 200.292 960.827 221.794 c 128,-1,42
 967.828 243.297 967.828 243.297 940.781 290.064 c 0,43,44
 866.644 418.254 866.644 418.254 740.841 479.504 c 0,45,46
 700.702 499.046 700.702 499.046 648.205 522.613 c 128,-1,47
 595.826 546.127 595.826 546.127 539.861 573.961 c 1,35,36
EndSplineSet
EndChar

StartChar: nine
Encoding: 25 57 26
Width: 1114
GlyphClass: 2
Flags: MW
LayerCount: 2
Fore
SplineSet
1007.96 1175.12 m 128,-1,1
 996.308 1151.26 996.308 1151.26 970.604 1142.42 c 128,-1,2
 944.899 1133.58 944.899 1133.58 921.029 1145.24 c 0,3,4
 606.204 1298.99 606.204 1298.99 413.329 1215.27 c 0,5,6
 302.819 1167.3 302.819 1167.3 258.21 1056.65 c 128,-1,7
 213.602 946.002 213.602 946.002 238.419 853.688 c 128,-1,8
 263.236 761.373 263.236 761.373 321.319 736.05 c 0,9,10
 411.247 696.843 411.247 696.843 557.188 810.321 c 0,11,12
 669.428 897.596 669.428 897.596 793.342 1064.91 c 0,13,14
 809.146 1086.24 809.146 1086.24 836.035 1090.25 c 128,-1,15
 862.925 1094.26 862.925 1094.26 883.33 1079.14 c 128,-1,16
 903.735 1064.03 903.735 1064.03 909.014 1040.38 c 0,17,18
 979.256 725.764 979.256 725.764 896.536 29.1602 c 0,19,20
 893.404 2.79004 893.404 2.79004 872.053 -14.0312 c 128,-1,21
 850.7 -30.8525 850.7 -30.8525 824.324 -27.7207 c 128,-1,22
 797.947 -24.5879 797.947 -24.5879 781.13 -3.2334 c 128,-1,23
 764.312 18.1211 764.312 18.1211 767.443 44.4922 c 0,24,25
 827.572 550.842 827.572 550.842 802.244 867.812 c 1,26,27
 717.722 770.472 717.722 770.472 636.985 707.694 c 0,28,29
 430.082 546.813 430.082 546.813 269.366 616.883 c 0,30,31
 153.938 667.207 153.938 667.207 115.35 810.734 c 128,-1,32
 76.7627 954.261 76.7627 954.261 139.469 1109.79 c 128,-1,33
 202.175 1265.33 202.175 1265.33 361.571 1334.52 c 0,34,35
 609.412 1442.1 609.412 1442.1 978.081 1262.05 c 0,36,37
 1001.95 1250.39 1001.95 1250.39 1010.78 1224.68 c 128,-1,0
 1019.62 1198.98 1019.62 1198.98 1007.96 1175.12 c 128,-1,1
EndSplineSet
EndChar

StartChar: less
Encoding: 28 60 29
Width: 876
GlyphClass: 2
Flags: MW
LayerCount: 2
Fore
SplineSet
748.641 859.642 m 128,-1,1
 761.114 836.2 761.114 836.2 753.173 810.202 c 128,-1,2
 745.232 784.204 745.232 784.204 721.782 771.729 c 2,3,-1
 296.142 545.308 l 1,4,-1
 729.876 365.552 l 2,5,6
 754.408 355.385 754.408 355.385 764.808 330.271 c 128,-1,7
 775.207 305.157 775.207 305.157 765.038 280.619 c 128,-1,8
 754.868 256.081 754.868 256.081 729.752 245.686 c 128,-1,9
 704.637 235.29 704.637 235.29 680.104 245.457 c 2,10,-1
 119.114 477.953 l 2,11,12
 97.5679 486.883 97.5679 486.883 85.8557 508.9 c 0,13,14
 74.1435 530.917 74.1435 530.917 82.0871 556.916 c 128,-1,15
 90.0306 582.915 90.0306 582.915 113.473 595.386 c 2,16,-1
 660.728 886.501 l 2,17,18
 684.182 898.975 684.182 898.975 710.175 891.031 c 128,-1,0
 736.169 883.087 736.169 883.087 748.641 859.642 c 128,-1,1
EndSplineSet
EndChar

StartChar: greater
Encoding: 30 62 31
Width: 857
GlyphClass: 2
Flags: MW
LayerCount: 2
Fore
SplineSet
101.214 859.642 m 128,-1,1
 113.685 883.087 113.685 883.087 139.679 891.031 c 128,-1,2
 165.673 898.975 165.673 898.975 189.126 886.501 c 2,3,-1
 736.381 595.386 l 2,4,5
 759.824 582.915 759.824 582.915 767.768 556.916 c 128,-1,6
 775.711 530.917 775.711 530.917 763.999 508.899 c 128,-1,7
 752.286 486.882 752.286 486.882 730.74 477.953 c 2,8,-1
 169.75 245.457 l 2,9,10
 145.218 235.29 145.218 235.29 120.102 245.686 c 128,-1,11
 94.9864 256.081 94.9864 256.081 84.8168 280.619 c 128,-1,12
 74.6473 305.157 74.6473 305.157 85.0466 330.271 c 128,-1,13
 95.446 355.385 95.446 355.385 119.978 365.552 c 2,14,-1
 553.713 545.308 l 1,15,-1
 128.073 771.729 l 2,16,17
 104.623 784.205 104.623 784.205 96.6819 810.202 c 128,-1,0
 88.7412 836.2 88.7412 836.2 101.214 859.642 c 128,-1,1
EndSplineSet
EndChar

StartChar: question
Encoding: 31 63 32
Width: 855
GlyphClass: 2
Flags: MW
LayerCount: 2
Fore
SplineSet
170.303 888.333 m 0,0,1
 184.18 1118.92 184.18 1118.92 339.668 1155.93 c 0,2,3
 415.705 1174.03 415.705 1174.03 506.782 1149.58 c 0,4,5
 791.91 1073.02 791.91 1073.02 835.094 953.008 c 0,6,7
 878.279 832.991 878.279 832.991 741.48 698.325 c 0,8,9
 665.524 623.556 665.524 623.556 606.594 569.176 c 0,10,11
 547.665 514.795 547.665 514.795 537.139 492.987 c 0,12,13
 526.613 471.18 526.613 471.18 514.907 450.286 c 0,14,15
 422.736 285.767 422.736 285.767 541.751 130.587 c 0,16,17
 579.408 81.4866 579.408 81.4866 527.825 41.9293 c 0,18,19
 452.983 -15.4535 452.983 -15.4535 378.169 160.613 c 0,20,21
 303.354 336.679 303.354 336.679 411.312 531.344 c 1,22,23
 442.723 594.85 442.723 594.85 586.52 727.542 c 0,24,25
 730.317 860.233 730.317 860.233 715.522 901.351 c 0,26,27
 691.935 966.903 691.935 966.903 467.608 1024.37 c 1,28,29
 380.712 1049.11 380.712 1049.11 343.545 1017.24 c 0,30,31
 306.379 985.367 306.379 985.367 303.075 930.484 c 0,32,33
 299.771 875.602 299.771 875.602 305.631 830.453 c 0,34,35
 311.492 785.305 311.492 785.305 283.445 748.896 c 0,36,37
 255.398 712.488 255.398 712.488 209.678 747.697 c 0,38,39
 163.958 782.906 163.958 782.906 170.303 888.333 c 0,0,1
EndSplineSet
Refer: 15 46 N 0.904335 0 0 1.22675 299.608 -348.004 2
EndChar

StartChar: at
Encoding: 32 64 33
Width: 1390
GlyphClass: 2
Flags: MW
LayerCount: 2
Fore
SplineSet
960.495 511.272 m 5,0,1
 969.293 491.218 969.293 491.218 966.351 472.44 c 4,2,3
 941.885 316.346 941.885 316.346 994.742 231.827 c 4,4,5
 1047.6 147.308 1047.6 147.308 1118.17 290.322 c 4,6,7
 1158.69 372.436 1158.69 372.436 1169.84 524.189 c 4,8,9
 1178.66 644.297 1178.66 644.297 1067.02 750.98 c 132,-1,10
 955.374 857.665 955.374 857.665 778.145 900.229 c 132,-1,11
 600.916 942.791 600.916 942.791 456.561 876.997 c 4,12,13
 249.42 782.587 249.42 782.587 226.2 486.867 c 5,14,15
 203.412 302.586 203.412 302.586 342.137 171.665 c 4,16,17
 431.859 86.9883 431.859 86.9883 570.051 83.7744 c 4,18,19
 596.6 83.1562 596.6 83.1562 615.37 63.4961 c 132,-1,20
 634.14 43.835 634.14 43.835 633.522 17.2803 c 132,-1,21
 632.904 -9.27441 632.904 -9.27441 613.241 -28.041 c 132,-1,22
 593.577 -46.8076 593.577 -46.8076 567.028 -46.1904 c 4,23,24
 378.936 -41.8164 378.936 -41.8164 255.875 74.3213 c 132,-1,25
 132.815 190.459 132.815 190.459 102.536 346.576 c 4,26,27
 87.6924 423.108 87.6924 423.108 94.7217 491.958 c 4,28,29
 133.585 872.657 133.585 872.657 402.646 995.29 c 4,30,31
 587.74 1079.65 587.74 1079.65 803.778 1027.77 c 132,-1,32
 1019.82 975.885 1019.82 975.885 1166.31 835.91 c 132,-1,33
 1312.8 695.936 1312.8 695.936 1299.64 516.787 c 132,-1,34
 1286.49 337.638 1286.49 337.638 1230.79 224.772 c 4,35,36
 1163.24 87.8691 1163.24 87.8691 1055.72 74.4702 c 132,-1,37
 948.205 61.0713 948.205 61.0713 881.83 167.197 c 4,38,39
 860.521 201.271 860.521 201.271 847.495 242.536 c 5,40,41
 773.243 145.583 773.243 145.583 693.291 121.562 c 4,42,43
 545.145 77.0498 545.145 77.0498 434.199 188.729 c 4,44,45
 344.768 278.75 344.768 278.75 320.116 428.469 c 132,-1,46
 295.465 578.188 295.465 578.188 387.94 684.483 c 4,47,48
 517.997 833.975 517.997 833.975 812.5 775.8 c 4,49,50
 860.82 766.254 860.82 766.254 902.9 730.762 c 4,51,52
 970.524 673.728 970.524 673.728 976.619 606.311 c 132,-1,53
 982.713 538.894 982.713 538.894 960.495 511.272 c 5,0,1
851.877 523.729 m 5,54,55
 842.524 543.896 842.524 543.896 846.504 567.288 c 4,56,57
 856.01 623.159 856.01 623.159 783.063 649.092 c 5,58,59
 565.788 690.846 565.788 690.846 486.016 599.153 c 4,60,61
 433.317 538.579 433.317 538.579 449.594 439.942 c 132,-1,62
 465.869 341.306 465.869 341.306 525.931 280.846 c 132,-1,63
 585.992 220.387 585.992 220.387 639.081 238.462 c 4,64,65
 752.172 276.966 752.172 276.966 841.58 506.133 c 4,66,67
 845.322 515.724 845.322 515.724 851.877 523.729 c 5,54,55
EndSplineSet
EndChar

StartChar: braceleft
Encoding: 33 123 34
Width: 526
GlyphClass: 2
Flags: MW
LayerCount: 2
Fore
SplineSet
451 -371 m 2,0,1
 262 -371 262 -371 262 -148 c 2,2,-1
 262 150 l 2,3,4
 262 375 262 375 117 403 c 1,5,-1
 117 509 l 1,6,7
 262 541 262 541 262 764 c 2,8,-1
 262 1062 l 2,9,10
 262 1283 262 1283 451 1283 c 2,11,-1
 525 1283 l 1,12,-1
 525 1189 l 1,13,14
 443 1189 443 1189 411.5 1164.5 c 128,-1,15
 380 1140 380 1140 380 1060 c 2,16,-1
 380 737 l 2,17,18
 380 525 380 525 211 457 c 1,19,20
 380 383 380 383 380 176 c 2,21,-1
 380 -145 l 2,22,23
 380 -229 380 -229 413 -252 c 128,-1,24
 446 -275 446 -275 525 -277 c 1,25,-1
 525 -371 l 1,26,-1
 451 -371 l 2,0,1
EndSplineSet
EndChar

StartChar: bar
Encoding: 34 124 35
Width: 335
GlyphClass: 2
Flags: MW
LayerCount: 2
Fore
SplineSet
180 1238.9 m 128,-1,1
 207 1238.9 207 1238.9 226 1219.9 c 128,-1,2
 245 1200.9 245 1200.9 245 1173.9 c 2,3,-1
 245 -218.1 l 2,4,5
 245 -245.1 245 -245.1 226 -264.1 c 128,-1,6
 207 -283.1 207 -283.1 180 -283.1 c 128,-1,7
 153 -283.1 153 -283.1 134 -264.1 c 128,-1,8
 115 -245.1 115 -245.1 115 -218.1 c 2,9,-1
 115 1173.9 l 2,10,11
 115 1200.9 115 1200.9 134 1219.9 c 128,-1,0
 153 1238.9 153 1238.9 180 1238.9 c 128,-1,1
EndSplineSet
EndChar

StartChar: braceright
Encoding: 35 125 36
Width: 504
GlyphClass: 2
Flags: MW
LayerCount: 2
Fore
SplineSet
328 150 m 2,0,-1
 328 -148 l 2,1,2
 328 -371 328 -371 136 -371 c 2,3,-1
 59 -371 l 1,4,-1
 59 -277 l 1,5,6
 143 -275 143 -275 175 -252 c 128,-1,7
 207 -229 207 -229 207 -145 c 2,8,-1
 207 176 l 2,9,10
 207 383 207 383 377 455 c 1,11,12
 207 530 207 530 207 737 c 2,13,-1
 207 1060 l 2,14,15
 207 1140 207 1140 174 1164.5 c 128,-1,16
 141 1189 141 1189 59 1189 c 1,17,-1
 59 1283 l 1,18,-1
 136 1283 l 2,19,20
 328 1283 328 1283 328 1062 c 2,21,-1
 328 764 l 2,22,23
 328 542 328 542 467 509 c 1,24,-1
 467 403 l 1,25,26
 328 371 328 371 328 150 c 2,0,-1
EndSplineSet
EndChar

StartChar: asciitilde
Encoding: 36 126 37
Width: 910
GlyphClass: 2
Flags: MW
LayerCount: 2
Fore
SplineSet
882 933 m 2,0,1
 882 704 882 704 707 704 c 0,2,3
 623 704 623 704 540 763 c 2,4,-1
 395 866 l 2,5,6
 348 899 348 899 304 899 c 0,7,8
 209 899 209 899 196 751 c 1,9,-1
 123 751 l 1,10,11
 139 1002 139 1002 306 1002 c 0,12,13
 355 1002 355 1002 397 975 c 2,14,-1
 609 839 l 2,15,16
 659 807 659 807 705 807 c 0,17,18
 805 807 805 807 808 950 c 1,19,-1
 882 950 l 1,20,-1
 882 933 l 2,0,1
EndSplineSet
EndChar

StartChar: anuswara
Encoding: 38 3330 39
Width: 773
GlyphClass: 2
Flags: MW
LayerCount: 2
Fore
SplineSet
392.318 139.764 m 1,0,1
 494.985 149.689 494.985 149.689 529.98 201.587 c 1,2,3
 547.508 232.165 547.508 232.165 541.88 268.795 c 128,-1,4
 536.252 305.425 536.252 305.425 510.273 335.307 c 128,-1,5
 484.294 365.189 484.294 365.189 440.248 377.87 c 0,6,7
 359.564 401.098 359.564 401.098 282.463 369.257 c 0,8,9
 250.886 356.216 250.886 356.216 240.466 342.23 c 128,-1,10
 230.047 328.245 230.047 328.245 230 304.904 c 0,11,12
 229.878 244.558 229.878 244.558 279.591 191.474 c 128,-1,13
 329.303 138.389 329.303 138.389 392.318 139.764 c 1,0,1
402.279 10.127 m 0,14,15
 281.662 -0.926766 281.662 -0.926766 190.719 96.1876 c 128,-1,16
 99.7754 193.302 99.7754 193.302 100.001 305.17 c 0,17,18
 100.128 367.935 100.128 367.935 136.035 416.099 c 0,19,20
 196.911 497.753 196.911 497.753 339.248 514.689 c 0,21,22
 406.924 522.743 406.924 522.743 482.056 501.113 c 128,-1,23
 557.188 479.484 557.188 479.484 608.11 420.911 c 128,-1,24
 659.033 362.338 659.033 362.338 671.13 283.604 c 128,-1,25
 683.228 204.87 683.228 204.87 640.295 132.742 c 1,26,27
 570.325 25.5605 570.325 25.5605 402.279 10.127 c 0,14,15
EndSplineSet
EndChar

StartChar: ml_a
Encoding: 40 3333 41
Width: 3025
GlyphClass: 2
Flags: MW
LayerCount: 2
Fore
SplineSet
1652.27 42.3672 m 1,0,1
 1631.74 210.167 1631.74 210.167 1649.41 350.164 c 1,2,3
 1622.43 731.484 1622.43 731.484 1457.26 841.573 c 0,4,5
 1333.3 924.191 1333.3 924.191 1140.04 843.581 c 0,6,7
 1018.76 792.996 1018.76 792.996 913.586 699.619 c 1,8,9
 1071.29 697.8 1071.29 697.8 1165.93 648.814 c 0,10,11
 1350.1 553.487 1350.1 553.487 1344.9 358.96 c 128,-1,12
 1339.7 164.453 1339.7 164.453 1197.91 57.4004 c 0,13,14
 1080.55 -31.2148 1080.55 -31.2148 927.528 -17.2319 c 128,-1,15
 774.507 -3.24902 774.507 -3.24902 681.043 112.908 c 0,16,17
 568.311 253.014 568.311 253.014 607.771 475.969 c 0,18,19
 631.383 609.377 631.383 609.377 795.644 767.564 c 1,20,21
 829.051 823.972 829.051 823.972 822.478 840.506 c 0,22,23
 794.853 909.991 794.853 909.991 649.029 903.764 c 128,-1,24
 503.204 897.537 503.204 897.537 376.516 820.049 c 128,-1,25
 249.827 742.561 249.827 742.561 232.535 616.337 c 0,26,27
 202.817 399.419 202.817 399.419 518.766 105.035 c 0,28,29
 538.199 86.9277 538.199 86.9277 539.157 59.7607 c 128,-1,30
 540.115 32.5947 540.115 32.5947 522.012 13.1689 c 128,-1,31
 503.909 -6.26074 503.909 -6.26074 476.746 -7.22266 c 128,-1,32
 449.583 -8.18457 449.583 -8.18457 430.146 9.92188 c 0,33,34
 64.8701 350.266 64.8701 350.266 103.738 633.981 c 0,35,36
 129.399 821.289 129.399 821.289 316.86 935.95 c 0,37,38
 464.079 1026 464.079 1026 638.384 1033.43 c 128,-1,39
 812.689 1040.86 812.689 1040.86 896.082 960.333 c 0,40,41
 929.775 927.799 929.775 927.799 942.829 885.447 c 1,42,43
 1013.76 931.768 1013.76 931.768 1089.99 963.562 c 0,44,45
 1347.49 1070.96 1347.49 1070.96 1529.36 949.748 c 0,46,47
 1671.63 854.925 1671.63 854.925 1734.33 634.468 c 1,48,49
 1868.41 899.053 1868.41 899.053 2131.28 989.643 c 0,50,51
 2341.64 1062.13 2341.64 1062.13 2544.32 989.796 c 0,52,53
 2801.73 897.923 2801.73 897.923 2896.79 619.149 c 1,54,55
 2955.09 439.593 2955.09 439.593 2892.09 283.727 c 1,56,57
 2893.46 248.571 2893.46 248.571 2864.67 228.055 c 1,58,59
 2810.45 135.791 2810.45 135.791 2727.51 76.2769 c 0,60,61
 2581.37 -28.5947 2581.37 -28.5947 2413.05 -28.4556 c 128,-1,62
 2244.73 -28.3165 2244.73 -28.3165 2154.03 55.1113 c 0,63,64
 2042.37 157.822 2042.37 157.822 2089.36 316.36 c 0,65,66
 2112.44 394.225 2112.44 394.225 2167.71 468.08 c 128,-1,67
 2222.98 541.936 2222.98 541.936 2302.82 577.883 c 128,-1,68
 2382.65 613.829 2382.65 613.829 2455.47 614.46 c 0,69,70
 2657.74 616.212 2657.74 616.212 2794.65 469.065 c 1,71,72
 2789.92 562.586 2789.92 562.586 2738.89 657.919 c 0,73,74
 2656.58 811.696 2656.58 811.696 2498.73 868.034 c 128,-1,75
 2340.89 924.372 2340.89 924.372 2169.74 865.391 c 128,-1,76
 1998.58 806.41 1998.58 806.41 1891.01 645.449 c 0,77,78
 1803.87 515.063 1803.87 515.063 1779.98 345.867 c 1,79,80
 1788.42 212.119 1788.42 212.119 1780.83 54.3506 c 0,81,82
 1779.55 27.8281 1779.55 27.8281 1759.42 9.55176 c 128,-1,83
 1739.3 -8.72363 1739.3 -8.72363 1716.45 -7.62305 c 0,84,85
 1669.4 -5.35605 1669.4 -5.35605 1652.27 42.3672 c 1,0,1
787.96 562.834 m 1,86,87
 744.251 501.171 744.251 501.171 735.782 453.314 c 0,88,89
 706.616 288.497 706.616 288.497 782.327 194.404 c 0,90,91
 841.232 121.194 841.232 121.194 941.782 112.007 c 128,-1,92
 1042.33 102.819 1042.33 102.819 1126.88 166.658 c 128,-1,93
 1211.42 230.496 1211.42 230.496 1214.95 362.435 c 0,94,95
 1216.56 422.505 1216.56 422.505 1193.73 461.182 c 128,-1,96
 1170.91 499.857 1170.91 499.857 1117.56 527.469 c 0,97,98
 1002.92 586.808 1002.92 586.808 787.96 562.834 c 1,86,87
2754.21 296.725 m 1,99,100
 2724.74 369.783 2724.74 369.783 2644.92 427.596 c 128,-1,101
 2565.1 485.408 2565.1 485.408 2459.21 484.488 c 128,-1,102
 2353.33 483.567 2353.33 483.567 2278.67 399.396 c 1,103,104
 2154.29 231.493 2154.29 231.493 2242.04 150.791 c 0,105,106
 2295.48 101.641 2295.48 101.641 2417.54 101.541 c 128,-1,107
 2539.6 101.44 2539.6 101.44 2646.29 177.998 c 0,108,109
 2713.98 226.571 2713.98 226.571 2754.21 296.725 c 1,99,100
EndSplineSet
EndChar

StartChar: ml_aa
Encoding: 41 3334 42
Width: 3282
GlyphClass: 2
Flags: MW
LayerCount: 2
Fore
SplineSet
1734.2 631.045 m 1,0,1
 1867.43 896.631 1867.43 896.631 2129.5 988.418 c 0,2,3
 2339.25 1061.88 2339.25 1061.88 2541.92 989.933 c 0,4,5
 2786.71 903.034 2786.71 903.034 2886.87 642.546 c 1,6,7
 2961.91 604.389 2961.91 604.389 3025.04 540.185 c 0,8,9
 3154.76 408.279 3154.76 408.279 3178.76 213.126 c 128,-1,10
 3202.76 17.9736 3202.76 17.9736 3064.77 -147.747 c 0,11,12
 2816.43 -445.982 2816.43 -445.982 2174.12 -429.786 c 0,13,14
 2147.57 -429.116 2147.57 -429.116 2128.84 -409.419 c 128,-1,15
 2110.11 -389.721 2110.11 -389.721 2110.78 -363.168 c 128,-1,16
 2111.45 -336.614 2111.45 -336.614 2131.15 -317.886 c 128,-1,17
 2150.85 -299.158 2150.85 -299.158 2177.4 -299.827 c 0,18,19
 2756.8 -314.438 2756.8 -314.438 2964.87 -64.5615 c 0,20,21
 3066.87 57.9336 3066.87 57.9336 3048.71 205.604 c 128,-1,22
 3030.54 353.274 3030.54 353.274 2924.75 456.593 c 1,23,24
 2927.23 317.489 2927.23 317.489 2863.62 219.418 c 0,25,26
 2745.28 36.9912 2745.28 36.9912 2553.46 -16.6484 c 0,27,28
 2405.96 -57.8955 2405.96 -57.8955 2271.22 -18.0576 c 0,29,30
 2202.38 2.29492 2202.38 2.29492 2152.77 48.3252 c 0,31,32
 2042.32 150.808 2042.32 150.808 2089.14 310.108 c 0,33,34
 2112.19 388.521 2112.19 388.521 2175.72 474.184 c 0,35,36
 2179.18 478.843 2179.18 478.843 2183.4 482.814 c 0,37,38
 2440.1 724.202 2440.1 724.202 2716.45 693.174 c 1,39,40
 2635.52 818.757 2635.52 818.757 2487.24 871.396 c 128,-1,41
 2338.96 924.033 2338.96 924.033 2168.55 864.353 c 128,-1,42
 1998.15 804.672 1998.15 804.672 1890.92 642.74 c 0,43,44
 1803.7 511.034 1803.7 511.034 1779.83 340.111 c 1,45,46
 1788.29 205.229 1788.29 205.229 1780.69 46.1973 c 0,47,48
 1779.42 19.6738 1779.42 19.6738 1759.31 1.38965 c 128,-1,49
 1739.19 -16.8945 1739.19 -16.8945 1714.15 -15.6992 c 128,-1,50
 1689.11 -14.5029 1689.11 -14.5029 1671.56 2.08691 c 128,-1,51
 1654 18.6768 1654 18.6768 1651.24 41.4688 c 0,52,53
 1631.61 203.168 1631.61 203.168 1649.26 344.362 c 1,54,55
 1622.27 732.076 1622.27 732.076 1454.83 842.166 c 0,56,57
 1330.99 923.588 1330.99 923.588 1138.82 842.229 c 0,58,59
 1017.75 790.971 1017.75 790.971 912.445 696.434 c 1,60,61
 1070.96 694.778 1070.96 694.778 1165.82 645.252 c 0,62,63
 1349.99 549.098 1349.99 549.098 1344.8 353.413 c 128,-1,64
 1339.62 157.714 1339.62 157.714 1198.11 49.8848 c 0,65,66
 1080.67 -39.6104 1080.67 -39.6104 927.534 -25.5059 c 128,-1,67
 774.403 -11.4004 774.403 -11.4004 680.947 105.61 c 0,68,69
 568.304 246.645 568.304 246.645 607.706 471.209 c 0,70,71
 631.253 605.411 631.253 605.411 795.367 764.904 c 1,72,73
 829.161 822.596 829.161 822.596 822.342 839.648 c 0,74,75
 794.036 910.431 794.036 910.431 647.333 903.398 c 128,-1,76
 500.629 896.365 500.629 896.365 374.984 817.934 c 128,-1,77
 249.341 739.501 249.341 739.501 232.443 612.417 c 0,78,79
 203.31 393.312 203.31 393.312 518.938 96.6621 c 0,80,81
 538.294 78.4707 538.294 78.4707 539.134 51.3008 c 128,-1,82
 539.975 24.1299 539.975 24.1299 521.787 4.78223 c 128,-1,83
 503.601 -14.5684 503.601 -14.5684 476.434 -15.4131 c 128,-1,84
 449.266 -16.2568 449.266 -16.2568 429.907 1.93359 c 0,85,86
 65.6475 344.291 65.6475 344.291 103.577 629.552 c 0,87,88
 128.547 817.347 128.547 817.347 314.002 933.115 c 0,89,90
 460.546 1024.59 460.546 1024.59 635.324 1032.97 c 128,-1,91
 810.102 1041.34 810.102 1041.34 894.633 960.877 c 0,92,93
 929.546 927.643 929.546 927.643 942.858 883.997 c 1,94,95
 1012.97 930.115 1012.97 930.115 1088.14 961.942 c 0,96,97
 1344.32 1070.4 1344.32 1070.4 1526.24 950.793 c 0,98,99
 1670.67 855.833 1670.67 855.833 1734.2 631.045 c 1,0,1
788.088 559.596 m 1,100,101
 744.29 497.427 744.29 497.427 735.75 448.744 c 0,102,103
 706.488 281.942 706.488 281.942 782.526 186.738 c 0,104,105
 841.439 112.975 841.439 112.975 941.801 103.73 c 128,-1,106
 1042.16 94.4863 1042.16 94.4863 1126.74 158.938 c 128,-1,107
 1211.31 223.391 1211.31 223.391 1214.85 356.856 c 0,108,109
 1216.46 417.725 1216.46 417.725 1193.54 456.913 c 128,-1,110
 1170.61 496.101 1170.61 496.101 1117.27 523.95 c 0,111,112
 1002.75 583.737 1002.75 583.737 788.088 559.596 c 1,100,101
2781.41 546.303 m 1,113,114
 2533.52 630.592 2533.52 630.592 2276.73 392.104 c 1,115,116
 2154.51 224.04 2154.51 224.04 2242.07 142.812 c 0,117,118
 2295.46 93.2822 2295.46 93.2822 2417.35 93.1807 c 128,-1,119
 2539.25 93.0791 2539.25 93.0791 2656.58 178.012 c 128,-1,120
 2773.91 262.944 2773.91 262.944 2792.45 409.229 c 0,121,122
 2800.46 472.448 2800.46 472.448 2781.41 546.303 c 1,113,114
EndSplineSet
EndChar

StartChar: ml_i
Encoding: 42 3335 43
Width: 1680
GlyphClass: 2
Flags: MW
LayerCount: 2
Fore
SplineSet
231.677 417.319 m 1,0,1
 360.019 521.414 360.019 521.414 517.537 433.436 c 0,2,3
 597.081 389.008 597.081 389.008 642.144 276.653 c 128,-1,4
 687.206 164.3 687.206 164.3 627.054 75.1074 c 0,5,6
 590.922 21.5312 590.922 21.5312 527.623 2.84863 c 0,7,8
 423.167 -27.9834 423.167 -27.9834 326.694 13.0811 c 0,9,10
 156.84 85.3848 156.84 85.3848 105.875 361.47 c 0,11,12
 92.125 435.946 92.125 435.946 110.557 534.732 c 0,13,14
 146.343 726.54 146.343 726.54 264.704 861.194 c 128,-1,15
 383.064 995.848 383.064 995.848 532.72 982.718 c 0,16,17
 614.435 975.548 614.435 975.548 687.333 917.08 c 1,18,19
 787.488 842.74 787.488 842.74 831.093 706.883 c 1,20,21
 904.07 881.63 904.07 881.63 1022.28 949.666 c 0,22,23
 1161.51 1029.02 1161.51 1029.02 1291.1 949.619 c 128,-1,24
 1420.69 870.215 1420.69 870.215 1478.07 711.155 c 0,25,26
 1552.96 503.559 1552.96 503.559 1478.87 275.674 c 0,27,28
 1428.2 117.897 1428.2 117.897 1318.17 6.41211 c 0,29,30
 1242.57 -70.2021 1242.57 -70.2021 1076.05 -123.048 c 0,31,32
 982.437 -152.76 982.437 -152.76 866.631 -158.004 c 128,-1,33
 750.826 -163.249 750.826 -163.249 595.463 -167.083 c 0,34,35
 280.148 -174.866 280.148 -174.866 242.836 -252.78 c 1,36,37
 247.666 -277.756 247.666 -277.756 314.051 -309.938 c 128,-1,38
 380.436 -342.119 380.436 -342.119 507.009 -343.899 c 1,39,40
 630.576 -334.304 630.576 -334.304 890.193 -295.894 c 0,41,42
 1313.03 -233.335 1313.03 -233.335 1524.54 -261.803 c 0,43,44
 1550.85 -265.345 1550.85 -265.345 1567.34 -286.956 c 128,-1,45
 1583.83 -308.567 1583.83 -308.567 1580.29 -334.892 c 128,-1,46
 1576.74 -361.216 1576.74 -361.216 1555.13 -377.699 c 128,-1,47
 1533.52 -394.184 1533.52 -394.184 1488.05 -388.064 c 0,48,49
 1313.88 -364.622 1313.88 -364.622 847.764 -433.586 c 0,50,51
 570.774 -474.567 570.774 -474.567 500.999 -473.85 c 0,52,53
 268.421 -471.458 268.421 -471.458 162.805 -363.332 c 0,54,55
 111.608 -310.92 111.608 -310.92 112.63 -261.367 c 0,56,57
 115.663 -114.046 115.663 -114.046 332.713 -62.7246 c 0,58,59
 423.355 -41.293 423.355 -41.293 683.896 -34.8613 c 128,-1,60
 944.438 -28.4297 944.438 -28.4297 1058.52 7.77832 c 128,-1,61
 1172.61 43.9863 1172.61 43.9863 1216.82 88.7832 c 0,62,63
 1315.67 188.946 1315.67 188.946 1355.74 317.45 c 0,64,65
 1414.8 503.461 1414.8 503.461 1355.79 667.034 c 0,66,67
 1313.88 783.197 1313.88 783.197 1236.03 830.899 c 128,-1,68
 1158.18 878.602 1158.18 878.602 1087.12 836.994 c 0,69,70
 967.572 768.184 967.572 768.184 904.151 510.188 c 0,71,72
 903.678 508.258 903.678 508.258 890.001 464.394 c 128,-1,73
 876.324 420.53 876.324 420.53 886.705 299.492 c 128,-1,74
 897.086 178.453 897.086 178.453 886.525 69.6074 c 0,75,76
 884.223 45.8623 884.223 45.8623 865.561 28.3916 c 128,-1,77
 846.896 10.9199 846.896 10.9199 821.136 10.8818 c 128,-1,78
 795.373 10.8438 795.373 10.8438 776.121 30.0381 c 128,-1,79
 756.869 49.2324 756.869 49.2324 756.83 75.7861 c 0,80,81
 756.338 411.64 756.338 411.64 735.591 544.755 c 128,-1,82
 714.844 677.87 714.844 677.87 679.697 732.582 c 128,-1,83
 644.554 787.294 644.554 787.294 609.192 813.176 c 0,84,85
 607.849 814.159 607.849 814.159 606.556 815.212 c 0,86,87
 484.604 914.457 484.604 914.457 354.508 766.451 c 0,88,89
 267.582 667.56 267.582 667.56 239.997 519.714 c 0,90,91
 230.204 467.222 230.204 467.222 231.677 417.319 c 1,0,1
253.971 305.139 m 1,92,93
 285.143 211.188 285.143 211.188 341.83 156.392 c 128,-1,94
 398.518 101.596 398.518 101.596 485.072 124.74 c 1,95,96
 554.023 147.128 554.023 147.128 517.916 237.163 c 0,97,98
 493.431 298.217 493.431 298.217 436.253 331.294 c 128,-1,99
 379.076 364.372 379.076 364.372 311.593 314.851 c 0,100,101
 285.685 295.839 285.685 295.839 253.971 305.139 c 1,92,93
EndSplineSet
EndChar

StartChar: ml_u
Encoding: 44 3337 45
Width: 1211
GlyphClass: 2
Flags: MW
LayerCount: 2
Fore
SplineSet
290.11 607.235 m 1,0,1
 265.38 506.51 265.38 506.51 295.144 454.361 c 128,-1,2
 324.908 402.213 324.908 402.213 361.347 390.067 c 128,-1,3
 397.786 377.921 397.786 377.921 439.808 402.939 c 128,-1,4
 481.83 427.957 481.83 427.957 501.464 484.606 c 128,-1,5
 521.098 541.255 521.098 541.255 499.839 570.621 c 128,-1,6
 478.579 599.987 478.579 599.987 374.647 562.994 c 0,7,8
 349.623 554.087 349.623 554.087 323.822 566.344 c 128,-1,9
 298.021 578.602 298.021 578.602 290.11 607.235 c 1,0,1
315.47 677.408 m 1,10,11
 322.865 682.553 322.865 682.553 331.052 685.467 c 0,12,13
 526.755 755.124 526.755 755.124 608.084 642.789 c 0,14,15
 666.099 562.655 666.099 562.655 627.61 451.597 c 128,-1,16
 589.122 340.539 589.122 340.539 501.133 288.154 c 128,-1,17
 413.144 235.769 413.144 235.769 324.893 265.186 c 128,-1,18
 236.642 294.603 236.642 294.603 190.294 375.81 c 0,19,20
 114.302 508.954 114.302 508.954 178.745 687.471 c 0,21,22
 219.228 799.615 219.228 799.615 312.079 881.128 c 0,23,24
 442.341 994.474 442.341 994.474 619.098 996.826 c 128,-1,25
 795.856 999.178 795.856 999.178 932.787 860.247 c 128,-1,26
 1069.72 721.316 1069.72 721.316 1081.71 454.549 c 0,27,28
 1088.33 307.513 1088.33 307.513 1021.82 195.974 c 0,29,30
 974.275 116.241 974.275 116.241 837.686 53.804 c 0,31,32
 761.563 19.0072 761.563 19.0072 662.086 4.51876 c 128,-1,33
 562.609 -9.96966 562.609 -9.96966 482.656 -19.8849 c 0,34,35
 186.365 -56.6284 186.365 -56.6284 133.398 -112.809 c 1,36,37
 157.283 -131.83 157.283 -131.83 220.972 -143.355 c 128,-1,38
 284.66 -154.88 284.66 -154.88 331.768 -153.067 c 128,-1,39
 378.877 -151.254 378.877 -151.254 481.958 -142.561 c 0,40,41
 1008.17 -98.1863 1008.17 -98.1863 1305.9 -130.659 c 0,42,43
 1332.3 -133.538 1332.3 -133.538 1349.32 -154.728 c 128,-1,44
 1366.35 -175.918 1366.35 -175.918 1363.47 -202.323 c 128,-1,45
 1360.59 -228.728 1360.59 -228.728 1339.4 -245.75 c 128,-1,46
 1318.2 -262.771 1318.2 -262.771 1291.8 -259.892 c 0,47,48
 1006.61 -228.787 1006.61 -228.787 486.42 -272.646 c 0,49,50
 376.087 -281.949 376.087 -281.949 326.064 -283.69 c 128,-1,51
 276.04 -285.432 276.04 -285.432 197.656 -271.247 c 0,52,53
 20.8151 -239.246 20.8151 -239.246 1.93938 -134.437 c 0,54,55
 -18.8349 -19.0864 -18.8349 -19.0864 161.282 48.3431 c 0,56,57
 236.754 76.5971 236.754 76.5971 310.873 87.7983 c 128,-1,58
 384.992 98.9994 384.992 98.9994 548.891 119.325 c 128,-1,59
 712.789 139.65 712.789 139.65 798.082 178.638 c 128,-1,60
 883.374 217.627 883.374 217.627 905.966 255.517 c 0,61,62
 956.706 340.612 956.706 340.612 951.845 448.711 c 0,63,64
 942.091 665.611 942.091 665.611 831.778 777.536 c 0,65,66
 742.171 868.453 742.171 868.453 616.736 866.783 c 128,-1,67
 491.301 865.114 491.301 865.114 397.616 783.232 c 0,68,69
 344.766 737.039 344.766 737.039 315.47 677.408 c 1,10,11
EndSplineSet
EndChar

StartChar: ml_r
Encoding: 46 3339 47
Width: 1863
GlyphClass: 2
Flags: MW
LayerCount: 2
Fore
SplineSet
759.646 539.073 m 5,0,1
 853.22 499.941 853.22 499.941 1027.96 432.979 c 5,2,3
 1162.09 489.63 1162.09 489.63 1278.9 541.521 c 5,4,5
 1053.13 721.621 1053.13 721.621 1070.85 843.555 c 132,-1,6
 1088.56 965.487 1088.56 965.487 1227.86 986.087 c 132,-1,7
 1367.15 1006.69 1367.15 1006.69 1509.6 956.822 c 132,-1,8
 1652.06 906.959 1652.06 906.959 1689.67 806.2 c 4,9,10
 1747.2 652.107 1747.2 652.107 1514.17 507.951 c 4,11,12
 1476.61 484.71 1476.61 484.71 1199.68 365.008 c 5,13,14
 1554.76 220.154 1554.76 220.154 1652.81 136.342 c 132,-1,15
 1750.87 52.5293 1750.87 52.5293 1761.31 -34.1475 c 4,16,17
 1783.16 -215.487 1783.16 -215.487 1581.81 -313.076 c 132,-1,18
 1380.46 -410.666 1380.46 -410.666 1095.64 -410.727 c 132,-1,19
 810.829 -410.788 810.829 -410.788 579.995 -313.548 c 132,-1,20
 349.161 -216.309 349.161 -216.309 343.697 -22.6201 c 4,21,22
 340.45 92.4971 340.45 92.4971 564.126 216.151 c 4,23,24
 674.094 276.944 674.094 276.944 857.216 359.169 c 5,25,26
 231.945 604.818 231.945 604.818 133.579 743.497 c 4,27,28
 73.2852 828.501 73.2852 828.501 121.254 888.642 c 132,-1,29
 169.223 948.781 169.223 948.781 234.494 966.299 c 132,-1,30
 299.767 983.817 299.767 983.817 446.538 987.562 c 132,-1,31
 593.31 991.309 593.31 991.309 714.216 952.057 c 4,32,33
 1009.9 856.062 1009.9 856.062 945.578 708.548 c 4,34,35
 905.189 615.924 905.189 615.924 759.646 539.073 c 5,0,1
1030.01 292.784 m 5,36,37
 497.884 67.124 497.884 67.124 473.67 -19.7773 c 5,38,39
 477.867 -129.466 477.867 -129.466 657.478 -205.124 c 132,-1,40
 837.087 -280.782 837.087 -280.782 1093.84 -280.728 c 132,-1,41
 1350.6 -280.673 1350.6 -280.673 1466.65 -224.426 c 4,42,43
 1727.12 -98.1895 1727.12 -98.1895 1599.4 10.9814 c 132,-1,44
 1471.67 120.152 1471.67 120.152 1030.01 292.784 c 5,36,37
238.724 825.6 m 5,45,46
 285.699 751.219 285.699 751.219 601.729 607.538 c 5,47,48
 607.095 610.831 607.095 610.831 633.873 622.326 c 132,-1,49
 660.651 633.821 660.651 633.821 711.973 662.188 c 132,-1,50
 763.294 690.557 763.294 690.557 794.55 720.789 c 132,-1,51
 825.806 751.021 825.806 751.021 815.072 761.98 c 4,52,53
 714.799 864.367 714.799 864.367 404.51 856.448 c 4,54,55
 277.539 853.207 277.539 853.207 238.724 825.6 c 5,45,46
1412.65 602.834 m 5,56,57
 1528.65 658.16 1528.65 658.16 1564.15 725.302 c 4,58,59
 1571.2 738.622 1571.2 738.622 1569.9 746.336 c 132,-1,60
 1568.6 754.051 1568.6 754.051 1567.88 760.73 c 5,61,62
 1551.58 804.395 1551.58 804.395 1453.02 838.895 c 132,-1,63
 1354.46 873.396 1354.46 873.396 1278.88 862.219 c 132,-1,64
 1203.3 851.041 1203.3 851.041 1201.57 839.146 c 4,65,66
 1190.98 766.232 1190.98 766.232 1412.65 602.834 c 5,56,57
EndSplineSet
EndChar

StartChar: ml_l
Encoding: 47 3340 48
Width: 1909
GlyphClass: 2
Flags: MW
LayerCount: 2
Fore
SplineSet
897.772 70.9414 m 1,0,1
 878.439 202.226 878.439 202.226 896.334 499.092 c 1,2,3
 895.243 517.129 895.243 517.129 878.46 576.744 c 0,4,5
 813.013 809.22 813.013 809.22 674.076 868.513 c 0,6,7
 588.566 905.005 588.566 905.005 491.47 856.533 c 0,8,9
 340.71 781.269 340.71 781.269 257.479 558.979 c 1,10,11
 371.111 630.789 371.111 630.789 471.904 599.305 c 0,12,13
 593.46 561.336 593.46 561.336 621.762 430.694 c 0,14,15
 635.25 368.419 635.25 368.419 622.502 295.055 c 0,16,17
 585.169 80.2158 585.169 80.2158 457.553 28.4199 c 1,18,19
 343.421 -12.8311 343.421 -12.8311 242.524 73.834 c 128,-1,20
 141.628 160.499 141.628 160.499 112.718 300.976 c 128,-1,21
 83.8066 441.452 83.8066 441.452 115.882 545.798 c 0,22,23
 179.687 753.365 179.687 753.365 304.122 878.168 c 128,-1,24
 428.558 1002.97 428.558 1002.97 579.725 1013.96 c 128,-1,25
 730.892 1024.95 730.892 1024.95 854.296 897.331 c 0,26,27
 918.37 831.067 918.37 831.067 965.974 719.612 c 1,28,29
 1034.23 858.727 1034.23 858.727 1147.18 937.035 c 0,30,31
 1298.13 1041.69 1298.13 1041.69 1462.91 1006.14 c 128,-1,32
 1627.69 970.579 1627.69 970.579 1724.34 831.52 c 128,-1,33
 1820.98 692.459 1820.98 692.459 1809.38 510.245 c 128,-1,34
 1797.78 328.03 1797.78 328.03 1760.01 217.136 c 128,-1,35
 1722.24 106.24 1722.24 106.24 1646.08 50.6328 c 0,36,37
 1595.73 13.8711 1595.73 13.8711 1536.2 12.9326 c 128,-1,38
 1476.66 11.9941 1476.66 11.9941 1423.93 45.6475 c 0,39,40
 1336.39 100.356 1336.39 100.356 1302.96 204.682 c 128,-1,41
 1269.53 309.007 1269.53 309.007 1301.96 388.03 c 0,42,43
 1363.07 536.954 1363.07 536.954 1459.86 583.368 c 128,-1,44
 1556.64 629.782 1556.64 629.782 1663.38 592.438 c 0,45,46
 1676.2 587.95 1676.2 587.95 1677.57 587.474 c 1,47,48
 1667.71 685.2 1667.71 685.2 1608.95 769.756 c 128,-1,49
 1550.18 854.312 1550.18 854.312 1438.01 878.518 c 128,-1,50
 1325.84 902.722 1325.84 902.722 1213.88 825.094 c 0,51,52
 1079.96 732.245 1079.96 732.245 1026.64 497.908 c 1,53,54
 1047.59 149.727 1047.59 149.727 1035.38 63.5391 c 1,55,56
 1050.26 37.1455 1050.26 37.1455 1019.5 14.2539 c 0,57,58
 1007.15 5.05664 1007.15 5.05664 986.823 -1.22754 c 0,59,60
 904.921 -26.5498 904.921 -26.5498 897.109 41.3662 c 1,61,-1
 897.772 70.9414 l 1,0,1
1673.82 444.983 m 1,62,63
 1669.62 446.999 1669.62 446.999 1658.78 453.562 c 0,64,65
 1584.08 498.762 1584.08 498.762 1511.18 463.808 c 0,66,67
 1464.36 441.354 1464.36 441.354 1427.98 352.698 c 0,68,69
 1407.8 303.522 1407.8 303.522 1426.73 244.443 c 128,-1,70
 1445.66 185.365 1445.66 185.365 1482.25 162.85 c 128,-1,71
 1518.85 140.333 1518.85 140.333 1533.99 140.573 c 128,-1,72
 1549.14 140.814 1549.14 140.814 1576.94 161.117 c 128,-1,73
 1604.75 181.421 1604.75 181.421 1633.14 254 c 128,-1,74
 1661.54 326.579 1661.54 326.579 1673.82 444.983 c 1,62,63
230.598 436.997 m 1,75,76
 227.945 385.985 227.945 385.985 238.044 336.919 c 0,77,78
 260.011 230.187 260.011 230.187 318.302 180.116 c 128,-1,79
 376.593 130.047 376.593 130.047 408.663 148.876 c 1,80,81
 469.438 173.544 469.438 173.544 493.365 311.238 c 128,-1,82
 517.293 448.932 517.293 448.932 433.143 475.219 c 0,83,84
 381.7 491.286 381.7 491.286 309.122 436.71 c 0,85,86
 270.308 407.672 270.308 407.672 230.598 436.997 c 1,75,76
EndSplineSet
EndChar

StartChar: ml_e
Encoding: 48 3342 49
Width: 2739
GlyphClass: 2
Flags: MW
LayerCount: 2
Fore
SplineSet
337.774 26.207 m 132,-1,1
 318.896 7.53418 318.896 7.53418 291.712 7.68359 c 132,-1,2
 264.528 7.83398 264.528 7.83398 245.852 26.7197 c 4,3,4
 52.5703 222.169 52.5703 222.169 115.424 409.672 c 4,5,6
 157.047 533.84 157.047 533.84 290.25 602.921 c 132,-1,7
 423.453 672.002 423.453 672.002 552.674 653.794 c 4,8,9
 703.038 632.607 703.038 632.607 748.808 507.951 c 4,10,11
 803.689 358.476 803.689 358.476 661.626 123.168 c 5,12,13
 937.226 109.325 937.226 109.325 1100.53 101.935 c 5,14,15
 1099.78 249.39 1099.78 249.39 1149.14 397.487 c 4,16,17
 1266.14 744.692 1266.14 744.692 1530.38 911.667 c 4,18,19
 1751.88 1051.64 1751.88 1051.64 1999.17 1029 c 132,-1,20
 2246.45 1006.35 2246.45 1006.35 2426.42 849.385 c 132,-1,21
 2606.39 692.415 2606.39 692.415 2634.44 439.203 c 4,22,23
 2684.85 -15.8301 2684.85 -15.8301 2197.23 -529.908 c 4,24,25
 2178.96 -549.176 2178.96 -549.176 2151.79 -549.898 c 132,-1,26
 2124.62 -550.621 2124.62 -550.621 2105.34 -532.343 c 132,-1,27
 2086.07 -514.065 2086.07 -514.065 2085.35 -486.891 c 132,-1,28
 2084.63 -459.715 2084.63 -459.715 2102.91 -440.451 c 4,29,30
 2548.99 29.8457 2548.99 29.8457 2505.23 424.897 c 4,31,32
 2482.75 627.746 2482.75 627.746 2337.73 754.239 c 132,-1,33
 2192.7 880.731 2192.7 880.731 1988.35 899.443 c 132,-1,34
 1784 918.155 1784 918.155 1599.82 801.77 c 4,35,36
 1374.6 659.447 1374.6 659.447 1272.39 356.142 c 4,37,38
 1228.84 225.48 1228.84 225.48 1230.59 96.3594 c 5,39,40
 1623.39 80.916 1623.39 80.916 1764.01 128.423 c 4,41,42
 1865.91 162.849 1865.91 162.849 1888.72 252.738 c 4,43,44
 1889.48 257.643 1889.48 257.643 1890.93 262.227 c 4,45,46
 1916.93 383.8 1916.93 383.8 1852.52 748.704 c 4,47,48
 1847.9 774.855 1847.9 774.855 1863.49 797.125 c 132,-1,49
 1879.08 819.396 1879.08 819.396 1905.23 824.011 c 132,-1,50
 1931.39 828.627 1931.39 828.627 1953.66 813.037 c 132,-1,51
 1975.92 797.448 1975.92 797.448 1980.54 771.296 c 4,52,53
 2001.71 651.379 2001.71 651.379 2012.62 572.675 c 4,54,55
 2043.01 353.445 2043.01 353.445 2017.39 232.952 c 5,56,57
 1984.18 -220.35 1984.18 -220.35 1802.87 -409.551 c 4,58,59
 1665.8 -552.588 1665.8 -552.588 1488.96 -512.386 c 4,60,61
 1340.69 -478.677 1340.69 -478.677 1239.12 -337.992 c 132,-1,62
 1137.56 -197.308 1137.56 -197.308 1110.9 -28.6582 c 5,63,64
 913.008 -19.7939 913.008 -19.7939 541.233 -0.916016 c 4,65,66
 522.213 0.0498047 522.213 0.0498047 503.668 13.3105 c 132,-1,67
 485.122 26.5713 485.122 26.5713 480.666 53.3896 c 132,-1,68
 476.211 80.209 476.211 80.209 491.656 101.808 c 4,69,70
 582.75 229.198 582.75 229.198 613.902 321.275 c 132,-1,71
 645.055 413.354 645.055 413.354 631.021 451.575 c 132,-1,72
 616.987 489.797 616.987 489.797 596.587 504.497 c 132,-1,73
 576.186 519.197 576.186 519.197 534.536 525.065 c 4,74,75
 446.441 537.479 446.441 537.479 355.016 490.066 c 132,-1,76
 263.589 442.654 263.589 442.654 238.683 368.354 c 4,77,78
 201.256 256.698 201.256 256.698 338.287 118.13 c 4,79,80
 356.964 99.2393 356.964 99.2393 356.811 72.0596 c 132,-1,0
 356.656 44.8799 356.656 44.8799 337.774 26.207 c 132,-1,1
1860.61 28.5781 m 5,81,82
 1706.82 -51.6426 1706.82 -51.6426 1244.01 -34.2471 c 5,83,84
 1268.61 -156.732 1268.61 -156.732 1342.98 -259.76 c 132,-1,85
 1417.36 -362.787 1417.36 -362.787 1517.79 -385.621 c 4,86,87
 1622.85 -409.511 1622.85 -409.511 1718.91 -309.276 c 132,-1,88
 1814.96 -209.043 1814.96 -209.043 1860.61 28.5781 c 5,81,82
EndSplineSet
EndChar

StartChar: ml_ee
Encoding: 49 3343 50
Width: 2796
GlyphClass: 2
Flags: MW
LayerCount: 2
Fore
SplineSet
2398.96 596.473 m 1,0,1
 2417.39 772.751 2417.39 772.751 2295.27 855.717 c 128,-1,2
 2173.16 938.682 2173.16 938.682 1973.58 922.391 c 128,-1,3
 1774 906.1 1774 906.1 1588.42 775.516 c 0,4,5
 1362.5 616.542 1362.5 616.542 1272.39 349.145 c 0,6,7
 1228.84 218.48 1228.84 218.48 1230.59 89.3594 c 1,8,9
 1623.38 73.916 1623.38 73.916 1764.01 121.423 c 0,10,11
 1865.91 155.849 1865.91 155.849 1888.72 245.738 c 0,12,13
 1889.48 250.643 1889.48 250.643 1890.93 255.226 c 0,14,15
 1916.93 376.799 1916.93 376.799 1852.52 741.704 c 0,16,17
 1847.9 767.855 1847.9 767.855 1863.49 790.125 c 128,-1,18
 1879.08 812.396 1879.08 812.396 1905.23 817.011 c 128,-1,19
 1931.39 821.627 1931.39 821.627 1953.66 806.037 c 128,-1,20
 1975.92 790.448 1975.92 790.448 1980.54 764.296 c 0,21,22
 2001.71 644.379 2001.71 644.379 2012.62 565.675 c 0,23,24
 2043.01 346.445 2043.01 346.445 2017.39 225.952 c 1,25,26
 1984.18 -227.35 1984.18 -227.35 1802.87 -416.551 c 0,27,28
 1665.8 -559.588 1665.8 -559.588 1488.96 -519.386 c 0,29,30
 1340.69 -485.677 1340.69 -485.677 1239.12 -344.992 c 128,-1,31
 1137.56 -204.308 1137.56 -204.308 1110.9 -35.6582 c 1,32,33
 913.008 -26.7939 913.008 -26.7939 541.233 -7.91602 c 0,34,35
 522.213 -6.9502 522.213 -6.9502 503.668 6.31055 c 128,-1,36
 485.122 19.5713 485.122 19.5713 480.666 46.3896 c 128,-1,37
 476.211 73.209 476.211 73.209 491.656 94.8076 c 0,38,39
 582.75 222.198 582.75 222.198 613.902 314.275 c 128,-1,40
 645.055 406.354 645.055 406.354 631.021 444.575 c 128,-1,41
 616.987 482.797 616.987 482.797 596.586 497.497 c 128,-1,42
 576.186 512.197 576.186 512.197 534.536 518.065 c 0,43,44
 446.441 530.479 446.441 530.479 355.016 483.066 c 128,-1,45
 263.589 435.654 263.589 435.654 238.683 361.354 c 0,46,47
 201.256 249.698 201.256 249.698 338.287 111.13 c 0,48,49
 356.964 92.2393 356.964 92.2393 356.811 65.0596 c 128,-1,50
 356.656 37.8799 356.656 37.8799 337.773 19.207 c 128,-1,51
 318.896 0.53418 318.896 0.53418 291.712 0.683594 c 128,-1,52
 264.528 0.833984 264.528 0.833984 245.852 19.7197 c 0,53,54
 52.5703 215.169 52.5703 215.169 115.424 402.672 c 0,55,56
 157.047 526.84 157.047 526.84 290.25 595.921 c 128,-1,57
 423.452 665.002 423.452 665.002 552.674 646.794 c 0,58,59
 703.038 625.607 703.038 625.607 748.808 500.951 c 0,60,61
 803.689 351.476 803.689 351.476 661.626 116.168 c 1,62,63
 937.226 102.325 937.226 102.325 1100.53 94.9346 c 1,64,65
 1099.78 242.39 1099.78 242.39 1149.14 390.484 c 0,66,67
 1252.89 698.375 1252.89 698.375 1513.61 881.832 c 0,68,69
 1728.12 1032.77 1728.12 1032.77 1968.19 1052.38 c 128,-1,70
 2208.26 1071.99 2208.26 1071.99 2362.66 967.1 c 0,71,72
 2554.31 836.898 2554.31 836.898 2528.67 586.921 c 1,73,74
 2520.62 426.381 2520.62 426.381 2373.77 282.445 c 1,75,76
 2677.02 204.194 2677.02 204.194 2695.79 -55.6514 c 1,77,78
 2706.44 -219.318 2706.44 -219.318 2544.1 -383.73 c 0,79,80
 2475.46 -453.242 2475.46 -453.242 2372.69 -499.892 c 128,-1,81
 2269.91 -546.541 2269.91 -546.541 2155.96 -556.912 c 0,82,83
 2129.51 -559.319 2129.51 -559.319 2108.63 -541.921 c 128,-1,84
 2087.74 -524.522 2087.74 -524.522 2085.34 -498.07 c 128,-1,85
 2082.93 -471.617 2082.93 -471.617 2100.33 -450.735 c 128,-1,86
 2117.73 -429.854 2117.73 -429.854 2144.18 -427.447 c 0,87,88
 2236.22 -419.069 2236.22 -419.069 2318.03 -381.935 c 0,89,90
 2463.05 -316.113 2463.05 -316.113 2539.82 -174.112 c 0,91,92
 2597.57 -67.2881 2597.57 -67.2881 2533.2 42.3486 c 0,93,94
 2506.5 87.8154 2506.5 87.8154 2428.06 125.927 c 128,-1,95
 2349.62 164.037 2349.62 164.037 2225.38 176.148 c 0,96,97
 2211.12 178.071 2211.12 178.071 2194.59 189.692 c 0,98,99
 2162.2 212.471 2162.2 212.471 2165.71 246.177 c 128,-1,100
 2169.22 279.884 2169.22 279.884 2179.15 294.521 c 128,-1,101
 2189.08 309.157 2189.08 309.157 2207.56 317.221 c 128,-1,102
 2226.03 325.284 2226.03 325.284 2229.84 328.366 c 0,103,104
 2393.28 460.656 2393.28 460.656 2398.96 596.473 c 1,0,1
1860.61 21.5781 m 1,105,106
 1706.82 -58.6426 1706.82 -58.6426 1244.01 -41.2471 c 1,107,108
 1268.61 -163.732 1268.61 -163.732 1342.98 -266.76 c 128,-1,109
 1417.36 -369.787 1417.36 -369.787 1517.79 -392.621 c 0,110,111
 1622.85 -416.511 1622.85 -416.511 1718.91 -316.276 c 128,-1,112
 1814.96 -216.043 1814.96 -216.043 1860.61 21.5781 c 1,105,106
EndSplineSet
EndChar

StartChar: ml_o
Encoding: 51 3346 52
Width: 1362
GlyphClass: 2
Flags: MW
LayerCount: 2
Fore
SplineSet
234.441 503.052 m 1,0,1
 283.997 543.415 283.997 543.415 343.713 559.891 c 0,2,3
 452.852 590.005 452.852 590.005 541.051 526.499 c 128,-1,4
 629.251 462.994 629.251 462.994 630.305 351.714 c 0,5,6
 631.967 177.135 631.967 177.135 539.277 78.5993 c 128,-1,7
 446.588 -19.9364 446.588 -19.9364 329.902 2.65292 c 128,-1,8
 213.217 25.2422 213.217 25.2422 150.267 171.034 c 0,9,10
 100.343 286.656 100.343 286.656 100 462.312 c 0,11,12
 99.9961 464.375 99.9961 464.375 100.123 466.435 c 0,13,14
 116.417 731.048 116.417 731.048 320.751 885.167 c 0,15,16
 479.914 1005.22 479.914 1005.22 685.23 1016.33 c 128,-1,17
 890.546 1027.43 890.546 1027.43 1026.02 938.7 c 0,18,19
 1194.78 828.169 1194.78 828.169 1168.38 630.721 c 0,20,21
 1167.88 627.022 1167.88 627.022 1166.97 623.401 c 0,22,23
 1141.35 522.008 1141.35 522.008 1069.28 453.354 c 1,24,25
 1126.81 429.941 1126.81 429.941 1171.33 391.753 c 0,26,27
 1269.43 307.6 1269.43 307.6 1262.53 195.544 c 128,-1,28
 1255.62 83.487 1255.62 83.487 1151.01 27.9775 c 0,29,30
 999.578 -52.3829 999.578 -52.3829 753.644 56.0791 c 0,31,32
 729.346 66.7939 729.346 66.7939 719.514 92.1338 c 128,-1,33
 709.681 117.473 709.681 117.473 720.397 141.78 c 128,-1,34
 731.115 166.084 731.115 166.084 756.459 175.913 c 128,-1,35
 781.804 185.743 781.804 185.743 803.136 176.335 c 0,36,37
 994.342 92.0052 994.342 92.0052 1090.08 142.812 c 0,38,39
 1130.35 164.183 1130.35 164.183 1133.02 207.611 c 128,-1,40
 1135.7 251.039 1135.7 251.039 1077.1 301.307 c 128,-1,41
 1018.5 351.574 1018.5 351.574 895.479 358.289 c 1,42,43
 851.415 346.882 851.415 346.882 831.567 348.552 c 128,-1,44
 811.719 350.222 811.719 350.222 797.621 350.762 c 0,45,46
 783.523 351.302 783.523 351.302 761.702 367.861 c 128,-1,47
 739.882 384.42 739.882 384.42 744.392 417.23 c 0,48,49
 753.501 483.496 753.501 483.496 807.198 487.125 c 0,50,51
 844.055 489.615 844.055 489.615 878.615 488.961 c 1,52,53
 1008.4 533.807 1008.4 533.807 1039.99 651.621 c 1,54,55
 1053.35 765.388 1053.35 765.388 954.172 830.352 c 128,-1,56
 854.989 895.315 854.989 895.315 690.762 886.432 c 128,-1,57
 526.535 877.548 526.535 877.548 393.158 776.948 c 128,-1,58
 259.781 676.349 259.781 676.349 234.441 503.052 c 1,0,1
231.731 404.614 m 1,59,60
 238.34 294.999 238.34 294.999 271.843 217.41 c 128,-1,61
 305.346 139.821 305.346 139.821 358.452 129.54 c 0,62,63
 400.977 121.308 400.977 121.308 440.366 163.185 c 0,64,65
 501.476 228.149 501.476 228.149 500.311 350.479 c 0,66,67
 499.878 395.955 499.878 395.955 474.313 414.362 c 0,68,69
 400.688 467.374 400.688 467.374 315.306 401.276 c 0,70,71
 297.042 387.221 297.042 387.221 273.186 388.221 c 128,-1,72
 249.329 389.222 249.329 389.222 231.731 404.614 c 1,59,60
EndSplineSet
EndChar

StartChar: k1
Encoding: 54 3349 55
Width: 1605
GlyphClass: 2
Flags: MW
LayerCount: 2
Fore
SplineSet
471.918 266.222 m 1,0,1
 454.279 329.721 454.279 329.721 489.492 371.043 c 0,2,3
 506.714 391.254 506.714 391.254 533.813 393.418 c 128,-1,4
 560.913 395.581 560.913 395.581 581.914 377.686 c 128,-1,5
 602.915 359.791 602.915 359.791 603.827 333.967 c 128,-1,6
 604.739 308.144 604.739 308.144 605.121 293.633 c 0,7,8
 605.503 279.122 605.503 279.122 629.979 242.947 c 128,-1,9
 654.455 206.771 654.455 206.771 728.295 154.246 c 0,10,11
 802.135 101.722 802.135 101.722 856.145 124.316 c 128,-1,12
 910.155 146.911 910.155 146.911 944.394 245.072 c 128,-1,13
 978.633 343.233 978.633 343.233 980.73 526.019 c 0,14,15
 981.272 573.27 981.272 573.27 975.77 617.209 c 1,16,17
 763.095 637.183 763.095 637.183 570.131 553.511 c 1,18,19
 563.787 532.246 563.787 532.246 540.782 515.919 c 0,20,21
 517.778 499.592 517.778 499.592 485.972 510.779 c 1,22,23
 415.052 469.256 415.052 469.256 350.46 412.528 c 1,24,25
 309.325 369.344 309.325 369.344 281.929 328.665 c 0,26,27
 208.563 219.729 208.563 219.729 239.719 154.902 c 0,28,29
 257.374 118.163 257.374 118.163 308.558 107.901 c 128,-1,30
 359.741 97.6396 359.741 97.6396 410.69 137.794 c 0,31,32
 461.638 177.948 461.638 177.948 471.918 266.222 c 1,0,1
586.649 699.246 m 1,33,34
 757.283 757.52 757.283 757.52 941.957 749.792 c 1,35,36
 887.986 882.768 887.986 882.768 797.745 921.833 c 0,37,38
 732.718 949.618 732.718 949.618 672.869 898.282 c 128,-1,39
 613.019 846.946 613.019 846.946 586.649 699.246 c 1,33,34
447.377 638.201 m 1,40,41
 472.285 897.503 472.285 897.503 591.338 999.62 c 0,42,43
 710.392 1101.74 710.392 1101.74 838.795 1045.94 c 0,44,45
 1019.38 967.461 1019.38 967.461 1085.17 731.689 c 1,46,47
 1175.18 712.272 1175.18 712.272 1256.95 673.26 c 0,48,49
 1424.49 593.331 1424.49 593.331 1481.81 464.819 c 1,50,51
 1553.56 294.797 1553.56 294.797 1413.85 144.66 c 0,52,53
 1328.9 53.376 1328.9 53.376 1170.05 -18.8516 c 0,54,55
 1145.88 -29.8447 1145.88 -29.8447 1120.42 -20.3037 c 128,-1,56
 1094.97 -10.7637 1094.97 -10.7637 1083.97 13.416 c 128,-1,57
 1072.98 37.5996 1072.98 37.5996 1082.52 63.0488 c 128,-1,58
 1092.07 88.499 1092.07 88.499 1116.24 99.4902 c 0,59,60
 1251.43 160.954 1251.43 160.954 1308.06 221.8 c 128,-1,61
 1364.68 282.646 1364.68 282.646 1374.42 325.918 c 128,-1,62
 1384.16 369.189 1384.16 369.189 1363.08 411.868 c 1,63,64
 1310.01 530.856 1310.01 530.856 1108.83 591.481 c 1,65,66
 1111.11 558.347 1111.11 558.347 1110.72 524.53 c 0,67,68
 1108.3 313.204 1108.3 313.204 1062.99 182.093 c 128,-1,69
 1017.69 50.9814 1017.69 50.9814 911.692 6.63672 c 0,70,71
 785.654 -46.0898 785.654 -46.0898 636.999 59.6533 c 0,72,73
 595.824 88.9424 595.824 88.9424 562.738 122.879 c 1,74,75
 534.024 69.4756 534.024 69.4756 487.26 32.6191 c 0,76,77
 393.055 -41.627 393.055 -41.627 280.666 -19.0934 c 0,78,79
 168.276 3.44013 168.276 3.44013 122.548 98.5908 c 0,80,81
 37.9673 274.584 37.9673 274.584 258.5 504.461 c 0,82,83
 260.356 506.397 260.356 506.397 262.367 508.173 c 0,84,85
 349.548 585.204 349.548 585.204 447.377 638.201 c 1,40,41
EndSplineSet
EndChar

StartChar: k2
Encoding: 55 3350 56
Width: 1733
GlyphClass: 2
Flags: MW
LayerCount: 2
Fore
SplineSet
302.024 561.464 m 0,0,1
 446.832 624.175 446.832 624.175 559.113 484.884 c 0,2,3
 588.732 448.14 588.732 448.14 600.586 418.582 c 0,4,5
 672.561 239.03 672.561 239.03 612.079 112.217 c 1,6,7
 560.445 6.41895 560.445 6.41895 445.756 -11.4561 c 128,-1,8
 331.066 -29.3311 331.066 -29.3311 233.773 60.0537 c 0,9,10
 107.252 176.291 107.252 176.291 100.201 406.438 c 0,11,12
 95.5303 558.874 95.5303 558.874 199.465 700.658 c 128,-1,13
 303.399 842.442 303.399 842.442 491.617 924.446 c 128,-1,14
 679.836 1006.45 679.836 1006.45 842.8 972.654 c 0,15,16
 932.796 953.991 932.796 953.991 995.557 898.96 c 0,17,18
 1240.64 684.06 1240.64 684.06 952.242 110.973 c 1,19,20
 1326.69 102.758 1326.69 102.758 1426.03 146.885 c 0,21,22
 1479.63 170.689 1479.63 170.689 1494.56 230.25 c 128,-1,23
 1509.49 289.811 1509.49 289.811 1498.49 530.503 c 128,-1,24
 1487.5 771.195 1487.5 771.195 1490.49 923.274 c 0,25,26
 1491.01 949.832 1491.01 949.832 1510.6 968.67 c 128,-1,27
 1530.2 987.508 1530.2 987.508 1556.75 986.987 c 128,-1,28
 1583.3 986.467 1583.3 986.467 1602.14 966.874 c 128,-1,29
 1620.98 947.281 1620.98 947.281 1620.46 920.726 c 0,30,31
 1617.55 772.896 1617.55 772.896 1628.89 524.787 c 128,-1,32
 1640.22 276.68 1640.22 276.68 1623.09 208.328 c 0,33,34
 1590.32 77.6074 1590.32 77.6074 1478.94 28.1387 c 128,-1,35
 1367.57 -21.3291 1367.57 -21.3291 1077.37 -20.71 c 0,36,37
 984.425 -20.5117 984.425 -20.5117 843.896 -16.1699 c 0,38,39
 817.355 -15.3506 817.355 -15.3506 791.809 11.8252 c 128,-1,40
 766.262 39 766.262 39 788.989 80.1973 c 0,41,42
 1027.31 512.204 1027.31 512.204 961.495 719.362 c 0,43,44
 944.43 773.077 944.43 773.077 910.27 803.028 c 128,-1,45
 876.109 832.98 876.109 832.98 816.399 845.363 c 0,46,47
 693.888 870.77 693.888 870.77 540.692 804.025 c 128,-1,48
 387.498 737.28 387.498 737.28 300.598 618.734 c 0,49,50
 269.574 576.412 269.574 576.412 252.053 532.717 c 1,51,52
 277.118 550.678 277.118 550.678 302.024 561.464 c 0,0,1
231.613 381.644 m 1,53,54
 243.01 228.103 243.01 228.103 321.725 155.785 c 0,55,56
 372.91 108.76 372.91 108.76 423.291 116.611 c 128,-1,57
 473.671 124.464 473.671 124.464 495.02 168.765 c 0,58,59
 530.271 241.92 530.271 241.92 481.198 366.998 c 1,60,61
 403.886 509.748 403.886 509.748 295.659 398.842 c 0,62,63
 268.959 371.481 268.959 371.481 231.613 381.644 c 1,53,54
EndSplineSet
EndChar

StartChar: k3
Encoding: 56 3351 57
Width: 1595
GlyphClass: 2
Flags: MW
LayerCount: 2
Fore
SplineSet
373.16 914.465 m 128,-1,1
 391.337 895.108 391.337 895.108 390.482 867.938 c 128,-1,2
 389.629 840.767 389.629 840.767 370.264 822.586 c 0,3,4
 230.642 691.502 230.642 691.502 230.002 436.538 c 0,5,6
 229.674 305.924 229.674 305.924 287.079 195.637 c 0,7,8
 327.515 117.953 327.515 117.953 382.871 122.939 c 0,9,10
 491.947 132.763 491.947 132.763 547.925 215.375 c 128,-1,11
 604.016 298.157 604.016 298.157 629.514 401.692 c 128,-1,12
 655.013 505.227 655.013 505.227 682.518 621.49 c 0,13,14
 763.161 962.37 763.161 962.37 1005.95 986.677 c 0,15,16
 1239 1010.01 1239 1010.01 1397.79 786.309 c 0,17,18
 1478.75 672.241 1478.75 672.241 1492.97 506.103 c 128,-1,19
 1507.2 339.965 1507.2 339.965 1409.87 193.969 c 128,-1,20
 1312.6 48.052 1312.6 48.052 1100.17 -5.05957 c 0,21,22
 1074.4 -11.5 1074.4 -11.5 1051.09 2.4834 c 128,-1,23
 1027.78 16.4668 1027.78 16.4668 1021.34 42.2354 c 128,-1,24
 1014.9 68.0039 1014.9 68.0039 1028.89 91.3115 c 128,-1,25
 1042.87 114.618 1042.87 114.618 1068.64 121.06 c 0,26,27
 1232.3 161.978 1232.3 161.978 1303.04 268.084 c 128,-1,28
 1373.78 374.191 1373.78 374.191 1364.23 485.878 c 0,29,30
 1347.31 683.383 1347.31 683.383 1214.14 796.849 c 0,31,32
 1130.1 868.455 1130.1 868.455 1028.08 858.241 c 128,-1,33
 926.052 848.028 926.052 848.028 878.987 768.278 c 128,-1,34
 831.999 688.658 831.999 688.658 806.691 581.685 c 0,35,36
 750.114 342.542 750.114 342.542 721.641 270.26 c 128,-1,37
 693.168 197.979 693.168 197.979 653.485 139.411 c 128,-1,38
 613.802 80.8428 613.802 80.8428 546.562 41.0059 c 128,-1,39
 479.186 1.08789 479.186 1.08789 400.699 -5.98096 c 128,-1,40
 322.212 -13.0498 322.212 -13.0498 264.581 27.4839 c 0,41,42
 167.067 96.0686 167.067 96.0686 124.075 257.511 c 128,-1,43
 81.0821 418.954 81.0821 418.954 115.87 606.839 c 128,-1,44
 150.658 794.724 150.658 794.724 281.282 917.361 c 0,45,46
 300.649 935.542 300.649 935.542 327.816 934.684 c 128,-1,0
 354.983 933.825 354.983 933.825 373.16 914.465 c 128,-1,1
EndSplineSet
EndChar

StartChar: k4
Encoding: 57 3352 58
Width: 2692
GlyphClass: 2
Flags: MW
LayerCount: 2
Fore
SplineSet
1212.99 5.34473 m 1,0,1
 1251.87 -84.8359 1251.87 -84.8359 1355.95 -131.542 c 0,2,3
 1411.73 -156.569 1411.73 -156.569 1536.6 -167.673 c 128,-1,4
 1661.47 -178.777 1661.47 -178.777 1801.69 -168.233 c 1,5,6
 1889.84 -165.222 1889.84 -165.222 1959.86 -164.319 c 128,-1,7
 2029.89 -163.417 2029.89 -163.417 2136.4 -149.319 c 128,-1,8
 2242.92 -135.222 2242.92 -135.222 2336.34 -77.0039 c 0,9,10
 2401.32 -36.5156 2401.32 -36.5156 2439.33 60.2363 c 0,11,12
 2498.91 211.854 2498.91 211.854 2412.17 622.245 c 0,13,14
 2393.41 711.012 2393.41 711.012 2365 827.325 c 0,15,16
 2358.7 853.123 2358.7 853.123 2372.8 876.357 c 128,-1,17
 2386.91 899.592 2386.91 899.592 2412.71 905.896 c 128,-1,18
 2438.51 912.201 2438.51 912.201 2461.75 898.092 c 128,-1,19
 2484.98 883.981 2484.98 883.981 2491.28 858.185 c 0,20,21
 2584.2 477.813 2584.2 477.813 2591.84 295.062 c 0,22,23
 2606.74 -61.6777 2606.74 -61.6777 2405.09 -187.34 c 0,24,25
 2239.17 -290.733 2239.17 -290.733 1934.61 -294.655 c 0,26,27
 1893.21 -295.188 1893.21 -295.188 1806.14 -299.945 c 0,28,29
 1456.3 -319.057 1456.3 -319.057 1302.73 -250.148 c 0,30,31
 1226.5 -215.94 1226.5 -215.94 1166.88 -157.936 c 128,-1,32
 1107.27 -99.9307 1107.27 -99.9307 1075.04 4.46094 c 1,33,-1
 542.399 1.0459 l 2,34,35
 517.138 0.884766 517.138 0.884766 497.918 18.2578 c 128,-1,36
 478.697 35.6299 478.697 35.6299 477.327 62.7812 c 128,-1,37
 475.957 89.9326 475.957 89.9326 493.763 109.632 c 0,38,39
 746.901 389.681 746.901 389.681 742.811 540.87 c 0,40,41
 740.278 634.433 740.278 634.433 619.341 639.538 c 128,-1,42
 498.403 644.643 498.403 644.643 386.238 582.818 c 128,-1,43
 274.072 520.994 274.072 520.994 241.755 429.754 c 0,44,45
 194.31 295.802 194.31 295.802 348.837 135.098 c 0,46,47
 367.247 115.947 367.247 115.947 366.712 88.7725 c 128,-1,48
 366.177 61.5967 366.177 61.5967 347.035 43.1904 c 128,-1,49
 327.896 24.7842 327.896 24.7842 300.718 25.3154 c 128,-1,50
 273.539 25.8467 273.539 25.8467 255.129 44.9922 c 0,51,52
 121.777 183.675 121.777 183.675 102.67 327.4 c 0,53,54
 92.8369 401.364 92.8369 401.364 119.216 473.159 c 0,55,56
 168.034 610.987 168.034 610.987 317.779 693.525 c 128,-1,57
 467.524 776.062 467.524 776.062 626.312 769.359 c 128,-1,58
 785.101 762.656 785.101 762.656 847.144 646.42 c 0,59,60
 945.021 463.042 945.021 463.042 683.186 131.951 c 1,61,-1
 1050.52 134.306 l 1,62,63
 1031.58 346.267 1031.58 346.267 1105.5 524.13 c 128,-1,64
 1179.43 701.993 1179.43 701.993 1324.56 784.548 c 128,-1,65
 1469.7 867.103 1469.7 867.103 1620.56 798.758 c 128,-1,66
 1771.42 730.412 1771.42 730.412 1839.43 507.868 c 128,-1,67
 1907.43 285.324 1907.43 285.324 1841.38 140.213 c 0,68,69
 1813.44 78.834 1813.44 78.834 1752.18 42.4277 c 128,-1,70
 1690.93 6.02148 1690.93 6.02148 1606.46 7.86719 c 1,71,-1
 1212.99 5.34473 l 1,0,1
1181.05 135.143 m 1,72,-1
 1607.66 137.877 l 1,73,74
 1696.45 135.62 1696.45 135.62 1723.06 194.066 c 0,75,76
 1768.72 294.387 1768.72 294.387 1716.5 465.313 c 128,-1,77
 1664.27 636.239 1664.27 636.239 1559.94 683.503 c 0,78,79
 1476.39 721.352 1476.39 721.352 1379.39 666.176 c 128,-1,80
 1282.39 611 1282.39 611 1221.96 465.611 c 128,-1,81
 1161.54 320.223 1161.54 320.223 1181.05 135.143 c 1,72,-1
EndSplineSet
EndChar

StartChar: ng
Encoding: 58 3353 59
Width: 1734
GlyphClass: 2
Flags: MW
LayerCount: 2
Fore
SplineSet
248.301 639.532 m 1,0,1
 322.808 664.119 322.808 664.119 382.91 638.45 c 0,2,3
 570.557 558.309 570.557 558.309 564.435 290.15 c 0,4,5
 564.365 287.113 564.365 287.113 564.013 284.099 c 0,6,7
 542.615 100.729 542.615 100.729 452.089 21.8857 c 0,8,9
 407.466 -16.9775 407.466 -16.9775 352.384 -19.4199 c 128,-1,10
 297.303 -21.8623 297.303 -21.8623 244.865 17.877 c 0,11,12
 102.99 125.394 102.99 125.394 100.002 512.16 c 0,13,14
 99.9429 519.936 99.9429 519.936 104.67 559.896 c 0,15,16
 143.457 887.7 143.457 887.7 288.451 1001.38 c 0,17,18
 351.783 1051.04 351.783 1051.04 427.971 1052.9 c 128,-1,19
 504.158 1054.77 504.158 1054.77 574.867 1011.29 c 1,20,21
 737.059 914.557 737.059 914.557 832.893 654.861 c 1,22,23
 931.535 894.287 931.535 894.287 1108.06 991.129 c 0,24,25
 1252.4 1070.31 1252.4 1070.31 1378.9 1010.69 c 0,26,27
 1520.85 943.784 1520.85 943.784 1527.62 723.037 c 0,28,29
 1529.31 667.801 1529.31 667.801 1500.36 610.284 c 128,-1,30
 1471.41 552.766 1471.41 552.766 1430.2 516.941 c 1,31,32
 1506.49 488.733 1506.49 488.733 1555.41 440.384 c 0,33,34
 1654.25 342.679 1654.25 342.679 1630.28 222.571 c 128,-1,35
 1606.31 102.464 1606.31 102.464 1495.26 40.1504 c 0,36,37
 1339.72 -47.1306 1339.72 -47.1306 1117.1 28.6738 c 0,38,39
 1091.96 37.2295 1091.96 37.2295 1079.95 61.6172 c 128,-1,40
 1067.95 86.0039 1067.95 86.0039 1076.51 111.15 c 128,-1,41
 1085.06 136.295 1085.06 136.295 1109.46 148.296 c 128,-1,42
 1133.84 160.297 1133.84 160.297 1149.32 155.03 c 0,43,44
 1326.73 94.6476 1326.73 94.6476 1431.65 153.522 c 0,45,46
 1490.87 186.755 1490.87 186.755 1502.1 242.969 c 128,-1,47
 1513.33 299.184 1513.33 299.184 1467.12 344.859 c 0,48,49
 1383.54 427.482 1383.54 427.482 1182.3 419.382 c 0,50,51
 1158.59 418.428 1158.59 418.428 1137.87 435.528 c 128,-1,52
 1117.14 452.629 1117.14 452.629 1114.91 478.966 c 128,-1,53
 1112.68 505.304 1112.68 505.304 1130.21 526.081 c 128,-1,54
 1147.74 546.857 1147.74 546.857 1176.34 549.279 c 0,55,56
 1281.36 558.17 1281.36 558.17 1336.74 607.703 c 128,-1,57
 1392.12 657.237 1392.12 657.237 1397.57 722.365 c 1,58,59
 1392.23 860.689 1392.23 860.689 1317.88 895.732 c 0,60,61
 1256.87 924.487 1256.87 924.487 1170.58 877.151 c 0,62,63
 1058.91 815.887 1058.91 815.887 987.866 678.97 c 128,-1,64
 916.823 542.054 916.823 542.054 895.823 388.149 c 1,65,66
 914.298 229.824 914.298 229.824 895.546 63.4238 c 0,67,68
 892.575 37.0381 892.575 37.0381 871.32 20.0869 c 128,-1,69
 850.065 3.13672 850.065 3.13672 825.417 5.91406 c 128,-1,70
 800.769 8.69141 800.769 8.69141 784.765 26.3799 c 128,-1,71
 768.762 44.0684 768.762 44.0684 766.406 63.0547 c 0,72,73
 746.625 236.937 746.625 236.937 764.8 388.404 c 1,74,75
 744.225 545.464 744.225 545.464 675.857 692.965 c 128,-1,76
 607.489 840.467 607.489 840.467 508.276 899.638 c 1,77,78
 461.79 926.051 461.79 926.051 431.473 925.302 c 128,-1,79
 401.156 924.553 401.156 924.553 368.663 899.078 c 0,80,81
 285.828 834.132 285.828 834.132 248.301 639.532 c 1,0,1
230.502 483.111 m 1,82,83
 235.468 297.449 235.468 297.449 268.53 217.654 c 128,-1,84
 301.591 137.859 301.591 137.859 321.736 122.25 c 128,-1,85
 341.881 106.642 341.881 106.642 346.921 106.857 c 128,-1,86
 351.96 107.073 351.96 107.073 366.709 119.918 c 0,87,88
 418.598 165.109 418.598 165.109 434.529 296.136 c 1,89,90
 437.291 473.864 437.291 473.864 340.863 515.048 c 0,91,92
 298.836 532.996 298.836 532.996 255.367 496.201 c 0,93,94
 244.403 486.921 244.403 486.921 230.502 483.111 c 1,82,83
EndSplineSet
EndChar

StartChar: ch1
Encoding: 59 3354 60
Width: 1754
GlyphClass: 2
Flags: MW
LayerCount: 2
Fore
SplineSet
415.431 317.683 m 132,-1,1
 391.94 305.301 391.94 305.301 365.974 313.341 c 132,-1,2
 340.006 321.382 340.006 321.382 327.622 344.88 c 4,3,4
 262.225 468.969 262.225 468.969 288.622 572.53 c 4,5,6
 302.512 627.023 302.512 627.023 343.218 669.838 c 4,7,8
 427.305 758.283 427.305 758.283 577.866 763.644 c 132,-1,9
 728.428 769.005 728.428 769.005 838.759 692.479 c 132,-1,10
 949.09 615.953 949.09 615.953 949.381 484.227 c 5,11,12
 953.256 246.51 953.256 246.51 656.142 117 c 5,13,-1
 1302.63 117 l 6,14,15
 1418.06 117 1418.06 117 1465.85 165.662 c 132,-1,16
 1513.65 214.323 1513.65 214.323 1519.66 281.603 c 4,17,18
 1530.74 405.515 1530.74 405.515 1519.36 493.288 c 4,19,20
 1480.11 795.818 1480.11 795.818 1481.32 874.675 c 132,-1,21
 1482.53 953.532 1482.53 953.532 1491.08 990.951 c 132,-1,22
 1499.64 1028.37 1499.64 1028.37 1522.66 1042.83 c 132,-1,23
 1545.68 1057.28 1545.68 1057.28 1571.58 1051.37 c 4,24,25
 1634.94 1036.88 1634.94 1036.88 1617.4 960.132 c 132,-1,26
 1599.86 883.381 1599.86 883.381 1637.7 591.568 c 132,-1,27
 1675.54 299.756 1675.54 299.756 1622.6 172.566 c 4,28,29
 1545.42 -13 1545.42 -13 1302.63 -13 c 6,30,-1
 165.09 -13 l 6,31,32
 143.316 -13 143.316 -13 125.363 0.856445 c 132,-1,33
 107.411 14.7129 107.411 14.7129 101.501 38.3545 c 132,-1,34
 95.5908 61.9961 95.5908 61.9961 109.577 85.3076 c 132,-1,35
 123.564 108.619 123.564 108.619 151.286 115.549 c 132,-1,36
 179.007 122.479 179.007 122.479 329.113 154.572 c 4,37,38
 822.513 260.064 822.513 260.064 820.306 472.395 c 4,39,40
 819.524 547.623 819.524 547.623 754.689 592.586 c 132,-1,41
 689.855 637.549 689.855 637.549 587.407 633.901 c 132,-1,42
 484.959 630.254 484.959 630.254 443.044 586.167 c 132,-1,43
 401.128 542.081 401.128 542.081 410.078 496.176 c 132,-1,44
 419.027 450.271 419.027 450.271 437.019 416.13 c 132,-1,45
 455.011 381.989 455.011 381.989 446.967 356.026 c 132,-1,0
 438.923 330.063 438.923 330.063 415.431 317.683 c 132,-1,1
EndSplineSet
EndChar

StartChar: ch2
Encoding: 60 3355 61
Width: 2361
GlyphClass: 2
Flags: MW
LayerCount: 2
Fore
SplineSet
834.127 320.736 m 1,0,1
 780.099 219.547 780.099 219.547 669.91 158.168 c 0,2,3
 640.506 141.789 640.506 141.789 610.916 127.341 c 1,4,-1
 1307.06 127.341 l 1,5,6
 1162.35 244.54 1162.35 244.54 1139 408.527 c 128,-1,7
 1115.65 572.514 1115.65 572.514 1213.18 723.362 c 128,-1,8
 1310.71 874.209 1310.71 874.209 1476.74 949.568 c 0,9,10
 1572.53 993.049 1572.53 993.049 1653.47 998.721 c 0,11,12
 1966.96 1020.7 1966.96 1020.7 2134.58 818.621 c 0,13,14
 2256.39 671.748 2256.39 671.748 2261.21 472.77 c 128,-1,15
 2266.02 273.792 2266.02 273.792 2182.31 140.711 c 0,16,17
 2084.21 -15.235 2084.21 -15.235 1925.69 -2.44824 c 0,18,19
 1696.41 16.0587 1696.41 16.0587 1619.23 219.877 c 0,20,21
 1561.59 372.091 1561.59 372.091 1621.13 567.725 c 1,22,23
 1644.9 654.708 1644.9 654.708 1707.44 720.232 c 0,24,25
 1797.94 815.053 1797.94 815.053 1912.06 831.118 c 1,26,27
 1809.79 878.977 1809.79 878.977 1664.23 869.154 c 1,28,29
 1523.54 851.552 1523.54 851.552 1416.14 760.188 c 128,-1,30
 1308.73 668.825 1308.73 668.825 1275.27 549.322 c 128,-1,31
 1241.81 429.819 1241.81 429.819 1307.07 318.626 c 0,32,33
 1338.49 265.11 1338.49 265.11 1408.78 213.035 c 128,-1,34
 1479.06 160.96 1479.06 160.96 1583.61 123.538 c 0,35,36
 1626.7 108.113 1626.7 108.113 1626.7 71.9499 c 128,-1,37
 1626.7 35.7871 1626.7 35.7871 1607.48 16.5645 c 128,-1,38
 1588.26 -2.65918 1588.26 -2.65918 1561.7 -2.65918 c 2,39,-1
 165.091 -2.65918 l 2,40,41
 143.512 -2.65918 143.512 -2.65918 125.594 11.0391 c 128,-1,42
 107.676 24.7363 107.676 24.7363 101.595 48.2578 c 128,-1,43
 95.5137 71.7793 95.5137 71.7793 109.313 95.2031 c 128,-1,44
 123.113 118.626 123.113 118.626 148.821 125.271 c 128,-1,45
 174.407 131.886 174.407 131.886 306.292 162.075 c 128,-1,46
 438.177 192.264 438.177 192.264 532.886 234.127 c 128,-1,47
 627.595 275.99 627.595 275.99 663.792 311.404 c 128,-1,48
 699.988 346.818 699.988 346.818 716.492 376.471 c 1,49,50
 776.898 524.118 776.898 524.118 721.124 584.914 c 0,51,52
 681.994 627.565 681.994 627.565 595.084 620.75 c 128,-1,53
 508.174 613.934 508.174 613.934 456.629 567.562 c 128,-1,54
 405.085 521.19 405.085 521.19 391.831 483.361 c 128,-1,55
 378.576 445.532 378.576 445.532 385.259 407.631 c 128,-1,56
 391.942 369.729 391.942 369.729 376.35 347.465 c 128,-1,57
 360.757 325.2 360.757 325.2 334.604 320.589 c 128,-1,58
 308.451 315.978 308.451 315.978 286.185 331.567 c 128,-1,59
 263.917 347.156 263.917 347.156 259.305 373.314 c 0,60,61
 230.147 538.677 230.147 538.677 356.822 652.638 c 0,62,63
 454.027 740.086 454.027 740.086 594.5 751.103 c 128,-1,64
 734.972 762.119 734.972 762.119 816.914 672.801 c 0,65,66
 929.082 550.536 929.082 550.536 834.127 320.736 c 1,0,1
2092.8 641.562 m 1,67,68
 2084.72 646.364 2084.72 646.364 2078.68 652.612 c 0,69,70
 2040.99 691.581 2040.99 691.581 1989.98 700.886 c 0,71,72
 1886.67 719.73 1886.67 719.73 1801.84 630.853 c 0,73,74
 1761.37 588.451 1761.37 588.451 1746.85 537.674 c 0,75,76
 1684.02 317.953 1684.02 317.953 1779.57 196.908 c 0,77,78
 1832.34 130.07 1832.34 130.07 1942.84 126.759 c 0,79,80
 2018.55 124.509 2018.55 124.509 2076.83 217.183 c 128,-1,81
 2135.11 309.856 2135.11 309.856 2132.09 434.506 c 128,-1,82
 2129.08 559.155 2129.08 559.155 2092.8 641.562 c 1,67,68
EndSplineSet
EndChar

StartChar: ch3
Encoding: 61 3356 62
Width: 1841
GlyphClass: 2
Flags: MW
LayerCount: 2
Fore
SplineSet
277.28 710.43 m 1,0,1
 297.238 722.718 297.238 722.718 345.204 717.875 c 128,-1,2
 393.17 713.031 393.17 713.031 457.707 681.194 c 0,3,4
 573.123 624.26 573.123 624.26 635.385 508.961 c 128,-1,5
 697.648 393.661 697.648 393.661 675.618 274.441 c 128,-1,6
 653.589 155.22 653.589 155.22 547.741 67.0361 c 128,-1,7
 441.894 -21.1475 441.894 -21.1475 326.272 -2.22363 c 0,8,9
 188.613 20.3068 188.613 20.3068 132.024 183.375 c 0,10,11
 85.5039 317.437 85.5039 317.437 106.562 533.715 c 0,12,13
 134.52 820.842 134.52 820.842 282.349 934.561 c 0,14,15
 412.097 1034.36 412.097 1034.36 562.587 971.161 c 0,16,17
 772.442 883.028 772.442 883.028 876.537 596.488 c 1,18,19
 921.408 744.346 921.408 744.346 992.784 844.639 c 0,20,21
 1111.13 1010.93 1111.13 1010.93 1270.68 1008.13 c 0,22,23
 1405.29 1005.76 1405.29 1005.76 1503.97 881.873 c 128,-1,24
 1602.66 757.983 1602.66 757.983 1597.61 569.876 c 0,25,26
 1589.4 264.575 1589.4 264.575 1302.55 -0.0664062 c 1,27,28
 1507.29 62.167 1507.29 62.167 1622.53 -12.0205 c 128,-1,29
 1737.77 -86.2081 1737.77 -86.2081 1741.11 -214.154 c 128,-1,30
 1744.46 -342.101 1744.46 -342.101 1664.77 -433.396 c 0,31,32
 1565.52 -547.097 1565.52 -547.097 1403.26 -525.15 c 128,-1,33
 1241.01 -503.204 1241.01 -503.204 1064.09 -303.359 c 0,34,35
 1041.48 -277.817 1041.48 -277.817 1049.75 -244.333 c 1,36,37
 993.735 -269.597 993.735 -269.597 972.949 -281.157 c 0,38,39
 845.114 -352.255 845.114 -352.255 774.648 -348.4 c 0,40,41
 725.939 -345.735 725.939 -345.735 725.537 -289.318 c 128,-1,42
 725.134 -232.9 725.134 -232.9 765.14 -203.593 c 128,-1,43
 805.146 -174.285 805.146 -174.285 867.524 -140.78 c 128,-1,44
 929.902 -107.274 929.902 -107.274 958.341 -89.3086 c 1,45,46
 1164.33 29.7256 1164.33 29.7256 1290.71 173.374 c 0,47,48
 1462.14 368.238 1462.14 368.238 1467.65 573.363 c 0,49,50
 1471.43 714.075 1471.43 714.075 1406.6 795.467 c 128,-1,51
 1341.77 876.858 1341.77 876.858 1259.55 878.304 c 128,-1,52
 1177.33 879.749 1177.33 879.749 1091.23 758.762 c 0,53,54
 971.21 590.119 971.21 590.119 939.691 208.344 c 1,55,56
 939.784 123.938 939.784 123.938 930.634 39.4727 c 0,57,58
 927.774 13.0732 927.774 13.0732 906.593 -3.96777 c 128,-1,59
 885.41 -21.0088 885.41 -21.0088 859.739 -18.228 c 128,-1,60
 834.067 -15.4473 834.067 -15.4473 817.216 3.91699 c 128,-1,61
 800.363 23.2803 800.363 23.2803 801.035 48.2227 c 0,62,63
 803.354 134.352 803.354 134.352 809.672 213.419 c 1,64,65
 808.153 481.112 808.153 481.112 700.14 669.324 c 0,66,67
 622.332 804.903 622.332 804.903 526.032 844.41 c 128,-1,68
 429.731 883.917 429.731 883.917 369.435 837.536 c 128,-1,69
 309.139 791.155 309.139 791.155 277.28 710.43 c 1,0,1
1143.15 -202.797 m 1,70,71
 1154.07 -208.877 1154.07 -208.877 1161.43 -217.189 c 0,72,73
 1306.31 -380.85 1306.31 -380.85 1429.73 -397.546 c 0,74,75
 1513.6 -408.891 1513.6 -408.891 1563.39 -351.851 c 128,-1,76
 1613.18 -294.811 1613.18 -294.811 1611.39 -226.56 c 128,-1,77
 1609.61 -158.309 1609.61 -158.309 1560.88 -126.942 c 0,78,79
 1470.59 -68.8125 1470.59 -68.8125 1272.04 -148.794 c 0,80,81
 1221.84 -168.389 1221.84 -168.389 1143.15 -202.797 c 1,70,71
252.957 629.934 m 1,82,83
 241.68 579.959 241.68 579.959 235.95 521.117 c 0,84,85
 217.648 333.177 217.648 333.177 251.842 234.634 c 128,-1,86
 286.036 136.091 286.036 136.091 345.167 126.413 c 128,-1,87
 404.298 116.735 404.298 116.735 469.293 170.884 c 128,-1,88
 534.289 225.032 534.289 225.032 547.887 298.625 c 0,89,90
 568.756 411.565 568.756 411.565 473.236 512.114 c 0,91,92
 407.908 580.882 407.908 580.882 306.059 591.166 c 0,93,94
 269.066 594.901 269.066 594.901 252.957 629.934 c 1,82,83
EndSplineSet
EndChar

StartChar: ch4
Encoding: 62 3357 63
Width: 3078
GlyphClass: 2
Flags: MW
LayerCount: 2
Fore
SplineSet
2102.92 931.739 m 5,0,1
 2102.26 755.956 2102.26 755.956 2115.6 456.854 c 5,2,3
 2132.15 410.916 2132.15 410.916 2155.88 369.083 c 5,4,5
 2280.69 165.401 2280.69 165.401 2441.96 142.718 c 4,6,7
 2565.35 125.983 2565.35 125.983 2675.29 214.368 c 132,-1,8
 2785.22 302.752 2785.22 302.752 2831.41 450.377 c 132,-1,9
 2877.6 598.003 2877.6 598.003 2806.71 737.277 c 4,10,11
 2752.87 843.039 2752.87 843.039 2633.33 917.765 c 4,12,13
 2610.81 931.842 2610.81 931.842 2604.7 958.323 c 132,-1,14
 2598.59 984.8 2598.59 984.8 2612.66 1007.33 c 132,-1,15
 2626.74 1029.86 2626.74 1029.86 2653.23 1035.97 c 132,-1,16
 2679.72 1042.08 2679.72 1042.08 2702.23 1028 c 4,17,18
 2852.37 934.154 2852.37 934.154 2922.56 796.259 c 4,19,20
 3017.49 609.754 3017.49 609.754 2951.57 399.046 c 4,21,22
 2897.53 226.339 2897.53 226.339 2750.07 107.805 c 132,-1,23
 2602.61 -10.7295 2602.61 -10.7295 2424.12 13.9482 c 4,24,25
 2201.78 44.6885 2201.78 44.6885 2043.96 302.921 c 4,26,27
 2042.11 306.159 2042.11 306.159 2040.65 308.771 c 5,28,29
 1962.35 144.911 1962.35 144.911 1817 64.583 c 132,-1,30
 1671.66 -15.7451 1671.66 -15.7451 1533.71 16.8613 c 132,-1,31
 1395.76 49.4678 1395.76 49.4678 1345.83 176.35 c 4,32,33
 1278.19 348.214 1278.19 348.214 1421.01 602.22 c 5,34,35
 1456.98 700.048 1456.98 700.048 1445.45 754.616 c 132,-1,36
 1433.93 809.183 1433.93 809.183 1395.67 842.282 c 4,37,38
 1324.71 902.78 1324.71 902.78 1188.17 891.441 c 132,-1,39
 1051.63 880.102 1051.63 880.102 928.377 800.939 c 5,40,41
 1027.35 653.81 1027.35 653.81 1035.46 445.542 c 4,42,43
 1046.26 150.87 1046.26 150.87 926.534 47.8848 c 4,44,45
 880.384 8.18555 880.384 8.18555 821.659 3.64746 c 132,-1,46
 762.936 -0.890625 762.936 -0.890625 709.452 28.5566 c 5,47,48
 612.84 79.7041 612.84 79.7041 559.855 204.788 c 132,-1,49
 506.871 329.871 506.871 329.871 542.234 473.069 c 4,50,51
 592.487 676.562 592.487 676.562 739.968 817.653 c 5,52,53
 677.013 868.625 677.013 868.625 595.782 887.815 c 4,54,55
 473.7 916.657 473.7 916.657 370.655 859.077 c 132,-1,56
 267.609 801.497 267.609 801.497 239.478 670.964 c 4,57,58
 191.687 449.218 191.687 449.218 383.143 120.349 c 4,59,60
 396.505 97.3896 396.505 97.3896 389.562 71.1113 c 132,-1,61
 382.621 44.833 382.621 44.833 359.672 31.4717 c 132,-1,62
 336.726 18.1094 336.726 18.1094 310.441 25.0488 c 132,-1,63
 284.158 31.9873 284.158 31.9873 270.795 54.9424 c 4,64,65
 53.9893 427.344 53.9893 427.344 112.395 698.352 c 4,66,67
 152.904 886.318 152.904 886.318 303.647 970.553 c 132,-1,68
 454.39 1054.79 454.39 1054.79 625.67 1014.33 c 4,69,70
 750.192 984.92 750.192 984.92 843.046 900.385 c 5,71,72
 1000.12 1006.27 1000.12 1006.27 1184.36 1021.57 c 132,-1,73
 1368.61 1036.87 1368.61 1036.87 1480.35 940.918 c 4,74,75
 1549.78 881.296 1549.78 881.296 1570.64 783.197 c 132,-1,76
 1591.5 685.098 1591.5 685.098 1540.88 551.608 c 4,77,78
 1539.09 546.914 1539.09 546.914 1536.61 542.547 c 4,79,80
 1421.29 339.584 1421.29 339.584 1466.79 223.957 c 4,81,82
 1491.83 160.342 1491.83 160.342 1572.27 141.329 c 132,-1,83
 1652.71 122.315 1652.71 122.315 1752.04 177.21 c 4,84,85
 1895.98 256.764 1895.98 256.764 1952.41 439.425 c 5,86,87
 1972.3 768.118 1972.3 768.118 1972.93 934.788 c 5,88,89
 1975.05 960.468 1975.05 960.468 1994.12 978.774 c 132,-1,90
 2013.18 997.08 2013.18 997.08 2043.88 996.96 c 132,-1,91
 2074.57 996.85 2074.57 996.85 2093.48 965.737 c 5,92,-1
 2102.92 931.739 l 5,0,1
826.004 720.025 m 5,93,94
 708.989 606.091 708.989 606.091 668.442 441.901 c 4,95,96
 643.458 340.728 643.458 340.728 678.985 256.85 c 132,-1,97
 714.512 172.973 714.512 172.973 770.277 143.448 c 5,98,99
 798.08 129.864 798.08 129.864 811.494 130.904 c 132,-1,100
 824.908 131.945 824.908 131.945 849.018 152.685 c 132,-1,101
 873.128 173.424 873.128 173.424 891.553 246.613 c 132,-1,102
 909.979 319.803 909.979 319.803 904.555 462.693 c 132,-1,103
 899.132 605.583 899.132 605.583 826.004 720.025 c 5,93,94
EndSplineSet
EndChar

StartChar: nj
Encoding: 63 3358 64
Width: 2195
GlyphClass: 2
Flags: MW
LayerCount: 2
Fore
SplineSet
748.945 34.9062 m 1,0,1
 725.95 255.59 725.95 255.59 746.524 432.179 c 1,2,3
 721.941 669.925 721.941 669.925 631.473 796.456 c 0,4,5
 561.801 893.898 561.801 893.898 478.733 891.89 c 128,-1,6
 395.666 889.882 395.666 889.882 322.033 797.663 c 128,-1,7
 248.399 705.444 248.399 705.444 235.314 539.995 c 1,8,9
 328.774 597.279 328.774 597.279 419.615 557.473 c 0,10,11
 560.494 495.738 560.494 495.738 575.9 298.807 c 0,12,13
 576.04 297.021 576.04 297.021 576.081 295.231 c 0,14,15
 579.622 141.385 579.622 141.385 492.678 53.2231 c 128,-1,16
 405.735 -34.9385 405.735 -34.9385 296.26 -4.91017 c 128,-1,17
 186.785 25.1182 186.785 25.1182 138.263 163.409 c 128,-1,18
 89.7413 301.7 89.7413 301.7 103.118 499.306 c 1,19,20
 109.161 739.41 109.161 739.41 220.536 878.894 c 128,-1,21
 331.91 1018.38 331.91 1018.38 479.708 1021.95 c 128,-1,22
 627.505 1025.53 627.505 1025.53 737.222 872.067 c 0,23,24
 784.48 805.968 784.48 805.968 816.926 717.938 c 1,25,26
 901.997 928.471 901.997 928.471 1047.63 998.733 c 1,27,28
 1215.63 1078.38 1215.63 1078.38 1365.63 946.394 c 1,29,30
 1521.22 1059.95 1521.22 1059.95 1697.65 1034.88 c 128,-1,31
 1874.08 1009.81 1874.08 1009.81 1993.67 874.364 c 128,-1,32
 2113.25 738.921 2113.25 738.921 2092.57 534.395 c 0,33,34
 2065.72 268.776 2065.72 268.776 1786.51 8.12598 c 0,35,36
 1767.1 -9.99512 1767.1 -9.99512 1739.94 -9.0625 c 128,-1,37
 1712.77 -8.12891 1712.77 -8.12891 1694.64 11.2871 c 128,-1,38
 1676.52 30.708 1676.52 30.708 1677.46 57.8721 c 128,-1,39
 1678.39 85.0352 1678.39 85.0352 1697.8 103.157 c 0,40,41
 1941.29 330.463 1941.29 330.463 1963.23 547.473 c 0,42,43
 1978.2 695.47 1978.2 695.47 1893.27 791.655 c 128,-1,44
 1808.35 887.841 1808.35 887.841 1684.06 905.501 c 128,-1,45
 1559.77 923.162 1559.77 923.162 1450.37 847.161 c 1,46,47
 1549.68 695.698 1549.68 695.698 1593.26 428.782 c 1,48,49
 1614.77 196.626 1614.77 196.626 1508.64 79.8887 c 0,50,51
 1423.05 -14.2544 1423.05 -14.2544 1308.97 8.5486 c 128,-1,52
 1194.9 31.3516 1194.9 31.3516 1132.2 148.858 c 128,-1,53
 1069.5 266.365 1069.5 266.365 1094.07 441.494 c 1,54,55
 1138.9 704.291 1138.9 704.291 1269.64 857.29 c 1,56,57
 1187.31 923.027 1187.31 923.027 1104.12 881.648 c 1,58,59
 964.094 814.092 964.094 814.092 899.288 549.957 c 0,60,61
 885.368 493.223 885.368 493.223 877.302 430.591 c 1,62,63
 893.539 256.672 893.539 256.672 877.419 46.1533 c 0,64,65
 875.392 19.6777 875.392 19.6777 854.757 1.97852 c 128,-1,66
 834.122 -15.7217 834.122 -15.7217 812.032 -14.0303 c 0,67,68
 767.93 -10.6534 767.93 -10.6534 748.945 34.9062 c 1,0,1
234.099 327.192 m 1,69,70
 240.659 264.228 240.659 264.228 257.442 216.395 c 0,71,72
 286.892 132.462 286.892 132.462 333.99 119.543 c 1,73,74
 364.639 108.53 364.639 108.53 406.269 150.743 c 128,-1,75
 447.899 192.956 447.899 192.956 446.153 290.451 c 1,76,77
 436.369 408.199 436.369 408.199 367.44 438.401 c 0,78,79
 342.112 449.5 342.112 449.5 308.542 432.098 c 128,-1,80
 274.971 414.696 274.971 414.696 265.813 377.913 c 128,-1,81
 256.654 341.129 256.654 341.129 234.099 327.192 c 1,69,70
1354.32 755.479 m 1,82,83
 1258.68 632.23 1258.68 632.23 1222.54 421.546 c 1,84,85
 1204.29 289.909 1204.29 289.909 1242.47 218.345 c 128,-1,86
 1280.66 146.781 1280.66 146.781 1328.51 137.215 c 128,-1,87
 1376.36 127.648 1376.36 127.648 1412.45 167.34 c 0,88,89
 1479.6 241.193 1479.6 241.193 1464.22 412.33 c 1,90,91
 1428.61 628.802 1428.61 628.802 1354.32 755.479 c 1,82,83
EndSplineSet
EndChar

StartChar: t1
Encoding: 64 3359 65
Width: 1058
GlyphClass: 2
Flags: MW
LayerCount: 2
Fore
SplineSet
958.074 358.764 m 128,-1,1
 958.074 322.27 958.074 322.27 954.91 278.119 c 128,-1,2
 951.746 233.968 951.746 233.968 910.496 166.473 c 128,-1,3
 869.244 98.9775 869.244 98.9775 808.068 61.2871 c 128,-1,4
 746.891 23.5977 746.891 23.5977 674.553 5.55371 c 128,-1,5
 602.215 -12.4902 602.215 -12.4902 528.855 -10.2812 c 128,-1,6
 455.497 -8.07324 455.497 -8.07324 384.9 10.6143 c 128,-1,7
 314.304 29.3008 314.304 29.3008 255.112 63.6943 c 128,-1,8
 195.922 98.0869 195.922 98.0869 154.229 153.897 c 128,-1,9
 112.536 209.708 112.536 209.708 108.874 257.372 c 128,-1,10
 105.213 305.036 105.213 305.036 122.902 325.674 c 128,-1,11
 140.593 346.312 140.593 346.312 167.077 348.346 c 128,-1,12
 193.561 350.381 193.561 350.381 214.195 332.688 c 128,-1,13
 234.831 314.994 234.831 314.994 237.047 286.14 c 128,-1,14
 239.264 257.285 239.264 257.285 261.724 227.22 c 128,-1,15
 284.184 197.155 284.184 197.155 324.334 173.825 c 128,-1,16
 364.484 150.495 364.484 150.495 419.408 135.957 c 128,-1,17
 474.331 121.419 474.331 121.419 531.254 119.705 c 128,-1,18
 588.176 117.991 588.176 117.991 642.021 131.423 c 128,-1,19
 695.867 144.854 695.867 144.854 735.211 169.092 c 128,-1,20
 774.553 193.33 774.553 193.33 799.156 233.588 c 128,-1,21
 823.762 273.845 823.762 273.845 825.688 319.416 c 128,-1,22
 827.615 364.988 827.615 364.988 813.166 393.387 c 128,-1,23
 798.689 421.838 798.689 421.838 766.752 443.773 c 128,-1,24
 734.816 465.71 734.816 465.71 688 482.925 c 128,-1,25
 641.182 500.141 641.182 500.141 574.531 509.683 c 128,-1,26
 507.881 519.225 507.881 519.225 437.953 522.836 c 128,-1,27
 368.026 526.447 368.026 526.447 303.63 525.523 c 128,-1,28
 239.232 524.6 239.232 524.6 190.126 537.572 c 128,-1,29
 141.019 550.544 141.019 550.544 113.991 598.974 c 128,-1,30
 86.9639 647.403 86.9639 647.403 112.145 727.135 c 128,-1,31
 137.326 806.865 137.326 806.865 262.146 906.802 c 128,-1,32
 386.966 1006.74 386.966 1006.74 512.258 1018.08 c 128,-1,33
 637.549 1029.42 637.549 1029.42 720.234 982.104 c 128,-1,34
 802.92 934.786 802.92 934.786 853.336 838.762 c 0,35,36
 865.682 815.241 865.682 815.241 857.598 789.291 c 128,-1,37
 849.514 763.34 849.514 763.34 826.002 750.996 c 128,-1,38
 802.492 738.65 802.492 738.65 776.537 746.731 c 128,-1,39
 750.582 754.812 750.582 754.812 727.033 799.667 c 128,-1,40
 703.484 844.521 703.484 844.521 657.961 870.568 c 128,-1,41
 612.438 896.615 612.438 896.615 525.053 888.706 c 128,-1,42
 437.666 880.796 437.666 880.796 343.533 805.43 c 128,-1,43
 249.399 730.064 249.399 730.064 239.503 698.728 c 128,-1,44
 229.605 667.391 229.605 667.391 229.042 662.541 c 1,45,46
 233.178 660.658 233.178 660.658 244.188 657.75 c 128,-1,47
 255.197 654.843 255.197 654.843 312.824 655.669 c 128,-1,48
 370.451 656.496 370.451 656.496 445.465 652.621 c 128,-1,49
 520.48 648.747 520.48 648.747 596.826 637.817 c 128,-1,50
 673.172 626.887 673.172 626.887 734.074 604.493 c 128,-1,51
 794.975 582.101 794.975 582.101 847.264 546.186 c 128,-1,52
 899.553 510.27 899.553 510.27 928.814 452.764 c 128,-1,0
 958.074 395.258 958.074 395.258 958.074 358.764 c 128,-1,1
EndSplineSet
EndChar

StartChar: t2
Encoding: 65 3360 66
Width: 1201
GlyphClass: 2
Flags: MW
LayerCount: 2
Fore
SplineSet
819.322 789.249 m 1,0,1
 782.119 772.845 782.119 772.845 751.145 798.743 c 0,2,3
 677.162 860.6 677.162 860.6 594.971 866.323 c 0,4,5
 478.724 874.417 478.724 874.417 373.948 781.112 c 128,-1,6
 269.173 687.806 269.173 687.806 229.205 550.148 c 128,-1,7
 189.237 412.49 189.237 412.49 255.11 304.443 c 0,8,9
 347.208 153.383 347.208 153.383 626.349 126.146 c 0,10,11
 734.697 115.574 734.697 115.574 827.095 196.716 c 128,-1,12
 919.664 278.008 919.664 278.008 956.298 404.254 c 0,13,14
 992.932 530.499 992.932 530.499 945.208 647.477 c 0,15,16
 911.199 730.837 911.199 730.837 819.322 789.249 c 1,0,1
753.755 953.021 m 1,17,18
 771.937 955.931 771.937 955.931 788.418 949.482 c 0,19,20
 890.391 909.584 890.391 909.584 961.783 842.786 c 0,21,22
 1091.95 720.994 1091.95 720.994 1100.32 546.639 c 0,23,24
 1108.7 372.284 1108.7 372.284 1015.73 221.867 c 0,25,26
 922.766 71.4507 922.766 71.4507 775.325 17.6332 c 0,27,28
 696.116 -11.2785 696.116 -11.2785 613.725 -3.23966 c 0,29,30
 269.994 30.298 269.994 30.298 144.113 236.77 c 0,31,32
 48.4203 393.727 48.4203 393.727 101.592 576.863 c 128,-1,33
 154.765 759.999 154.765 759.999 293.956 883.952 c 128,-1,34
 433.147 1007.9 433.147 1007.9 604.001 996.009 c 0,35,36
 682.158 990.567 682.158 990.567 753.755 953.021 c 1,17,18
EndSplineSet
EndChar

StartChar: t4
Encoding: 67 3362 68
Width: 2047
GlyphClass: 2
Flags: MW
LayerCount: 2
Fore
SplineSet
1234.27 460.886 m 1,0,1
 1253.88 347.406 1253.88 347.406 1297.02 281.563 c 0,2,3
 1383.53 149.52 1383.53 149.52 1481.73 118.361 c 128,-1,4
 1579.93 87.2026 1579.93 87.2026 1646.86 128.414 c 0,5,6
 1803.57 224.897 1803.57 224.897 1819.44 525.188 c 0,7,8
 1821.49 563.801 1821.49 563.801 1817.15 598.922 c 1,9,10
 1790.02 536.108 1790.02 536.108 1718.39 500.882 c 0,11,12
 1615.45 450.253 1615.45 450.253 1517.17 498.83 c 0,13,14
 1380.52 566.374 1380.52 566.374 1364.26 787.064 c 0,15,16
 1358.76 869.352 1358.76 869.352 1396.07 919.224 c 0,17,18
 1466.09 1012.82 1466.09 1012.82 1595.37 994.079 c 128,-1,19
 1724.66 975.339 1724.66 975.339 1823.29 873.04 c 0,20,21
 1960.51 730.714 1960.51 730.714 1949.26 518.321 c 0,22,23
 1929.76 149.941 1929.76 149.941 1715.02 17.7158 c 0,24,25
 1597.38 -54.7231 1597.38 -54.7231 1432.67 -2.46289 c 0,26,27
 1300.14 39.5908 1300.14 39.5908 1195.57 199.191 c 0,28,29
 1188.37 210.181 1188.37 210.181 1181.43 222.168 c 1,30,31
 1072.38 -56.1555 1072.38 -56.1555 832.949 -18.9619 c 0,32,33
 742.355 -4.91357 742.355 -4.91357 678.435 45.9617 c 128,-1,34
 614.514 96.8369 614.514 96.8369 597.266 160.828 c 0,35,36
 568.26 268.439 568.26 268.439 603.918 435.818 c 128,-1,37
 639.577 603.196 639.577 603.196 640.02 656.684 c 128,-1,38
 640.464 710.173 640.464 710.173 628.6 744.428 c 0,39,40
 602.744 819.082 602.744 819.082 474.457 846.529 c 1,41,42
 333.573 842.745 333.573 842.745 267.308 675.878 c 0,43,44
 224.792 568.82 224.792 568.82 230.571 428.483 c 128,-1,45
 236.349 288.147 236.349 288.147 288.74 178.426 c 0,46,47
 313.976 125.576 313.976 125.576 339.677 97.6689 c 128,-1,48
 365.379 69.7617 365.379 69.7617 364.261 42.6045 c 128,-1,49
 363.143 15.4473 363.143 15.4473 343.608 -2.54297 c 128,-1,50
 324.079 -20.5342 324.079 -20.5342 296.918 -19.4199 c 128,-1,51
 269.758 -18.3057 269.758 -18.3057 251.763 1.23242 c 0,52,53
 111.794 153.199 111.794 153.199 100.802 420.205 c 128,-1,54
 89.8093 687.212 89.8093 687.212 217.589 849.779 c 0,55,56
 317.28 976.608 317.28 976.608 480.691 976.608 c 0,57,58
 487.104 976.608 487.104 976.608 493.396 975.354 c 0,59,60
 700.49 934.085 700.49 934.085 749.914 791.382 c 0,61,62
 787.377 683.213 787.377 683.213 755.421 525.961 c 0,63,64
 742.585 462.806 742.585 462.806 722.261 367.41 c 128,-1,65
 701.937 272.014 701.937 272.014 720.647 202.599 c 128,-1,66
 739.356 133.183 739.356 133.183 854.347 109.277 c 1,67,68
 946.864 95.5786 946.864 95.5786 999.702 161.393 c 0,69,70
 1076.64 257.207 1076.64 257.207 1103 458.791 c 1,71,72
 1095.57 510.651 1095.57 510.651 1095.22 558.539 c 128,-1,73
 1094.88 606.428 1094.88 606.428 1084.82 697.875 c 128,-1,74
 1074.76 789.323 1074.76 789.323 1074.76 835.109 c 128,-1,75
 1074.76 880.895 1074.76 880.895 1082.75 915.743 c 128,-1,76
 1090.74 950.592 1090.74 950.592 1128.32 968.563 c 128,-1,77
 1165.89 986.535 1165.89 986.535 1192.62 967.73 c 128,-1,78
 1219.36 948.924 1219.36 948.924 1226.34 908.838 c 0,79,80
 1262.74 699.946 1262.74 699.946 1234.27 460.886 c 1,0,1
1754.66 753.894 m 1,81,82
 1680.3 850.408 1680.3 850.408 1580.6 864.859 c 0,83,84
 1523.9 873.077 1523.9 873.077 1507.79 851.542 c 128,-1,85
 1491.68 830.008 1491.68 830.008 1493.94 796.179 c 0,86,87
 1504.71 650.003 1504.71 650.003 1574.77 615.37 c 0,88,89
 1615.59 595.195 1615.59 595.195 1662.11 618.073 c 128,-1,90
 1708.63 640.952 1708.63 640.952 1699.62 666.958 c 128,-1,91
 1690.61 692.964 1690.61 692.964 1704.35 721.294 c 128,-1,92
 1718.1 749.624 1718.1 749.624 1754.66 753.894 c 1,81,82
EndSplineSet
EndChar

StartChar: nh
Encoding: 68 3363 69
Width: 2540
GlyphClass: 2
Flags: MW
LayerCount: 2
Fore
SplineSet
939.077 682.736 m 1,0,1
 954.594 726.709 954.594 726.709 972.943 767.474 c 0,2,3
 1062.79 967.078 1062.79 967.078 1195.76 1033.1 c 0,4,5
 1265.48 1067.66 1265.48 1067.66 1335.79 1057.08 c 128,-1,6
 1406.1 1046.49 1406.1 1046.49 1485.04 972.09 c 128,-1,7
 1563.97 897.686 1563.97 897.686 1602.96 694.245 c 1,8,9
 1641.19 774.856 1641.19 774.856 1689.95 840.046 c 0,10,11
 1824.52 1019.94 1824.52 1019.94 1996.42 1043.88 c 128,-1,12
 2168.32 1067.82 2168.32 1067.82 2295.19 959.67 c 128,-1,13
 2422.05 851.518 2422.05 851.518 2441.43 627.438 c 128,-1,14
 2460.82 403.359 2460.82 403.359 2262.41 118.123 c 0,15,16
 2223.62 62.3584 2223.62 62.3584 2191.64 24.458 c 128,-1,17
 2159.67 -13.4424 2159.67 -13.4424 2132.58 -15.7393 c 128,-1,18
 2105.5 -18.0361 2105.5 -18.0361 2085.2 -0.90625 c 128,-1,19
 2064.9 16.2256 2064.9 16.2256 2062.6 43.3096 c 128,-1,20
 2060.31 70.3936 2060.31 70.3936 2090.33 105.977 c 128,-1,21
 2120.35 141.561 2120.35 141.561 2155.69 192.354 c 0,22,23
 2327.25 438.999 2327.25 438.999 2312.19 613.092 c 128,-1,24
 2297.13 787.184 2297.13 787.184 2212.77 859.098 c 128,-1,25
 2128.42 931.011 2128.42 931.011 2012.28 914.836 c 128,-1,26
 1896.14 898.662 1896.14 898.662 1803.34 774.604 c 128,-1,27
 1710.55 650.547 1710.55 650.547 1675.25 526.146 c 128,-1,28
 1639.96 401.744 1639.96 401.744 1625.42 305.463 c 1,29,30
 1620.32 187.991 1620.32 187.991 1610.21 108.936 c 128,-1,31
 1600.09 29.8799 1600.09 29.8799 1578.58 13.252 c 128,-1,32
 1557.07 -3.37598 1557.07 -3.37598 1531.5 -0.103516 c 128,-1,33
 1505.93 3.16797 1505.93 3.16797 1489.56 22.8467 c 128,-1,34
 1473.18 42.5244 1473.18 42.5244 1475.92 121.453 c 128,-1,35
 1478.66 200.381 1478.66 200.381 1495.82 317.768 c 1,36,37
 1499.27 403.751 1499.27 403.751 1497.03 456.23 c 128,-1,38
 1494.79 508.709 1494.79 508.709 1492.65 535.932 c 0,39,40
 1471.44 806.259 1471.44 806.259 1373.63 898.456 c 0,41,42
 1343.31 927.034 1343.31 927.034 1316.85 931.019 c 128,-1,43
 1290.39 935.002 1290.39 935.002 1253.57 916.663 c 0,44,45
 1162.26 871.325 1162.26 871.325 1100.21 733.482 c 128,-1,46
 1038.15 595.639 1038.15 595.639 1016.69 471.048 c 128,-1,47
 995.232 346.457 995.232 346.457 993.701 264.142 c 128,-1,48
 992.169 181.826 992.169 181.826 992.136 139.632 c 128,-1,49
 992.103 97.4375 992.103 97.4375 991.605 67.0762 c 128,-1,50
 991.108 36.7158 991.108 36.7158 971.574 17.8086 c 128,-1,51
 952.04 -1.09766 952.04 -1.09766 925.646 -0.666016 c 128,-1,52
 899.252 -0.235352 899.252 -0.235352 880.879 19.2773 c 128,-1,53
 862.506 38.791 862.506 38.791 860.339 93.8828 c 128,-1,54
 858.172 148.975 858.172 148.975 857.925 253.507 c 128,-1,55
 857.678 358.039 857.678 358.039 845.655 463.253 c 0,56,57
 809.377 780.74 809.377 780.74 697.605 888.429 c 0,58,59
 656.637 927.901 656.637 927.901 614.128 933.239 c 128,-1,60
 571.618 938.577 571.618 938.577 489.256 899.312 c 128,-1,61
 406.893 860.047 406.893 860.047 336.986 757.375 c 128,-1,62
 267.081 654.703 267.081 654.703 244.931 578.93 c 1,63,64
 321.543 645.269 321.543 645.269 404.771 636.488 c 128,-1,65
 487.999 627.707 487.999 627.707 543.862 553.605 c 128,-1,66
 599.726 479.504 599.726 479.504 604.684 391.535 c 0,67,68
 617.484 164.423 617.484 164.423 518.883 56.9824 c 0,69,70
 478.826 13.335 478.826 13.335 425.768 -1.13867 c 128,-1,71
 372.709 -15.6123 372.709 -15.6123 316.673 3.43945 c 0,72,73
 211.22 40.6348 211.22 40.6348 151.964 175.765 c 128,-1,74
 92.708 310.895 92.708 310.895 101.03 502.312 c 0,75,76
 101.648 516.537 101.648 516.537 103.193 530.858 c 0,77,78
 117.828 666.485 117.828 666.485 218.42 814.223 c 128,-1,79
 319.013 961.959 319.013 961.959 430.498 1016.39 c 128,-1,80
 541.982 1070.83 541.982 1070.83 630.317 1059.75 c 128,-1,81
 718.651 1048.67 718.651 1048.67 803.514 966.911 c 128,-1,82
 888.375 885.149 888.375 885.149 939.077 682.736 c 1,0,1
230.136 440.231 m 1,83,84
 232.383 316.079 232.383 316.079 270.009 230.277 c 128,-1,85
 307.635 144.477 307.635 144.477 359.915 126.037 c 0,86,87
 379.033 118.58 379.033 118.58 392.325 122.203 c 128,-1,88
 405.617 125.827 405.617 125.827 423.104 144.882 c 0,89,90
 484.603 211.894 484.603 211.894 474.89 384.219 c 0,91,92
 472.153 432.77 472.153 432.77 445.173 468.56 c 128,-1,93
 418.192 504.35 418.192 504.35 386.697 507.673 c 128,-1,94
 355.202 510.996 355.202 510.996 323.089 475.83 c 128,-1,95
 290.976 440.665 290.976 440.665 270.079 436.369 c 128,-1,96
 249.184 432.072 249.184 432.072 230.136 440.231 c 1,83,84
EndSplineSet
EndChar

StartChar: th1
Encoding: 69 3364 70
Width: 1788
GlyphClass: 2
Flags: MW
LayerCount: 2
Fore
SplineSet
540.167 471.865 m 1,0,1
 624.863 684.027 624.863 684.027 748.926 816.659 c 1,2,3
 690.175 857.244 690.175 857.244 616.934 874.064 c 0,4,5
 488.106 903.648 488.106 903.648 381.787 846.302 c 0,6,7
 272.084 787.129 272.084 787.129 241.233 658.022 c 0,8,9
 188.883 438.94 188.883 438.94 379.024 112.349 c 0,10,11
 392.388 89.3896 392.388 89.3896 385.445 63.1113 c 128,-1,12
 378.504 36.833 378.504 36.833 355.554 23.4717 c 128,-1,13
 332.607 10.1094 332.607 10.1094 306.324 17.0488 c 128,-1,14
 280.041 23.9873 280.041 23.9873 266.677 46.9424 c 0,15,16
 50.3447 418.531 50.3447 418.531 114.793 688.236 c 0,17,18
 159.167 873.928 159.167 873.928 320.072 960.719 c 0,19,20
 469.469 1041.3 469.469 1041.3 646.029 1000.77 c 0,21,22
 759.258 974.771 759.258 974.771 847.776 905.135 c 1,23,24
 885.512 933.029 885.512 933.029 925.449 954.837 c 0,25,26
 1122.1 1062.22 1122.1 1062.22 1326.18 1007.07 c 0,27,28
 1498.47 960.509 1498.47 960.509 1599.96 818.713 c 0,29,30
 1717.75 654.144 1717.75 654.144 1678.65 447.329 c 0,31,32
 1634.14 211.971 1634.14 211.971 1392.22 4.40332 c 0,33,34
 1372.07 -12.8887 1372.07 -12.8887 1344.96 -10.8184 c 128,-1,35
 1317.86 -8.74805 1317.86 -8.74805 1300.56 11.4111 c 128,-1,36
 1283.27 31.5752 1283.27 31.5752 1285.34 58.6748 c 128,-1,37
 1287.42 85.7754 1287.42 85.7754 1307.57 103.067 c 0,38,39
 1514.88 280.935 1514.88 280.935 1550.91 471.489 c 0,40,41
 1579.69 623.68 1579.69 623.68 1494.25 743.052 c 0,42,43
 1419.77 847.104 1419.77 847.104 1292.26 881.57 c 0,44,45
 1138.6 923.104 1138.6 923.104 987.754 840.739 c 0,46,47
 963.335 827.406 963.335 827.406 939.844 811.188 c 1,48,49
 942.948 807.133 942.948 807.133 945.354 803.897 c 0,50,51
 1030.87 688.982 1030.87 688.982 1056.01 532.721 c 1,52,53
 1116.21 264.721 1116.21 264.721 1007.12 114.275 c 0,54,55
 968.889 61.5459 968.889 61.5459 915.048 32.2217 c 128,-1,56
 861.206 2.89746 861.206 2.89746 797.771 1.10059 c 0,57,58
 675.233 -2.37207 675.233 -2.37207 590.954 89.5557 c 0,59,60
 485.566 204.508 485.566 204.508 518.559 389.079 c 0,61,62
 525.577 428.334 525.577 428.334 540.167 471.865 c 1,0,1
841.658 725.485 m 1,63,64
 736.306 611.72 736.306 611.72 662.26 427.066 c 1,65,66
 651.794 395.646 651.794 395.646 646.53 366.202 c 0,67,68
 624.856 244.949 624.856 244.949 686.779 177.406 c 0,69,70
 730.92 129.258 730.92 129.258 794.09 131.048 c 0,71,72
 828.621 132.026 828.621 132.026 854.064 145.881 c 128,-1,73
 879.508 159.736 879.508 159.736 901.879 190.588 c 0,74,75
 976.911 294.063 976.911 294.063 928.766 506.029 c 0,76,77
 928.285 508.147 928.285 508.147 927.945 510.296 c 0,78,79
 908.217 635.314 908.217 635.314 841.658 725.485 c 1,63,64
EndSplineSet
EndChar

StartChar: th2
Encoding: 70 3365 71
Width: 1557
GlyphClass: 2
Flags: MW
LayerCount: 2
Fore
SplineSet
782.532 129.159 m 5,0,1
 491.765 433.564 491.765 433.564 533.245 699.394 c 4,2,3
 559.976 870.699 559.976 870.699 705.861 965.332 c 132,-1,4
 851.748 1059.96 851.748 1059.96 1032.26 1045.12 c 132,-1,5
 1212.77 1030.27 1212.77 1030.27 1332.09 893.524 c 4,6,7
 1497.6 703.85 1497.6 703.85 1445.1 364.104 c 5,8,9
 1386.99 67.1357 1386.99 67.1357 1163.05 13.5566 c 4,10,11
 1067.25 -9.36523 1067.25 -9.36523 972.123 -6.68555 c 132,-1,12
 876.999 -4.00488 876.999 -4.00488 734.604 0.665039 c 132,-1,13
 592.207 5.33594 592.207 5.33594 507.384 2.68652 c 4,14,15
 255.163 -5.18945 255.163 -5.18945 156.248 186.681 c 4,16,17
 26.5156 438.318 26.5156 438.318 192.974 985.598 c 4,18,19
 200.702 1011.01 200.702 1011.01 224.686 1023.8 c 132,-1,20
 248.669 1036.6 248.669 1036.6 274.075 1028.87 c 4,21,22
 336.262 1009.95 336.262 1009.95 311.744 929.348 c 4,23,24
 166.25 450.99 166.25 450.99 271.796 246.251 c 4,25,26
 333.017 127.5 333.017 127.5 503.75 132.443 c 4,27,28
 591.466 135.384 591.466 135.384 782.532 129.159 c 5,0,1
909.938 125.138 m 5,29,30
 1119 118.995 1119 118.995 1186.19 159.674 c 132,-1,31
 1253.39 200.352 1253.39 200.352 1278.95 261.913 c 132,-1,32
 1304.52 323.474 1304.52 323.474 1317.02 386.528 c 5,33,34
 1359.38 664.523 1359.38 664.523 1234.14 808.051 c 4,35,36
 1149.51 905.035 1149.51 905.035 1017.4 915.9 c 132,-1,37
 885.29 926.767 885.29 926.767 782.377 860.01 c 132,-1,38
 679.464 793.253 679.464 793.253 661.691 679.354 c 4,39,40
 628.686 467.835 628.686 467.835 896.936 198.033 c 4,41,42
 928.59 166.195 928.59 166.195 909.938 125.138 c 5,29,30
EndSplineSet
EndChar

StartChar: th3
Encoding: 71 3366 72
Width: 1291
GlyphClass: 2
Flags: MW
LayerCount: 2
Fore
SplineSet
402.035 0.389648 m 128,-1,1
 383.95 -19.0566 383.95 -19.0566 356.788 -20.0439 c 128,-1,2
 329.625 -21.0312 329.625 -21.0312 306.461 0.508789 c 128,-1,3
 283.297 22.0498 283.297 22.0498 268.837 36.1035 c 128,-1,4
 254.377 50.1582 254.377 50.1582 222.884 86.0244 c 0,5,6
 93.0378 233.909 93.0378 233.909 100.546 430.247 c 0,7,8
 102.817 489.621 102.817 489.621 120.171 551.797 c 0,9,10
 192.802 812.029 192.802 812.029 422.802 938.221 c 0,11,12
 599.233 1035.02 599.233 1035.02 788.396 1023.35 c 128,-1,13
 977.561 1011.68 977.561 1011.68 1052.97 943.188 c 0,14,15
 1192.79 816.206 1192.79 816.206 1107.1 660.081 c 0,16,17
 1065 583.381 1065 583.381 946.865 501.766 c 1,18,19
 1073.34 472.471 1073.34 472.471 1127.04 412.756 c 0,20,21
 1227.76 300.764 1227.76 300.764 1162.86 156.835 c 0,22,23
 1127.31 77.9775 1127.31 77.9775 986.868 14.915 c 128,-1,24
 846.431 -48.1475 846.431 -48.1475 655.517 16.8105 c 0,25,26
 630.377 25.3643 630.377 25.3643 618.369 49.751 c 128,-1,27
 606.362 74.1377 606.362 74.1377 614.919 99.2832 c 128,-1,28
 623.476 124.43 623.476 124.43 647.863 136.433 c 128,-1,29
 672.251 148.436 672.251 148.436 697.392 139.881 c 0,30,31
 839.859 91.4072 839.859 91.4072 934.521 133.914 c 128,-1,32
 1029.18 176.421 1029.18 176.421 1047.49 217.232 c 0,33,34
 1074.29 277.001 1074.29 277.001 1035.23 320.438 c 0,35,36
 1009.78 348.733 1009.78 348.733 933.622 370.505 c 128,-1,37
 857.464 392.277 857.464 392.277 788.435 392.058 c 128,-1,38
 719.405 391.839 719.405 391.839 703.246 401.83 c 128,-1,39
 687.087 411.821 687.087 411.821 677.237 432.11 c 128,-1,40
 667.389 452.399 667.389 452.399 676.287 478.088 c 128,-1,41
 685.187 503.775 685.187 503.775 755.728 538.018 c 128,-1,42
 826.269 572.259 826.269 572.259 899.153 628.372 c 128,-1,43
 972.038 684.484 972.038 684.484 994.274 725.869 c 128,-1,44
 1016.51 767.255 1016.51 767.255 1013.58 786.632 c 128,-1,45
 1010.65 806.008 1010.65 806.008 967.312 845.373 c 128,-1,46
 923.968 884.738 923.968 884.738 776.374 893.846 c 128,-1,47
 628.78 902.952 628.78 902.952 466.043 813.665 c 128,-1,48
 303.307 724.377 303.307 724.377 245.386 516.849 c 0,49,50
 232.139 469.386 232.139 469.386 230.395 423.801 c 0,51,52
 223.932 254.793 223.932 254.793 395.515 95.2168 c 0,53,54
 418.152 74.165 418.152 74.165 419.136 46.999 c 128,-1,0
 420.119 19.833 420.119 19.833 402.035 0.389648 c 128,-1,1
EndSplineSet
EndChar

StartChar: n1
Encoding: 73 3368 74
Width: 1587
GlyphClass: 2
Flags: MW
LayerCount: 2
Fore
SplineSet
282.867 5.35449 m 128,-1,1
 258.307 -4.74609 258.307 -4.74609 233.22 5.7168 c 128,-1,2
 208.132 16.1797 208.132 16.1797 198.028 40.7441 c 0,3,4
 62.2939 370.77 62.2939 370.77 107.116 603.885 c 128,-1,5
 151.938 837 151.938 837 272.007 933.56 c 128,-1,6
 392.075 1030.12 392.075 1030.12 548.9 969.525 c 128,-1,7
 705.725 908.929 705.725 908.929 786.771 621.907 c 1,8,9
 821.106 721.937 821.106 721.937 869.909 800.353 c 0,10,11
 977.419 973.098 977.419 973.098 1122.83 998.129 c 128,-1,12
 1268.25 1023.16 1268.25 1023.16 1376.79 905.588 c 128,-1,13
 1485.32 788.02 1485.32 788.02 1487.8 552.451 c 128,-1,14
 1490.27 316.883 1490.27 316.883 1337.59 22.0488 c 0,15,16
 1325.38 -1.5332 1325.38 -1.5332 1299.48 -9.76367 c 128,-1,17
 1273.57 -17.9951 1273.57 -17.9951 1249.98 -5.78125 c 128,-1,18
 1226.4 6.43359 1226.4 6.43359 1218.17 32.3418 c 128,-1,19
 1209.94 58.25 1209.94 58.25 1222.15 81.8281 c 0,20,21
 1359.94 347.903 1359.94 347.903 1357.9 542.257 c 128,-1,22
 1355.85 736.611 1355.85 736.611 1288.26 809.833 c 128,-1,23
 1220.66 883.054 1220.66 883.054 1138.81 868.965 c 128,-1,24
 1056.96 854.877 1056.96 854.877 956.475 693.417 c 128,-1,25
 855.991 531.956 855.991 531.956 839.81 156.272 c 1,26,27
 839.537 106.686 839.537 106.686 837.951 67.4819 c 128,-1,28
 836.365 28.2783 836.365 28.2783 816.382 9.84766 c 128,-1,29
 796.398 -8.58398 796.398 -8.58398 769.866 -7.51172 c 128,-1,30
 743.526 -6.44727 743.526 -6.44727 725.447 13.5127 c 128,-1,31
 707.369 33.4727 707.369 33.4727 707.562 71.582 c 128,-1,32
 707.755 109.691 707.755 109.691 709.052 197.916 c 128,-1,33
 710.35 286.14 710.35 286.14 695.509 417.451 c 128,-1,34
 680.669 548.762 680.669 548.762 627.828 684.57 c 128,-1,35
 574.986 820.377 574.986 820.377 496.184 852.015 c 128,-1,36
 417.381 883.652 417.381 883.652 343.986 824.626 c 128,-1,37
 270.591 765.6 270.591 765.6 233.936 574.965 c 128,-1,38
 197.282 384.33 197.282 384.33 318.257 90.1934 c 0,39,40
 328.36 65.6279 328.36 65.6279 317.894 40.542 c 128,-1,0
 307.427 15.4561 307.427 15.4561 282.867 5.35449 c 128,-1,1
EndSplineSet
EndChar

StartChar: p1
Encoding: 75 3370 75
Width: 1913
GlyphClass: 2
Flags: MW
LayerCount: 2
Fore
SplineSet
354.985 15.9121 m 128,-1,1
 336.973 -3.60156 336.973 -3.60156 309.814 -4.69043 c 128,-1,2
 282.656 -5.77832 282.656 -5.77832 263.135 12.2373 c 0,3,4
 45.251 213.361 45.251 213.361 118.374 400.883 c 0,5,6
 166.247 523.649 166.247 523.649 316.408 589.32 c 128,-1,7
 466.568 654.991 466.568 654.991 621.942 637.015 c 128,-1,8
 777.315 619.038 777.315 619.038 828.949 503.649 c 0,9,10
 899.651 345.646 899.651 345.646 694.141 101.983 c 1,11,12
 738.869 102.455 738.869 102.455 803.978 106.051 c 128,-1,13
 869.086 109.646 869.086 109.646 896.801 108.98 c 0,14,15
 1644.85 90.8154 1644.85 90.8154 1677.1 195.615 c 0,16,17
 1697.1 260.643 1697.1 260.643 1656.29 388.412 c 0,18,19
 1655.53 390.771 1655.53 390.771 1654.96 393.177 c 0,20,21
 1577.18 720.844 1577.18 720.844 1610.83 964.882 c 0,22,23
 1614.46 991.188 1614.46 991.188 1636.13 1007.6 c 128,-1,24
 1657.79 1024.02 1657.79 1024.02 1684.1 1020.39 c 128,-1,25
 1710.42 1016.76 1710.42 1016.76 1726.83 995.093 c 128,-1,26
 1743.24 973.426 1743.24 973.426 1739.61 947.118 c 0,27,28
 1709.45 728.368 1709.45 728.368 1780.89 425.561 c 1,29,30
 1873.16 134.015 1873.16 134.015 1705.79 48.1084 c 0,31,32
 1639.95 14.3115 1639.95 14.3115 1560.49 1.46815 c 0,33,34
 1481.04 -11.3752 1481.04 -11.3752 632.849 -25.2451 c 1,35,36
 583.854 -19.5977 583.854 -19.5977 555.363 10.8008 c 0,37,38
 496.05 74.0859 496.05 74.0859 572.952 160.614 c 0,39,40
 750.625 360.406 750.625 360.406 707.701 456.331 c 0,41,42
 688.876 498.4 688.876 498.4 587.69 510.111 c 128,-1,43
 486.505 521.821 486.505 521.821 377.136 473.99 c 128,-1,44
 267.766 426.159 267.766 426.159 239.491 353.652 c 0,45,46
 198.581 248.744 198.581 248.744 351.312 107.762 c 0,47,48
 370.829 89.7461 370.829 89.7461 371.913 62.584 c 128,-1,0
 372.998 35.4219 372.998 35.4219 354.985 15.9121 c 128,-1,1
EndSplineSet
EndChar

StartChar: p2
Encoding: 76 3371 76
Width: 2113
GlyphClass: 2
Flags: MW
LayerCount: 2
Fore
SplineSet
1213.8 112.017 m 1,0,1
 1066.84 261.405 1066.84 261.405 1059.81 518.627 c 0,2,3
 1054.9 698.074 1054.9 698.074 1156.29 831.996 c 128,-1,4
 1257.68 965.918 1257.68 965.918 1411.34 1011.19 c 128,-1,5
 1564.99 1056.47 1564.99 1056.47 1717.27 977.291 c 128,-1,6
 1869.55 898.111 1869.55 898.111 1951.75 683.84 c 0,7,8
 2073.67 366.02 2073.67 366.02 1955.64 172.895 c 128,-1,9
 1837.61 -20.2305 1837.61 -20.2305 1538.66 -20.2305 c 1,10,-1
 636.646 -13.998 l 2,11,12
 617.221 -13.8643 617.221 -13.8643 598.088 -1.11621 c 128,-1,13
 578.957 11.6309 578.957 11.6309 573.619 38.2881 c 128,-1,14
 568.279 64.9453 568.279 64.9453 576.568 77.3838 c 128,-1,15
 584.857 89.8232 584.857 89.8232 607.553 124.205 c 0,16,17
 674.135 225.066 674.135 225.066 696.959 317.545 c 0,18,19
 729.475 449.288 729.475 449.288 652.662 493.771 c 0,20,21
 624.473 510.097 624.473 510.097 572.389 514.396 c 0,22,23
 466.871 523.104 466.871 523.104 365.426 469.762 c 128,-1,24
 263.98 416.421 263.98 416.421 238.368 340.4 c 0,25,26
 201.373 230.592 201.373 230.592 345.018 98.915 c 0,27,28
 364.598 80.9668 364.598 80.9668 365.777 53.8086 c 128,-1,29
 366.955 26.6504 366.955 26.6504 349.012 7.07812 c 128,-1,30
 331.066 -12.498 331.066 -12.498 303.912 -13.6807 c 128,-1,31
 276.758 -14.8633 276.758 -14.8633 257.174 3.08496 c 0,32,33
 51.167 191.926 51.167 191.926 115.173 381.906 c 0,34,35
 157.404 507.258 157.404 507.258 298.635 581.518 c 128,-1,36
 439.865 655.778 439.865 655.778 595.18 642.956 c 128,-1,37
 750.494 630.134 750.494 630.134 811.574 506.303 c 0,38,39
 885.23 356.978 885.23 356.978 752.424 115.205 c 1,40,-1
 1213.8 112.017 l 1,0,1
1357.17 111.026 m 1,41,-1
 1539.11 109.77 l 1,42,43
 1694.48 109.77 1694.48 109.77 1792.64 182.918 c 0,44,45
 1957.54 305.791 1957.54 305.791 1830.38 637.275 c 0,46,47
 1739.07 875.307 1739.07 875.307 1550.12 895.006 c 0,48,49
 1444.86 905.98 1444.86 905.98 1345.74 837.057 c 128,-1,50
 1246.62 768.133 1246.62 768.133 1211.04 659.381 c 128,-1,51
 1175.47 550.63 1175.47 550.63 1200.86 416.986 c 128,-1,52
 1226.25 283.342 1226.25 283.342 1308.28 201.367 c 0,53,54
 1318.32 191.336 1318.32 191.336 1333.13 181.318 c 128,-1,55
 1347.95 171.301 1347.95 171.301 1355.2 151.248 c 128,-1,56
 1362.45 131.195 1362.45 131.195 1357.17 111.026 c 1,41,-1
EndSplineSet
EndChar

StartChar: p3
Encoding: 77 3372 77
Width: 1990
GlyphClass: 2
Flags: MW
LayerCount: 2
Fore
SplineSet
197.158 376.623 m 1,0,1
 222.236 209.251 222.236 209.251 304.628 145.46 c 0,2,3
 338.734 119.054 338.734 119.054 356.989 125.704 c 0,4,5
 423.439 149.911 423.439 149.911 442.184 315.62 c 0,6,7
 449.744 382.462 449.744 382.462 407.078 435.59 c 0,8,9
 337.514 522.211 337.514 522.211 260.424 461.838 c 0,10,11
 230.59 438.473 230.59 438.473 215.693 410.056 c 128,-1,12
 200.798 381.638 200.798 381.638 197.158 376.623 c 1,0,1
187.381 569.693 m 1,13,14
 295.06 650.883 295.06 650.883 407.14 596.757 c 128,-1,15
 519.22 542.632 519.22 542.632 556.629 427.121 c 128,-1,16
 594.039 311.609 594.039 311.609 545.757 175.067 c 128,-1,17
 497.476 38.5244 497.476 38.5244 406.664 5.44238 c 128,-1,18
 315.852 -27.6396 315.852 -27.6396 225.043 42.668 c 0,19,20
 72.623 160.678 72.623 160.678 56.9707 471.654 c 0,21,22
 46.2334 684.967 46.2334 684.967 127.881 828.837 c 128,-1,23
 209.528 972.708 209.528 972.708 353.455 995.576 c 128,-1,24
 497.382 1018.44 497.382 1018.44 619.404 902.573 c 128,-1,25
 741.428 786.702 741.428 786.702 796.055 589.264 c 1,26,27
 840.762 705.675 840.762 705.675 906.749 794.012 c 0,28,29
 1032.07 961.777 1032.07 961.777 1188.4 983.952 c 128,-1,30
 1344.74 1006.13 1344.74 1006.13 1452.29 906.322 c 128,-1,31
 1559.84 806.518 1559.84 806.518 1551.99 632.815 c 0,32,33
 1540.32 374.918 1540.32 374.918 1265.57 102.304 c 1,34,35
 1667.09 85.3086 1667.09 85.3086 1723.19 135.005 c 0,36,37
 1727.31 138.656 1727.31 138.656 1738.71 145.741 c 128,-1,38
 1750.12 152.827 1750.12 152.827 1762.13 196.977 c 128,-1,39
 1774.15 241.126 1774.15 241.126 1767.86 356.41 c 128,-1,40
 1761.58 471.694 1761.58 471.694 1730.72 660.251 c 128,-1,41
 1699.86 848.809 1699.86 848.809 1724.32 961.407 c 0,42,43
 1729.96 987.357 1729.96 987.357 1752.82 1002.06 c 128,-1,44
 1775.68 1016.77 1775.68 1016.77 1801.64 1011.13 c 128,-1,45
 1827.59 1005.49 1827.59 1005.49 1842.29 982.627 c 128,-1,46
 1857 959.764 1857 959.764 1844.57 902.575 c 128,-1,47
 1832.15 845.387 1832.15 845.387 1853.71 713.644 c 0,48,49
 1922.71 291.98 1922.71 291.98 1885.59 155.577 c 0,50,51
 1863.08 72.8613 1863.08 72.8613 1805.24 34.1348 c 1,52,53
 1735.92 -22.7959 1735.92 -22.7959 1579.36 -30.4346 c 128,-1,54
 1422.8 -38.0732 1422.8 -38.0732 1101.96 -19.583 c 0,55,56
 1073.72 -17.9551 1073.72 -17.9551 1056.22 3.14746 c 128,-1,57
 1038.71 24.25 1038.71 24.25 1041.24 51.3184 c 128,-1,58
 1043.76 78.3857 1043.76 78.3857 1064.2 95.3389 c 0,59,60
 1152.12 168.266 1152.12 168.266 1219.76 242.175 c 0,61,62
 1413.77 454.135 1413.77 454.135 1422.12 638.686 c 0,63,64
 1427.25 752.206 1427.25 752.206 1364.47 810.463 c 128,-1,65
 1301.69 868.721 1301.69 868.721 1216.8 856.679 c 0,66,67
 1103.86 840.659 1103.86 840.659 1008.35 712.794 c 0,68,69
 870.245 527.918 870.245 527.918 840.096 174.599 c 1,70,71
 838.428 116.571 838.428 116.571 834.674 73.123 c 128,-1,72
 830.921 29.6738 830.921 29.6738 810.115 12.1768 c 128,-1,73
 789.309 -5.32129 789.309 -5.32129 763.002 -3.04883 c 128,-1,74
 736.695 -0.776367 736.695 -0.776367 719.707 19.9727 c 128,-1,75
 702.72 40.7227 702.72 40.7227 704.102 82.6289 c 128,-1,76
 705.483 124.535 705.483 124.535 709.966 219.439 c 128,-1,77
 714.448 314.344 714.448 314.344 695.851 435.39 c 0,78,79
 657.119 687.487 657.119 687.487 534.431 803.99 c 0,80,81
 454.401 879.984 454.401 879.984 373.058 867.06 c 128,-1,82
 291.714 854.135 291.714 854.135 243.521 769.215 c 128,-1,83
 195.327 684.295 195.327 684.295 187.381 569.693 c 1,13,14
EndSplineSet
EndChar

StartChar: p4
Encoding: 78 3373 78
Width: 1387
GlyphClass: 2
Flags: MW
LayerCount: 2
Fore
SplineSet
438.714 3.45215 m 128,-1,1
 423.465 -18.2891 423.465 -18.2891 396.694 -22.9902 c 128,-1,2
 369.924 -27.6914 369.924 -27.6914 348.174 -12.4395 c 0,3,4
 249.95 56.4531 249.95 56.4531 189.049 145.643 c 0,5,6
 78.5678 307.443 78.5678 307.443 103.249 496.086 c 128,-1,7
 127.931 684.729 127.931 684.729 256.024 827.842 c 0,8,9
 316.068 894.927 316.068 894.927 389.751 938.003 c 0,10,11
 586.238 1052.88 586.238 1052.88 786.838 1014.87 c 0,12,13
 932.132 987.341 932.132 987.341 1012.24 890.94 c 128,-1,14
 1092.35 794.538 1092.35 794.538 1037 684.853 c 1,15,16
 1018.56 651.848 1018.56 651.848 987.677 625.541 c 0,17,18
 882.85 536.236 882.85 536.236 860.12 506.203 c 128,-1,19
 837.391 476.169 837.391 476.169 832.021 463.646 c 1,20,21
 886.232 440.511 886.232 440.511 1043.32 454.055 c 128,-1,22
 1200.4 467.599 1200.4 467.599 1261.06 359.478 c 0,23,24
 1311.65 269.303 1311.65 269.303 1263.69 160.747 c 128,-1,25
 1215.74 52.1904 1215.74 52.1904 1099.45 5.89844 c 0,26,27
 939.634 -57.7178 939.634 -57.7178 733.455 37.5957 c 0,28,29
 709.351 48.7383 709.351 48.7383 699.969 74.248 c 128,-1,30
 690.586 99.7578 690.586 99.7578 701.73 123.871 c 128,-1,31
 712.876 147.981 712.876 147.981 738.391 157.361 c 128,-1,32
 763.905 166.74 763.905 166.74 788.006 155.596 c 0,33,34
 943.468 83.7295 943.468 83.7295 1051.37 126.682 c 0,35,36
 1118.3 153.322 1118.3 153.322 1142.32 207.713 c 128,-1,37
 1166.35 262.104 1166.35 262.104 1152.05 287.704 c 128,-1,38
 1137.75 313.305 1137.75 313.305 1119.67 320.951 c 128,-1,39
 1101.58 328.597 1101.58 328.597 1032.59 322.649 c 0,40,41
 699.654 293.945 699.654 293.945 699.633 456.528 c 0,42,43
 699.627 509.558 699.627 509.558 743.689 567.779 c 128,-1,44
 787.752 626.001 787.752 626.001 903.374 724.5 c 0,45,46
 916.684 735.839 916.684 735.839 924.464 748.06 c 0,47,48
 940.72 773.596 940.72 773.596 901.367 820.954 c 128,-1,49
 862.015 868.312 862.015 868.312 762.638 887.142 c 0,50,51
 609.845 916.09 609.845 916.09 455.363 825.776 c 0,52,53
 340.668 758.721 340.668 758.721 275.273 627.581 c 128,-1,54
 209.878 496.441 209.878 496.441 238.253 349.992 c 128,-1,55
 266.627 203.544 266.627 203.544 422.822 93.9922 c 0,56,57
 444.568 78.7393 444.568 78.7393 449.267 51.9648 c 128,-1,0
 453.964 25.1904 453.964 25.1904 438.714 3.45215 c 128,-1,1
EndSplineSet
EndChar

StartChar: m1
Encoding: 79 3374 79
Width: 1309
GlyphClass: 2
Flags: MW
LayerCount: 2
Fore
SplineSet
1034.14 410.279 m 1,0,1
 923.698 293.771 923.698 293.771 804.566 236.907 c 128,-1,2
 685.435 180.045 685.435 180.045 614.864 158.436 c 128,-1,3
 544.294 136.825 544.294 136.825 532.517 133.134 c 1,4,5
 673.212 131.946 673.212 131.946 842.025 128.602 c 128,-1,6
 1010.84 125.256 1010.84 125.256 1073.33 129.406 c 1,7,8
 1071.53 135.765 1071.53 135.765 1069.69 141.861 c 0,9,10
 1027.38 282.24 1027.38 282.24 1034.14 410.279 c 1,0,1
438.096 238.977 m 1,11,12
 467.823 249.367 467.823 249.367 524.94 266.857 c 0,13,14
 738.535 332.265 738.535 332.265 853.3 421.093 c 0,15,16
 908.229 463.609 908.229 463.609 958.113 519.698 c 1,17,18
 1105.75 771.458 1105.75 771.458 973.911 876.244 c 0,19,20
 881.369 949.796 881.369 949.796 708.347 946.258 c 128,-1,21
 535.325 942.72 535.325 942.72 397.562 867.273 c 128,-1,22
 259.799 791.828 259.799 791.828 235.335 686.13 c 0,23,24
 198.357 526.371 198.357 526.371 427.02 323.441 c 0,25,26
 444.895 307.578 444.895 307.578 448.07 283.282 c 128,-1,27
 451.245 258.986 451.245 258.986 438.096 238.977 c 1,11,12
352.036 218.142 m 1,28,29
 345.445 222.025 345.445 222.025 340.73 226.209 c 0,30,31
 54.2832 480.41 54.2832 480.41 108.683 715.443 c 0,32,33
 146.279 877.877 146.279 877.877 323.55 974.959 c 128,-1,34
 500.819 1072.04 500.819 1072.04 713.193 1076.38 c 128,-1,35
 925.567 1080.73 925.567 1080.73 1051.85 980.359 c 0,36,37
 1134.58 914.603 1134.58 914.603 1156.58 815.199 c 128,-1,38
 1178.58 715.795 1178.58 715.795 1140.45 605.583 c 1,39,40
 1193.93 585.347 1193.93 585.347 1176.43 505.833 c 0,41,42
 1142.39 351.163 1142.39 351.163 1194.16 179.37 c 0,43,44
 1211 123.525 1211 123.525 1209.83 99.7559 c 0,45,46
 1206 21.5479 1206 21.5479 1117.87 3.89062 c 0,47,48
 1068.9 -5.91992 1068.9 -5.91992 734.875 0.699219 c 128,-1,49
 400.848 7.31836 400.848 7.31836 252.583 0.521484 c 128,-1,50
 104.318 -6.27539 104.318 -6.27539 105.244 89.1006 c 0,51,52
 106.061 173.065 106.061 173.065 244.764 198.127 c 0,53,54
 267.85 202.298 267.85 202.298 300.907 208.093 c 128,-1,55
 333.965 213.887 333.965 213.887 352.036 218.142 c 1,28,29
EndSplineSet
EndChar

StartChar: y1
Encoding: 80 3375 80
Width: 1864
GlyphClass: 2
Flags: MW
LayerCount: 2
Fore
SplineSet
1147.89 178.527 m 1,0,1
 1209.83 146.411 1209.83 146.411 1289.02 145.079 c 0,2,3
 1500.49 141.522 1500.49 141.522 1593.66 302.687 c 0,4,5
 1653.98 407.033 1653.98 407.033 1625.38 575.675 c 128,-1,6
 1596.77 744.315 1596.77 744.315 1438.68 947.338 c 0,7,8
 1422.37 968.287 1422.37 968.287 1425.72 995.263 c 128,-1,9
 1429.07 1022.24 1429.07 1022.24 1450.03 1038.56 c 128,-1,10
 1470.99 1054.88 1470.99 1054.88 1497.96 1051.52 c 128,-1,11
 1524.93 1048.17 1524.93 1048.17 1541.25 1027.21 c 0,12,13
 1798.74 696.531 1798.74 696.531 1759.67 401.592 c 0,14,15
 1736.47 226.531 1736.47 226.531 1607.63 119.2 c 128,-1,16
 1478.8 11.8682 1478.8 11.8682 1310.52 14.6992 c 128,-1,17
 1142.24 17.5303 1142.24 17.5303 1042.33 92.0068 c 1,18,19
 843.177 -35.8066 843.177 -35.8066 600.647 -3.52051 c 0,20,21
 418.217 20.7656 418.217 20.7656 292.261 133.09 c 0,22,23
 226.344 191.873 226.344 191.873 187.959 268.644 c 0,24,25
 60.7627 523.041 60.7627 523.041 117.504 726.631 c 0,26,27
 160.262 880.05 160.262 880.05 294.297 948.481 c 128,-1,28
 428.332 1016.91 428.332 1016.91 585.908 946.919 c 0,29,30
 671.219 909.024 671.219 909.024 745.092 832.482 c 0,31,32
 755.861 821.322 755.861 821.322 767.243 805.554 c 1,33,34
 768.034 809.441 768.034 809.441 768.954 812.447 c 0,35,36
 823.126 989.324 823.126 989.324 950.396 1030.12 c 1,37,38
 1070.36 1065.2 1070.36 1065.2 1176.13 974.365 c 128,-1,39
 1281.89 883.532 1281.89 883.532 1309.71 716.807 c 0,40,41
 1328.32 605.225 1328.32 605.225 1304.28 489.935 c 0,42,43
 1265.38 303.33 1265.38 303.33 1147.89 178.527 c 1,0,1
810.998 731.592 m 1,44,45
 840.953 673.215 840.953 673.215 868.446 607.798 c 0,46,47
 969.524 367.293 969.524 367.293 1051.18 265.475 c 1,48,49
 1145.16 363.642 1145.16 363.642 1175.71 510.209 c 0,50,51
 1196.08 607.887 1196.08 607.887 1178.75 711.759 c 128,-1,52
 1161.42 815.631 1161.42 815.631 1098.17 869.952 c 128,-1,53
 1034.92 924.272 1034.92 924.272 990.079 906.323 c 1,54,55
 927.525 886.272 927.525 886.272 893.256 774.381 c 0,56,57
 885.492 749.032 885.492 749.032 861.076 736.383 c 128,-1,58
 836.66 723.732 836.66 723.732 810.998 731.592 c 1,44,45
947.74 186.676 m 1,59,60
 855.628 302.73 855.628 302.73 770.775 504.658 c 128,-1,61
 685.923 706.586 685.923 706.586 640.602 753.547 c 128,-1,62
 595.28 800.508 595.28 800.508 533.133 828.113 c 0,63,64
 432.224 872.938 432.224 872.938 351.2 831.57 c 128,-1,65
 270.176 790.204 270.176 790.204 242.73 691.729 c 0,66,67
 199.436 536.385 199.436 536.385 304.234 326.782 c 0,68,69
 359.593 216.061 359.593 216.061 485.733 161.395 c 128,-1,70
 611.875 106.729 611.875 106.729 734.659 121.176 c 128,-1,71
 857.443 135.623 857.443 135.623 947.74 186.676 c 1,59,60
EndSplineSet
EndChar

StartChar: r3
Encoding: 81 3376 81
Width: 1393
GlyphClass: 2
Flags: MW
LayerCount: 2
Fore
SplineSet
1266.18 413.158 m 1,0,1
 1176.45 166.841 1176.45 166.841 1026.36 68.0181 c 128,-1,2
 876.27 -30.8047 876.27 -30.8047 744.757 21.3032 c 128,-1,3
 613.245 73.4111 613.245 73.4111 565.341 235.643 c 0,4,5
 513.227 412.126 513.227 412.126 568.638 568.479 c 0,6,7
 614.639 698.277 614.639 698.277 741.969 785.07 c 0,8,9
 827.273 843.216 827.273 843.216 953.612 871.592 c 1,10,11
 864.778 897.861 864.778 897.861 748.879 888.035 c 0,12,13
 563.158 872.29 563.158 872.29 414.173 773.018 c 128,-1,14
 265.188 673.745 265.188 673.745 236.461 531.594 c 0,15,16
 197.335 337.964 197.335 337.964 401.649 110.88 c 0,17,18
 419.415 91.1299 419.415 91.1299 417.98 63.9883 c 128,-1,19
 416.546 36.8457 416.546 36.8457 396.805 19.084 c 128,-1,20
 377.067 1.32129 377.067 1.32129 349.921 2.75195 c 128,-1,21
 322.774 4.18262 322.774 4.18262 305.009 23.9287 c 0,22,23
 56.958 299.623 56.958 299.623 109.037 557.344 c 0,24,25
 148.402 752.145 148.402 752.145 333.642 875.574 c 128,-1,26
 518.881 999.003 518.881 999.003 744.225 1018.11 c 128,-1,27
 969.568 1037.21 969.568 1037.21 1122.31 934.763 c 0,28,29
 1364.5 772.317 1364.5 772.317 1266.18 413.158 c 1,0,1
1116.11 764.057 m 1,30,31
 1108.32 761.596 1108.32 761.596 1058.43 758.389 c 128,-1,32
 1008.53 755.182 1008.53 755.182 935.205 732.328 c 0,33,34
 804.565 691.614 804.565 691.614 741.588 611.351 c 0,35,36
 631.411 470.933 631.411 470.933 694.531 257.177 c 0,37,38
 719.993 170.948 719.993 170.948 790.633 142.959 c 128,-1,39
 861.273 114.97 861.273 114.97 946.315 170.963 c 0,40,41
 1068.09 251.141 1068.09 251.141 1142.2 452.625 c 1,42,43
 1196.21 652.999 1196.21 652.999 1116.11 764.057 c 1,30,31
EndSplineSet
EndChar

StartChar: rh
Encoding: 82 3377 82
Width: 1142
GlyphClass: 2
Flags: MW
LayerCount: 2
Fore
SplineSet
312.34 5.24316 m 132,-1,1
 288.412 -6.26953 288.412 -6.26953 262.757 2.71777 c 132,-1,2
 237.102 11.7051 237.102 11.7051 225.588 35.6416 c 4,3,4
 36.1367 429.498 36.1367 429.498 132.476 704.198 c 4,5,6
 197.058 888.348 197.058 888.348 362.155 967.984 c 132,-1,7
 527.253 1047.62 527.253 1047.62 700.817 1007.82 c 132,-1,8
 874.38 968.014 874.38 968.014 968.017 828.582 c 4,9,10
 1096.07 637.902 1096.07 637.902 1004.48 356.317 c 4,11,12
 950.211 189.486 950.211 189.486 818.96 4.41309 c 4,13,14
 803.598 -17.248 803.598 -17.248 776.803 -21.8096 c 132,-1,15
 750.009 -26.3721 750.009 -26.3721 728.338 -11.0078 c 132,-1,16
 706.672 4.35742 706.672 4.35742 702.113 31.1562 c 132,-1,17
 697.555 57.9561 697.555 57.9561 712.917 79.6143 c 4,18,19
 832.731 248.56 832.731 248.56 880.853 396.525 c 4,20,21
 952.87 617.974 952.87 617.974 860.099 756.101 c 4,22,23
 795.373 852.469 795.373 852.469 668.822 881.498 c 132,-1,24
 542.271 910.527 542.271 910.527 422.109 852.568 c 132,-1,25
 301.948 794.608 301.948 794.608 255.15 661.175 c 4,26,27
 176.637 437.312 176.637 437.312 342.738 91.9951 c 4,28,29
 354.251 68.0547 354.251 68.0547 345.261 42.4043 c 132,-1,0
 336.271 16.7549 336.271 16.7549 312.34 5.24316 c 132,-1,1
EndSplineSet
EndChar

StartChar: l3
Encoding: 83 3378 83
Width: 1648
GlyphClass: 2
Flags: MW
LayerCount: 2
Fore
SplineSet
240.232 447.579 m 132,-1,1
 239.199 474.114 239.199 474.114 257.655 494.07 c 132,-1,2
 276.111 514.025 276.111 514.025 302.653 515.06 c 4,3,4
 524.449 523.696 524.449 523.696 664.068 559.407 c 132,-1,5
 803.688 595.118 803.688 595.118 849.471 644.674 c 4,6,7
 870.767 667.724 870.767 667.724 871.076 684.846 c 132,-1,8
 871.387 701.967 871.387 701.967 844.893 739.646 c 4,9,10
 788.215 820.256 788.215 820.256 642.776 866.884 c 132,-1,11
 497.336 913.513 497.336 913.513 374.494 882.995 c 4,12,13
 325.501 870.824 325.501 870.824 291.304 835.499 c 132,-1,14
 257.107 800.174 257.107 800.174 247.612 743.617 c 5,15,16
 204.819 391.381 204.819 391.381 261.379 259.27 c 4,17,18
 293.838 183.458 293.838 183.458 349.198 158.215 c 132,-1,19
 404.559 132.973 404.559 132.973 478.384 129.6 c 132,-1,20
 552.209 126.227 552.209 126.227 747.459 115.644 c 132,-1,21
 942.71 105.061 942.71 105.061 1060.48 114.575 c 4,22,23
 1261.82 130.84 1261.82 130.84 1341.22 221.25 c 4,24,25
 1452.32 347.747 1452.32 347.747 1400.67 718.223 c 5,26,27
 1384.6 822.214 1384.6 822.214 1354.63 946.699 c 4,28,29
 1348.41 972.518 1348.41 972.518 1362.59 995.706 c 132,-1,30
 1376.77 1018.89 1376.77 1018.89 1402.6 1025.11 c 132,-1,31
 1428.42 1031.33 1428.42 1031.33 1451.61 1017.14 c 132,-1,32
 1474.79 1002.96 1474.79 1002.96 1481.01 977.14 c 4,33,34
 1631.02 354.217 1631.02 354.217 1438.9 135.468 c 4,35,36
 1324.76 5.50098 1324.76 5.50098 1070.95 -15.0029 c 4,37,38
 944.43 -25.2246 944.43 -25.2246 745.091 -14.4189 c 132,-1,39
 545.753 -3.61426 545.753 -3.61426 491.14 -1.11914 c 4,40,41
 287.446 8.18945 287.446 8.18945 205.825 103.242 c 132,-1,42
 124.203 198.296 124.203 198.296 106.183 354.393 c 132,-1,43
 88.1621 510.489 88.1621 510.489 118.877 761.881 c 5,44,45
 134.764 860.699 134.764 860.699 196.385 924.354 c 4,46,47
 302.652 1034.13 302.652 1034.13 491.348 1024.47 c 132,-1,48
 680.043 1014.82 680.043 1014.82 827.748 924.138 c 4,49,50
 999.842 818.468 999.842 818.468 997.459 682.088 c 4,51,52
 996.234 611.959 996.234 611.959 944.955 556.454 c 4,53,54
 868.63 473.841 868.63 473.841 712.315 434.333 c 132,-1,55
 556 394.826 556 394.826 307.713 385.157 c 4,56,57
 281.171 384.124 281.171 384.124 261.218 402.584 c 132,-1,0
 241.266 421.043 241.266 421.043 240.232 447.579 c 132,-1,1
EndSplineSet
EndChar

StartChar: lh
Encoding: 84 3379 84
Width: 1401
GlyphClass: 2
Flags: MW
LayerCount: 2
Fore
SplineSet
277.767 480.814 m 132,-1,1
 276.043 507.314 276.043 507.314 293.975 527.743 c 132,-1,2
 311.906 548.173 311.906 548.173 338.411 549.896 c 4,3,4
 410.521 554.584 410.521 554.584 477.944 529.878 c 4,5,6
 591.484 488.273 591.484 488.273 663.89 386.875 c 4,7,8
 736.295 285.476 736.295 285.476 702.504 161.836 c 4,9,10
 684.763 96.9209 684.763 96.9209 631.583 53.3008 c 4,11,12
 542.511 -19.7588 542.511 -19.7588 410.461 7.16016 c 132,-1,13
 278.411 34.0791 278.411 34.0791 190.396 161.516 c 132,-1,14
 102.382 288.951 102.382 288.951 107.534 484.137 c 5,15,16
 107.076 788.592 107.076 788.592 366.668 931.894 c 4,17,18
 513.503 1012.95 513.503 1012.95 694.903 1002.88 c 132,-1,19
 876.142 992.82 876.142 992.82 1014.31 891.754 c 4,20,21
 1087.04 838.553 1087.04 838.553 1136.14 764.86 c 4,22,23
 1138.25 761.686 1138.25 761.686 1139.98 758.282 c 4,24,25
 1192.61 655.072 1192.61 655.072 1167.14 561.869 c 132,-1,26
 1141.67 468.666 1141.67 468.666 1044.03 408.56 c 5,27,28
 1199.05 356.345 1199.05 356.345 1266.73 262.946 c 4,29,30
 1307.32 205.984 1307.32 205.984 1308.49 141.905 c 132,-1,31
 1309.65 77.8252 1309.65 77.8252 1272.19 20.0029 c 4,32,33
 1205.48 -84.3867 1205.48 -84.3867 1055.14 -131.277 c 4,34,35
 981.355 -154.288 981.355 -154.288 837.297 -159.396 c 132,-1,36
 693.238 -164.503 693.238 -164.503 582.567 -176.414 c 4,37,38
 316.093 -205.648 316.093 -205.648 235.451 -297.511 c 4,39,40
 225.146 -309.249 225.146 -309.249 227.948 -312.483 c 132,-1,41
 230.75 -315.717 230.75 -315.717 234.476 -322.573 c 132,-1,42
 238.2 -329.431 238.2 -329.431 269.54 -344.58 c 132,-1,43
 300.88 -359.73 300.88 -359.73 386.891 -371.652 c 132,-1,44
 472.902 -383.574 472.902 -383.574 647.929 -356.097 c 4,45,46
 822.956 -328.62 822.956 -328.62 1195.01 -334.854 c 4,47,48
 1567.06 -341.089 1567.06 -341.089 1742.38 -325.739 c 4,49,50
 1768.84 -323.423 1768.84 -323.423 1789.66 -340.893 c 132,-1,51
 1810.49 -358.363 1810.49 -358.363 1812.8 -384.823 c 132,-1,52
 1815.12 -411.284 1815.12 -411.284 1797.65 -432.105 c 132,-1,53
 1780.18 -452.928 1780.18 -452.928 1753.72 -455.244 c 4,54,55
 1571.66 -471.184 1571.66 -471.184 1201.84 -464.987 c 4,56,57
 832.015 -458.79 832.015 -458.79 653.049 -486.886 c 132,-1,58
 474.083 -514.98 474.083 -514.98 342.237 -496.705 c 4,59,60
 168.012 -472.556 168.012 -472.556 116.697 -378.104 c 5,61,62
 78.3809 -310.522 78.3809 -310.522 122.299 -236.396 c 4,63,64
 211.183 -86.3779 211.183 -86.3779 568.517 -47.1758 c 4,65,66
 683.968 -34.75 683.968 -34.75 821.64 -29.8691 c 132,-1,67
 959.311 -24.9883 959.311 -24.9883 1016.43 -7.17285 c 4,68,69
 1121.48 25.5918 1121.48 25.5918 1162.64 90.0078 c 4,70,71
 1181.11 119.101 1181.11 119.101 1180.74 139.614 c 132,-1,72
 1180.37 160.129 1180.37 160.129 1154.42 196.162 c 132,-1,73
 1128.47 232.195 1128.47 232.195 1037.11 272.05 c 4,74,75
 945.754 311.905 945.754 311.905 813.416 327.549 c 4,76,77
 767.774 333.083 767.774 333.083 758.172 377.065 c 4,78,79
 748.569 421.048 748.569 421.048 789.306 455.032 c 4,80,81
 803.074 466.52 803.074 466.52 813.213 463.624 c 132,-1,82
 823.352 460.729 823.352 460.729 824.916 461.135 c 4,83,84
 1013.77 510.133 1013.77 510.133 1043.57 584.923 c 4,85,86
 1060.84 628.288 1060.84 628.288 1025.8 695.976 c 5,87,88
 913.458 860.551 913.458 860.551 688.797 873.021 c 4,89,90
 464.135 885.49 464.135 885.49 328.576 740.003 c 4,91,92
 237.005 641.726 237.005 641.726 237.539 482.535 c 5,93,94
 233.233 328.249 233.233 328.249 294.438 239.629 c 132,-1,95
 355.644 151.009 355.644 151.009 431.764 135.491 c 132,-1,96
 507.883 119.974 507.883 119.974 549.137 153.812 c 4,97,98
 572.188 172.721 572.188 172.721 579.166 198.224 c 4,99,100
 602.468 283.391 602.468 283.391 506.557 366.694 c 4,101,102
 438.147 426.109 438.147 426.109 346.848 420.17 c 4,103,104
 320.343 418.446 320.343 418.446 299.916 436.381 c 132,-1,0
 279.49 454.314 279.49 454.314 277.767 480.814 c 132,-1,1
EndSplineSet
EndChar

StartChar: zh
Encoding: 85 3380 85
Width: 1260
GlyphClass: 2
Flags: MW
AnchorPoint: "dotreph" 600 1234 basechar 0
AnchorPoint: "chandrakkala" 1118 10 basechar 0
LayerCount: 2
Fore
SplineSet
924.899 422.489 m 5,0,1
 955.314 394.265 955.314 394.265 976.827 356.985 c 4,2,3
 1027.67 268.888 1027.67 268.888 1004.82 175.522 c 4,4,5
 977.785 65.0303 977.785 65.0303 838.635 22.3867 c 4,6,7
 733.087 -9.95996 733.087 -9.95996 617.372 15.3018 c 132,-1,8
 501.658 40.5635 501.658 40.5635 446.204 97.0972 c 132,-1,9
 390.751 153.631 390.751 153.631 382.942 221.183 c 4,10,11
 379.892 247.562 379.892 247.562 396.776 268.865 c 132,-1,12
 413.662 290.167 413.662 290.167 440.048 293.218 c 132,-1,13
 466.434 296.268 466.434 296.268 487.732 279.38 c 132,-1,14
 509.032 262.492 509.032 262.492 512.985 236.562 c 4,15,16
 523.213 169.482 523.213 169.482 636.677 144.15 c 5,17,18
 790.521 118.549 790.521 118.549 862.875 179.933 c 5,19,20
 905.5 217.945 905.5 217.945 862.476 296.196 c 5,21,22
 838.744 335.013 838.744 335.013 765.207 376.553 c 5,23,24
 622.816 349.508 622.816 349.508 476.85 363.303 c 5,25,26
 213.047 392.453 213.047 392.453 114.687 558.386 c 5,27,28
 77.9785 622.539 77.9785 622.539 84.771 694.315 c 132,-1,29
 91.5635 766.09 91.5635 766.09 112.676 818.072 c 132,-1,30
 133.788 870.056 133.788 870.056 150.608 906.044 c 132,-1,31
 167.428 942.032 167.428 942.032 174.731 958.23 c 132,-1,32
 182.035 974.429 182.035 974.429 207.46 984.049 c 132,-1,33
 232.884 993.67 232.884 993.67 257.09 982.751 c 132,-1,34
 281.298 971.835 281.298 971.835 290.921 946.415 c 132,-1,35
 300.543 920.995 300.543 920.995 293.057 904.392 c 132,-1,36
 285.57 887.789 285.57 887.789 254.357 820.996 c 4,37,38
 191.545 686.586 191.545 686.586 227.031 623.807 c 5,39,40
 302.228 497.817 302.228 497.817 543.387 489.188 c 5,41,42
 464.252 539.887 464.252 539.887 425.297 596.712 c 4,43,44
 422.59 600.662 422.59 600.662 420.49 604.966 c 4,45,46
 356.795 735.521 356.795 735.521 423.086 854.113 c 4,47,48
 474.012 945.217 474.012 945.217 595.639 997.553 c 132,-1,49
 717.266 1049.89 717.266 1049.89 860.193 1051.82 c 132,-1,50
 1003.12 1053.76 1003.12 1053.76 1085.15 1003.4 c 132,-1,51
 1167.18 953.03 1167.18 953.03 1192.48 875.901 c 4,52,53
 1240.21 730.38 1240.21 730.38 1137.86 580.192 c 4,54,55
 1084.25 501.516 1084.25 501.516 1028.75 471.531 c 132,-1,56
 973.242 441.547 973.242 441.547 924.899 422.489 c 5,0,1
783.045 513.473 m 5,57,58
 873.874 536.016 873.874 536.016 954.721 579.305 c 5,59,60
 999.197 607.557 999.197 607.557 1031.12 654.41 c 4,61,62
 1096.73 750.688 1096.73 750.688 1069.89 832.521 c 4,63,64
 1058.8 866.342 1058.8 866.342 1027.51 886.262 c 5,65,66
 923.51 942.247 923.51 942.247 754 911.5 c 4,67,68
 656.273 893.773 656.273 893.773 589.982 845.62 c 4,69,70
 487.004 770.818 487.004 770.818 535.211 666.411 c 5,71,72
 576.182 610.562 576.182 610.562 681.314 561.253 c 4,73,74
 697.779 553.53 697.779 553.53 722.918 541.703 c 132,-1,75
 748.056 529.875 748.056 529.875 783.045 513.473 c 5,57,58
EndSplineSet
EndChar

StartChar: v1
Encoding: 86 3381 86
Width: 1692
GlyphClass: 2
Flags: MW
LayerCount: 2
Fore
SplineSet
450.499 12.4121 m 128,-1,1
 431.462 -6.09961 431.462 -6.09961 404.28 -5.71777 c 128,-1,2
 377.099 -5.33691 377.099 -5.33691 358.584 13.709 c 0,3,4
 118.222 260.952 118.222 260.952 101.197 498.553 c 0,5,6
 91.6141 632.316 91.6141 632.316 159.666 742.707 c 128,-1,7
 227.717 853.098 227.717 853.098 346.822 919.782 c 0,8,9
 524.944 1019.51 524.944 1019.51 784.064 978.057 c 0,10,11
 970.23 948.274 970.23 948.274 1065.57 841.324 c 128,-1,12
 1160.9 734.373 1160.9 734.373 1160.02 590.39 c 128,-1,13
 1159.15 446.407 1159.15 446.407 1092.62 322.625 c 128,-1,14
 1026.1 198.843 1026.1 198.843 937.557 116.285 c 1,15,16
 1182.52 111.344 1182.52 111.344 1292.48 112.546 c 1,17,18
 1384.73 126.458 1384.73 126.458 1423.06 181.786 c 128,-1,19
 1461.39 237.113 1461.39 237.113 1462.13 303.606 c 0,20,21
 1463.64 438.014 1463.64 438.014 1449.77 512.51 c 128,-1,22
 1435.89 587.007 1435.89 587.007 1427.81 643.126 c 128,-1,23
 1419.74 699.245 1419.74 699.245 1406.4 776.892 c 128,-1,24
 1393.06 854.539 1393.06 854.539 1409.88 942.645 c 0,25,26
 1414.86 968.73 1414.86 968.73 1437.34 984.008 c 128,-1,27
 1459.82 999.286 1459.82 999.286 1485.91 994.308 c 128,-1,28
 1512 989.329 1512 989.329 1527.28 966.845 c 128,-1,29
 1542.55 944.359 1542.55 944.359 1533.87 898.838 c 128,-1,30
 1525.18 853.316 1525.18 853.316 1536.67 786.429 c 128,-1,31
 1548.16 719.542 1548.16 719.542 1556.17 663.86 c 128,-1,32
 1564.18 608.178 1564.18 608.178 1578.98 528.737 c 128,-1,33
 1593.78 449.295 1593.78 449.295 1592.7 353.76 c 0,34,35
 1588.98 22.0787 1588.98 22.0787 1306.32 -16.7939 c 0,36,37
 1247.94 -24.83 1247.94 -24.83 734.196 -8.34375 c 0,38,39
 694.131 -7.05753 694.131 -7.05753 680.136 23.1797 c 0,40,41
 649.992 88.3064 649.992 88.3064 723.62 122.388 c 0,42,43
 816.961 165.595 816.961 165.595 898.549 263.438 c 128,-1,44
 980.137 361.281 980.137 361.281 1012.64 470.503 c 128,-1,45
 1045.14 579.725 1045.14 579.725 1018.29 669.227 c 128,-1,46
 991.45 758.73 991.45 758.73 886.43 814.032 c 128,-1,47
 781.411 869.335 781.411 869.335 576.435 856.247 c 0,48,49
 444.056 847.797 444.056 847.797 334.081 752.85 c 0,50,51
 268.299 696.054 268.299 696.054 240.713 605.204 c 128,-1,52
 213.126 514.353 213.126 514.353 257.748 386.191 c 128,-1,53
 302.371 258.03 302.371 258.03 451.796 104.326 c 0,54,55
 470.311 85.2783 470.311 85.2783 469.925 58.1006 c 128,-1,0
 469.54 30.9229 469.54 30.9229 450.499 12.4121 c 128,-1,1
EndSplineSet
EndChar

StartChar: z1
Encoding: 87 3382 87
Width: 1728
GlyphClass: 2
Flags: MW
LayerCount: 2
Fore
SplineSet
1169.66 990.58 m 0,0,1
 1275.43 980.254 1275.43 980.254 1351.12 942.945 c 128,-1,2
 1426.81 905.636 1426.81 905.636 1456.17 879.678 c 128,-1,3
 1485.54 853.72 1485.54 853.72 1496.67 844.964 c 128,-1,4
 1507.8 836.208 1507.8 836.208 1514.3 825.425 c 1,5,6
 1681.17 647.566 1681.17 647.566 1604.44 371.466 c 128,-1,7
 1527.71 95.3652 1527.71 95.3652 1370 2.22656 c 1,8,9
 1270.45 -55.3428 1270.45 -55.3428 1157.36 -1.53418 c 0,10,11
 1067.61 41.167 1067.61 41.167 1015.51 167.095 c 128,-1,12
 963.404 293.021 963.404 293.021 973.439 439.607 c 128,-1,13
 983.475 586.194 983.475 586.194 1045.35 694.314 c 128,-1,14
 1107.23 802.435 1107.23 802.435 1188.59 857.099 c 1,15,16
 1023.37 884.013 1023.37 884.013 901.738 793.482 c 128,-1,17
 780.103 702.951 780.103 702.951 779.984 490.209 c 128,-1,18
 779.867 277.467 779.867 277.467 687.049 136.183 c 128,-1,19
 594.23 -5.10156 594.23 -5.10156 459.437 -25.377 c 0,20,21
 389.242 -35.9355 389.242 -35.9355 324.099 -4.5918 c 0,22,23
 114.168 96.417 114.168 96.417 100.344 483.383 c 0,24,25
 96.4883 591.305 96.4883 591.305 135.92 731.932 c 128,-1,26
 175.353 872.559 175.353 872.559 233.588 964.014 c 0,27,28
 247.855 986.418 247.855 986.418 274.394 992.306 c 128,-1,29
 300.933 998.193 300.933 998.193 323.329 983.929 c 128,-1,30
 345.729 969.665 345.729 969.665 351.619 943.131 c 128,-1,31
 357.51 916.597 357.51 916.597 343.244 894.188 c 0,32,33
 295.331 818.942 295.331 818.942 264.335 708.396 c 128,-1,34
 233.327 597.812 233.327 597.812 230.331 486.092 c 1,35,36
 241.833 179.256 241.833 179.256 378.387 113.553 c 0,37,38
 440.606 83.6152 440.606 83.6152 517.012 138.92 c 128,-1,39
 593.417 194.225 593.417 194.225 629.383 328.233 c 0,40,41
 649.355 402.646 649.355 402.646 648.801 489.923 c 0,42,43
 650.092 768.243 650.092 768.243 832.399 903.93 c 0,44,45
 974.433 1009.64 974.433 1009.64 1169.66 990.58 c 0,0,1
1409.55 746.653 m 0,46,47
 1382.44 773.27 1382.44 773.27 1332.48 774.221 c 128,-1,48
 1282.52 775.173 1282.52 775.173 1236.91 731.394 c 0,49,50
 1116.99 616.29 1116.99 616.29 1104.75 438.054 c 128,-1,51
 1092.51 259.817 1092.51 259.817 1173.29 151.309 c 0,52,53
 1206.7 106.427 1206.7 106.427 1256.42 102.896 c 128,-1,54
 1306.13 99.3643 1306.13 99.3643 1370.82 172.396 c 128,-1,55
 1435.52 245.428 1435.52 245.428 1482.92 423.799 c 1,56,57
 1540.51 617.734 1540.51 617.734 1409.55 746.653 c 0,46,47
EndSplineSet
EndChar

StartChar: sh
Encoding: 88 3383 88
Width: 1885
GlyphClass: 2
Flags: MW
LayerCount: 2
Fore
SplineSet
657.733 121.757 m 1,0,-1
 1096.45 116.031 l 1,1,2
 1239.34 319.939 1239.34 319.939 1312.77 459.98 c 1,3,4
 1076.2 544.751 1076.2 544.751 1021.66 690.11 c 128,-1,5
 967.12 835.47 967.12 835.47 1072.53 970.602 c 0,6,7
 1150.83 1070.97 1150.83 1070.97 1282.85 1118.48 c 128,-1,8
 1414.87 1166 1414.87 1166 1507.56 1091.26 c 0,9,10
 1672.68 958.119 1672.68 958.119 1494.57 539.944 c 1,11,12
 1632.09 475.782 1632.09 475.782 1711.2 377.38 c 0,13,14
 1818.97 243.339 1818.97 243.339 1769.6 137.457 c 0,15,16
 1686.76 -40.208 1686.76 -40.208 1250.76 -19.0781 c 0,17,18
 1122.23 -12.8474 1122.23 -12.8474 868.916 -10.7586 c 128,-1,19
 615.599 -8.66992 615.599 -8.66992 515.012 -4.68652 c 0,20,21
 489.854 -3.69043 489.854 -3.69043 471.442 14.4751 c 128,-1,22
 453.03 32.6406 453.03 32.6406 452.847 59.8252 c 128,-1,23
 452.662 87.0107 452.662 87.0107 471.312 105.913 c 0,24,25
 609.069 245.541 609.069 245.541 619.522 333.39 c 0,26,27
 622.603 361.431 622.603 361.431 614.266 374.903 c 128,-1,28
 605.929 388.376 605.929 388.376 575.399 400.832 c 0,29,30
 505.384 429.396 505.384 429.396 402.008 402.482 c 128,-1,31
 298.633 375.568 298.633 375.568 253.201 310.318 c 0,32,33
 195.995 228.155 195.995 228.155 279.341 107.909 c 0,34,35
 294.473 86.0752 294.473 86.0752 289.623 59.3311 c 128,-1,36
 284.774 32.5869 284.774 32.5869 262.949 17.459 c 128,-1,37
 241.128 2.33008 241.128 2.33008 214.379 7.1748 c 128,-1,38
 187.631 12.0205 187.631 12.0205 172.499 33.8506 c 0,39,40
 87.3189 156.735 87.3189 156.735 102.319 272.38 c 0,41,42
 110.09 332.287 110.09 332.287 146.515 384.601 c 0,43,44
 219.394 489.271 219.394 489.271 366.929 527.683 c 128,-1,45
 514.465 566.094 514.465 566.094 624.505 521.2 c 0,46,47
 689.251 494.786 689.251 494.786 722.718 440.853 c 0,48,49
 802.05 313.005 802.05 313.005 657.733 121.757 c 1,0,-1
1369.38 577.899 m 1,50,51
 1448.2 759.293 1448.2 759.293 1454.28 860.809 c 128,-1,52
 1460.35 962.325 1460.35 962.325 1425.25 990.63 c 128,-1,53
 1390.15 1018.94 1390.15 1018.94 1310.18 990.157 c 128,-1,54
 1230.22 961.379 1230.22 961.379 1185.96 904.65 c 128,-1,55
 1141.71 847.921 1141.71 847.921 1134.03 811.646 c 128,-1,56
 1126.35 775.37 1126.35 775.37 1140.3 742.292 c 1,57,58
 1177.75 643.582 1177.75 643.582 1369.38 577.899 c 1,50,51
1439.54 422.168 m 1,59,60
 1371.07 287.547 1371.07 287.547 1251.03 111.057 c 1,61,62
 1254.27 110.904 1254.27 110.904 1323.5 107.549 c 128,-1,63
 1392.73 104.194 1392.73 104.194 1483.34 116.882 c 0,64,65
 1726.47 150.923 1726.47 150.923 1623.62 278.849 c 0,66,67
 1549.72 370.756 1549.72 370.756 1439.54 422.168 c 1,59,60
EndSplineSet
EndChar

StartChar: s1
Encoding: 89 3384 89
Width: 2301
GlyphClass: 2
Flags: MW
LayerCount: 2
Fore
SplineSet
1462.42 383.444 m 1,0,1
 1501.01 552.405 1501.01 552.405 1477.91 678.602 c 128,-1,2
 1454.8 804.798 1454.8 804.798 1377.78 847.117 c 128,-1,3
 1300.76 889.436 1300.76 889.436 1202.22 844.354 c 128,-1,4
 1103.68 799.271 1103.68 799.271 1031.61 660.053 c 0,5,6
 980.637 561.579 980.637 561.579 958.702 438.907 c 1,7,8
 989.1 246.829 989.1 246.829 954.796 30.9277 c 0,9,10
 950.629 4.70312 950.629 4.70312 928.627 -11.2656 c 128,-1,11
 906.626 -27.2344 906.626 -27.2344 882.793 -23.4478 c 128,-1,12
 858.96 -19.6611 858.96 -19.6611 844.042 -2.97656 c 128,-1,13
 829.125 13.707 829.125 13.707 826.223 32.0918 c 0,14,15
 798.525 256.941 798.525 256.941 826.881 438.73 c 1,16,17
 791.4 634.543 791.4 634.543 690.129 749.443 c 128,-1,18
 588.858 864.344 588.858 864.344 486.384 875.6 c 128,-1,19
 383.91 886.856 383.91 886.856 318.288 811.038 c 0,20,21
 215.293 692.045 215.293 692.045 232.392 427.305 c 0,22,23
 243.598 253.788 243.598 253.788 365.851 118.906 c 0,24,25
 387.202 95.3486 387.202 95.3486 403.667 84.4741 c 128,-1,26
 420.133 73.5996 420.133 73.5996 425.577 46.9658 c 128,-1,27
 431.021 20.333 431.021 20.333 416.385 -1.82227 c 128,-1,28
 401.75 -23.9814 401.75 -23.9814 375.121 -29.4287 c 0,29,30
 313.655 -42.0024 313.655 -42.0024 213.746 101.956 c 128,-1,31
 113.838 245.915 113.838 245.915 102.662 418.926 c 0,32,33
 82.1279 736.836 82.1279 736.836 219.995 896.117 c 0,34,35
 330.106 1023.33 330.106 1023.33 491.672 1005.62 c 128,-1,36
 653.239 987.907 653.239 987.907 779.045 845.17 c 0,37,38
 847.495 767.507 847.495 767.507 891.976 668.813 c 1,39,40
 987.601 889.123 987.601 889.123 1157.4 966.809 c 0,41,42
 1306.09 1034.84 1306.09 1034.84 1438.76 961.944 c 128,-1,43
 1571.42 889.052 1571.42 889.052 1606.73 698.191 c 0,44,45
 1633.6 549.832 1633.6 549.832 1589.7 356.851 c 1,46,47
 1559.76 196.994 1559.76 196.994 1629.89 138.484 c 0,48,49
 1682.94 94.2148 1682.94 94.2148 1784.1 118.049 c 128,-1,50
 1885.25 141.883 1885.25 141.883 1966.45 234.233 c 128,-1,51
 2047.65 326.584 2047.65 326.584 2065.46 448.49 c 0,52,53
 2096.96 664.172 2096.96 664.172 1950.24 903.614 c 0,54,55
 1936.37 926.254 1936.37 926.254 1942.71 952.688 c 128,-1,56
 1949.06 979.12 1949.06 979.12 1971.7 992.998 c 128,-1,57
 1994.36 1006.88 1994.36 1006.88 2020.78 1000.53 c 128,-1,58
 2047.21 994.179 2047.21 994.179 2061.09 971.536 c 0,59,60
 2232.4 691.958 2232.4 691.958 2194.09 429.697 c 0,61,62
 2170.72 269.677 2170.72 269.677 2063.09 147.272 c 128,-1,63
 1955.47 24.8672 1955.47 24.8672 1802.5 -11.1743 c 128,-1,64
 1649.53 -47.2158 1649.53 -47.2158 1546.6 38.666 c 0,65,66
 1417.59 146.312 1417.59 146.312 1462.42 383.444 c 1,0,1
EndSplineSet
EndChar

StartChar: h1
Encoding: 90 3385 90
Width: 2220
GlyphClass: 2
Flags: MW
LayerCount: 2
Fore
SplineSet
331.495 39.2578 m 128,-1,1
 313.216 19.9941 313.216 19.9941 286.045 19.2803 c 128,-1,2
 258.874 18.5664 258.874 18.5664 239.604 36.8496 c 0,3,4
 46.2549 220.323 46.2549 220.323 120.691 377.762 c 0,5,6
 170.188 482.45 170.188 482.45 311.094 522.67 c 128,-1,7
 452 562.89 452 562.89 573.352 524.856 c 0,8,9
 637.946 504.611 637.946 504.611 681.021 462.445 c 128,-1,10
 724.096 420.28 724.096 420.28 734.669 359.721 c 0,11,12
 752.084 259.979 752.084 259.979 672.737 139.179 c 1,13,14
 854.125 148.102 854.125 148.102 1151.02 136.437 c 1,15,16
 1017.84 266.251 1017.84 266.251 1023.67 433.935 c 128,-1,17
 1029.49 601.619 1029.49 601.619 1159.2 741.927 c 128,-1,18
 1288.91 882.235 1288.91 882.235 1478.84 936.959 c 0,19,20
 1576.17 965 1576.17 965 1676.34 965 c 0,21,22
 1679.29 965 1679.29 965 1682.22 964.733 c 0,23,24
 2036.29 932.552 2036.29 932.552 2106.64 669.278 c 0,25,26
 2143.05 533.012 2143.05 533.012 2086.86 362.174 c 128,-1,27
 2030.66 191.337 2030.66 191.337 1920.25 44.8721 c 0,28,29
 1904.27 23.666 1904.27 23.666 1877.34 19.8867 c 128,-1,30
 1850.44 16.1074 1850.44 16.1074 1829.21 32.0957 c 128,-1,31
 1808 48.084 1808 48.084 1804.24 75.0049 c 128,-1,32
 1800.46 101.926 1800.46 101.926 1816.45 123.128 c 0,33,34
 1966.28 321.899 1966.28 321.899 1988.75 522.729 c 0,35,36
 2002.34 644.196 2002.34 644.196 1932.71 730.606 c 128,-1,37
 1863.08 817.015 1863.08 817.015 1673.42 834.993 c 1,38,39
 1507.96 833.973 1507.96 833.973 1374.49 751.84 c 128,-1,40
 1241.02 669.707 1241.02 669.707 1184.41 552.946 c 128,-1,41
 1127.79 436.185 1127.79 436.185 1173.97 323.681 c 0,42,43
 1195.86 270.392 1195.86 270.392 1256.36 215.938 c 128,-1,44
 1316.87 161.484 1316.87 161.484 1414.02 119.716 c 0,45,46
 1455.37 101.941 1455.37 101.941 1453.71 66.1992 c 128,-1,47
 1452.04 30.458 1452.04 30.458 1431.95 12.1475 c 128,-1,48
 1411.86 -6.16211 1411.86 -6.16211 1385.33 -4.92969 c 2,49,-1
 1361.08 -3.80273 l 1,50,51
 749.014 30.2764 749.014 30.2764 534.66 -4.17676 c 0,52,53
 502.689 -9.31543 502.689 -9.31543 481.432 11.0918 c 128,-1,54
 460.175 31.499 460.175 31.499 459.62 58.6797 c 128,-1,55
 459.066 85.8594 459.066 85.8594 477.455 105.015 c 0,56,57
 663.874 299.201 663.874 299.201 587.54 373.988 c 0,58,59
 572.254 388.964 572.254 388.964 534.471 400.806 c 0,60,61
 450.263 427.199 450.263 427.199 356.397 400.409 c 128,-1,62
 262.531 373.62 262.531 373.62 238.217 322.195 c 0,63,64
 204.008 249.841 204.008 249.841 329.087 131.15 c 0,65,66
 348.355 112.867 348.355 112.867 349.065 85.6924 c 128,-1,0
 349.775 58.5176 349.775 58.5176 331.495 39.2578 c 128,-1,1
EndSplineSet
EndChar

StartChar: avagraha
Encoding: 92 3389 91
Width: 1195
GlyphClass: 2
Flags: MW
LayerCount: 2
Fore
SplineSet
1250 1093 m 1,0,-1
 1130 1042 l 1,1,2
 1116 1154 1116 1154 1005 1154 c 0,3,4
 886 1154 886 1154 865 1014 c 1,5,-1
 773 467 l 1,6,-1
 933 476 l 1,7,-1
 933 346 l 1,8,-1
 752 336 l 1,9,-1
 641 -384 l 5,10,11
 604 -635 604 -635 377 -635 c 4,12,13
 179 -635 179 -635 124 -445 c 5,14,-1
 245 -394 l 5,15,16
 257 -506 257 -506 366 -506 c 4,17,18
 488 -506 488 -506 511 -367 c 5,19,-1
 619 329 l 1,20,-1
 489 322 l 1,21,-1
 489 451 l 1,22,-1
 641 458 l 1,23,-1
 734 1032 l 1,24,25
 773 1282 773 1282 997 1282 c 0,26,27
 1196 1282 1196 1282 1250 1093 c 1,0,-1
EndSplineSet
EndChar

StartChar: a2
Encoding: 93 3390 92
Width: 885
GlyphClass: 2
Flags: MW
LayerCount: 2
Fore
SplineSet
143.769 714.458 m 128,-1,1
 118.683 723.17 118.683 723.17 106.83 747.633 c 128,-1,2
 94.9775 772.095 94.9775 772.095 103.692 797.186 c 0,3,4
 160.693 961.303 160.693 961.303 296.052 1000.55 c 128,-1,5
 431.411 1039.79 431.411 1039.79 563.64 953.069 c 128,-1,6
 695.868 866.352 695.868 866.352 751.635 700.065 c 128,-1,7
 807.401 533.778 807.401 533.778 770.48 331.584 c 0,8,9
 745.121 192.702 745.121 192.702 672.228 101.5 c 128,-1,10
 599.335 10.2969 599.335 10.2969 497.146 -20.2642 c 128,-1,11
 394.957 -50.8252 394.957 -50.8252 294.635 -13.3286 c 128,-1,12
 194.313 24.168 194.313 24.168 135.209 119.381 c 0,13,14
 121.203 141.939 121.203 141.939 127.395 168.409 c 128,-1,15
 133.586 194.878 133.586 194.878 156.153 208.887 c 128,-1,16
 178.725 222.896 178.725 222.896 205.189 216.7 c 128,-1,17
 231.653 210.506 231.653 210.506 245.659 187.943 c 0,18,19
 281.373 130.412 281.373 130.412 340.464 108.326 c 128,-1,20
 399.556 86.2393 399.556 86.2393 461.355 104.721 c 128,-1,21
 523.155 123.202 523.155 123.202 573.137 185.737 c 128,-1,22
 623.119 248.272 623.119 248.272 642.595 354.934 c 0,23,24
 673.501 524.192 673.501 524.192 630.216 653.262 c 128,-1,25
 586.932 782.332 586.932 782.332 498.54 840.301 c 128,-1,26
 410.147 898.27 410.147 898.27 334.021 876.2 c 0,27,28
 261.444 855.16 261.444 855.16 226.497 754.535 c 0,29,30
 217.782 729.443 217.782 729.443 193.318 717.595 c 128,-1,0
 168.855 705.746 168.855 705.746 143.769 714.458 c 128,-1,1
EndSplineSet
EndChar

StartChar: i1
Encoding: 94 3391 93
Width: 521
GlyphClass: 2
Flags: W
LayerCount: 2
Fore
SplineSet
284.339 -308.101 m 0,0,1
 284.339 -334.656 284.339 -334.656 265.12 -353.878 c 128,-1,2
 245.901 -373.101 245.901 -373.101 219.339 -373.101 c 128,-1,3
 192.777 -373.101 192.777 -373.101 173.559 -353.878 c 128,-1,4
 154.339 -334.656 154.339 -334.656 154.339 -308.101 c 0,5,6
 154.339 53.8271 154.339 53.8271 256.681 688.311 c 0,7,8
 297.359 940.708 297.359 940.708 222.616 1119.7 c 0,9,10
 58.0198 1513.87 58.0198 1513.87 -516.229 1103.24 c 0,11,12
 -569.105 1065.43 -569.105 1065.43 -606.909 1118.3 c 128,-1,13
 -644.719 1171.17 -644.719 1171.17 -591.846 1208.98 c 0,14,15
 -25.3448 1614.09 -25.3448 1614.09 253.185 1307.88 c 0,16,17
 353.651 1197.42 353.651 1197.42 384.853 1028.79 c 128,-1,18
 416.055 860.151 416.055 860.151 385.021 667.608 c 0,19,20
 284.339 43.4092 284.339 43.4092 284.339 -308.101 c 0,0,1
EndSplineSet
EndChar

StartChar: i2
Encoding: 95 3392 94
Width: 441
GlyphClass: 2
Flags: MW
LayerCount: 2
Fore
SplineSet
-182.736 1293.01 m 132,-1,1
 -156.879 1286.96 -156.879 1286.96 -142.539 1263.87 c 132,-1,2
 -128.199 1240.78 -128.199 1240.78 -134.248 1214.91 c 4,3,4
 -182.156 1010.08 -182.156 1010.08 -316.904 934.167 c 4,5,6
 -420.329 875.897 -420.329 875.897 -514.822 917.073 c 132,-1,7
 -609.315 958.249 -609.315 958.249 -618.401 1054.79 c 4,8,9
 -631.238 1191.18 -631.238 1191.18 -453.593 1313.19 c 4,10,11
 -192.195 1492.74 -192.195 1492.74 23.623 1429.91 c 4,12,13
 148.402 1393.58 148.402 1393.58 230.918 1274.95 c 132,-1,14
 313.435 1156.33 313.435 1156.33 340.54 993.472 c 132,-1,15
 367.646 830.612 367.646 830.612 339.683 657.108 c 4,16,17
 239 32.9082 239 32.9082 239 -318.601 c 4,18,19
 239 -345.156 239 -345.156 219.781 -364.379 c 132,-1,20
 200.562 -383.601 200.562 -383.601 174 -383.601 c 132,-1,21
 147.438 -383.601 147.438 -383.601 128.219 -364.379 c 132,-1,22
 109 -345.156 109 -345.156 109 -318.601 c 4,23,24
 109 43.3262 109 43.3262 211.341 677.81 c 4,25,26
 247.475 902 247.475 902 181.927 1089.85 c 4,27,28
 144.632 1196.74 144.632 1196.74 70.5352 1259.12 c 132,-1,29
 -3.56152 1321.5 -3.56152 1321.5 -116.249 1315.64 c 132,-1,30
 -228.938 1309.79 -228.938 1309.79 -379.987 1206.04 c 4,31,32
 -494.65 1127.28 -494.65 1127.28 -488.974 1066.97 c 4,33,34
 -487.074 1046.79 -487.074 1046.79 -457.409 1033.86 c 132,-1,35
 -427.745 1020.93 -427.745 1020.93 -380.718 1047.43 c 4,36,37
 -295.731 1095.31 -295.731 1095.31 -260.832 1244.52 c 4,38,39
 -254.782 1270.38 -254.782 1270.38 -231.688 1284.72 c 132,-1,0
 -208.594 1299.06 -208.594 1299.06 -182.736 1293.01 c 132,-1,1
EndSplineSet
EndChar

StartChar: u1
Encoding: 96 3393 95
Width: 639
GlyphClass: 2
Flags: MW
LayerCount: 2
Fore
SplineSet
285.758 31.7867 m 1,0,1
 170.318 -165.002 170.318 -165.002 215.609 -266.771 c 0,2,3
 238.325 -317.815 238.325 -317.815 301.165 -330.637 c 128,-1,4
 364.004 -343.459 364.004 -343.459 404.213 -318.865 c 128,-1,5
 444.422 -294.27 444.422 -294.27 454.775 -275.193 c 128,-1,6
 465.129 -256.117 465.129 -256.117 463.309 -217.96 c 128,-1,7
 461.489 -179.804 461.489 -179.804 421.848 -118.766 c 128,-1,8
 382.207 -57.7292 382.207 -57.7292 300.62 13.0761 c 0,9,10
 291.624 20.8831 291.624 20.8831 285.758 31.7867 c 1,0,1
342.366 127.162 m 1,11,12
 367.209 127.415 367.209 127.415 385.827 111.258 c 0,13,14
 586.037 -62.4938 586.037 -62.4938 593.54 -219.714 c 0,15,16
 599.834 -351.6 599.834 -351.6 484.404 -422.205 c 0,17,18
 388.17 -481.069 388.17 -481.069 267.467 -456.44 c 0,19,20
 146.765 -431.812 146.765 -431.812 96.8388 -319.627 c 0,21,22
 21.4455 -150.217 21.4455 -150.217 186.008 118.17 c 1,23,24
 248.715 217.756 248.715 217.756 313.442 358.02 c 0,25,26
 458.806 673.025 458.806 673.025 445.748 826.557 c 0,27,28
 441.305 878.788 441.305 878.788 423.878 893.682 c 128,-1,29
 406.45 908.577 406.45 908.577 348.995 903.649 c 128,-1,30
 291.539 898.722 291.539 898.722 191.323 854.527 c 0,31,32
 167.016 843.81 167.016 843.81 141.677 853.642 c 128,-1,33
 116.337 863.474 116.337 863.474 105.621 887.772 c 128,-1,34
 94.9046 912.066 94.9046 912.066 104.734 937.411 c 128,-1,35
 114.563 962.755 114.563 962.755 138.866 973.473 c 0,36,37
 258.877 1026.4 258.877 1026.4 350.275 1034.24 c 128,-1,38
 441.673 1042.07 441.673 1042.07 504.335 988.503 c 0,39,40
 678.751 839.387 678.751 839.387 431.48 303.55 c 0,41,42
 386.729 206.574 386.729 206.574 342.366 127.162 c 1,11,12
EndSplineSet
EndChar

StartChar: u2
Encoding: 97 3394 96
Width: 639
GlyphClass: 2
Flags: MW
LayerCount: 2
Fore
SplineSet
229.569 -94.423 m 5,0,1
 201.134 -193.723 201.134 -193.723 243.939 -262.648 c 132,-1,2
 286.743 -331.574 286.743 -331.574 396.717 -353.25 c 132,-1,3
 506.692 -374.927 506.692 -374.927 586.803 -341.708 c 4,4,5
 785.563 -259.291 785.563 -259.291 537.32 -43.8523 c 4,6,7
 454.884 27.6898 454.884 27.6898 391.487 25.1001 c 4,8,9
 366.807 24.0919 366.807 24.0919 347.152 5.16588 c 5,10,11
 339.665 -18.0508 339.665 -18.0508 354.435 -58.5072 c 4,12,13
 383.664 -138.566 383.664 -138.566 440.008 -177.84 c 4,14,15
 475.855 -202.827 475.855 -202.827 512.837 -167.249 c 4,16,17
 531.971 -148.837 531.971 -148.837 559.149 -149.361 c 132,-1,18
 586.328 -149.885 586.328 -149.885 604.744 -169.026 c 132,-1,19
 623.159 -188.172 623.159 -188.172 622.631 -215.347 c 132,-1,20
 622.103 -242.522 622.103 -242.522 602.966 -260.933 c 4,21,22
 548.121 -313.697 548.121 -313.697 483.189 -317.421 c 4,23,24
 374.058 -323.679 374.058 -323.679 287.838 -207.47 c 4,25,26
 248.528 -154.489 248.528 -154.489 229.569 -94.423 c 5,0,1
355.704 151.409 m 5,27,28
 482.259 176.063 482.259 176.063 622.528 54.3289 c 4,29,30
 826.895 -123.03 826.895 -123.03 802.979 -278.888 c 4,31,32
 784.311 -400.542 784.311 -400.542 652.302 -455.282 c 132,-1,33
 520.292 -510.021 520.292 -510.021 363.169 -479.033 c 132,-1,34
 206.046 -448.045 206.046 -448.045 132.122 -329.009 c 4,35,36
 21.2651 -150.504 21.2651 -150.504 186.008 118.17 c 5,37,38
 248.712 217.748 248.712 217.748 313.442 358.02 c 4,39,40
 458.806 673.025 458.806 673.025 445.748 826.557 c 4,41,42
 441.305 878.788 441.305 878.788 423.878 893.682 c 132,-1,43
 406.45 908.577 406.45 908.577 348.995 903.649 c 132,-1,44
 291.539 898.722 291.539 898.722 191.323 854.527 c 4,45,46
 167.016 843.81 167.016 843.81 141.677 853.642 c 132,-1,47
 116.337 863.474 116.337 863.474 105.621 887.772 c 132,-1,48
 94.9046 912.066 94.9046 912.066 104.734 937.411 c 132,-1,49
 114.563 962.755 114.563 962.755 138.866 973.473 c 4,50,51
 258.877 1026.4 258.877 1026.4 350.275 1034.24 c 132,-1,52
 441.673 1042.07 441.673 1042.07 504.335 988.503 c 4,53,54
 678.751 839.387 678.751 839.387 431.48 303.55 c 4,55,56
 393.561 221.379 393.561 221.379 355.704 151.409 c 5,27,28
EndSplineSet
EndChar

StartChar: r1
Encoding: 98 3395 97
Width: 777
GlyphClass: 2
Flags: MW
LayerCount: 2
Fore
SplineSet
769 -180 m 4,0,1
 769 -354 769 -354 646 -437.5 c 132,-1,2
 523 -521 523 -521 379 -521 c 260,3,4
 235 -521 235 -521 158 -441.5 c 132,-1,5
 81 -362 81 -362 81 -249 c 260,6,7
 81 -136 81 -136 150.5 -67 c 132,-1,8
 220 2 220 2 326 2 c 260,9,10
 432 2 432 2 496.5 -73 c 132,-1,11
 561 -148 561 -148 561 -255 c 260,12,13
 561 -362 561 -362 481 -413 c 5,14,15
 659 -362 659 -362 659 -183 c 4,16,17
 659 -71 659 -71 465.5 132 c 132,-1,18
 272 335 272 335 272 757 c 4,19,20
 272 894 272 894 280 920 c 5,21,-1
 408 920 l 5,22,23
 406 800 406 800 406 751 c 4,24,25
 406 532 406 532 442.5 414.5 c 132,-1,26
 479 297 479 297 587 170.5 c 132,-1,27
 695 44 695 44 732 -25 c 132,-1,28
 769 -94 769 -94 769 -180 c 4,0,1
445 -251 m 4,29,30
 445 -185 445 -185 410.5 -139.5 c 132,-1,31
 376 -94 376 -94 317 -94 c 4,32,33
 192 -94 192 -94 192 -251 c 4,34,35
 192 -315 192 -315 230 -361.5 c 132,-1,36
 268 -408 268 -408 319 -408 c 4,37,38
 445 -408 445 -408 445 -251 c 4,29,30
EndSplineSet
EndChar

StartChar: e1
Encoding: 100 3398 98
Width: 1367
GlyphClass: 2
Flags: MW
LayerCount: 2
Fore
SplineSet
243.147 513.743 m 1,0,1
 223.792 420.042 223.792 420.042 232.962 339.729 c 0,2,3
 247.365 213.565 247.365 213.565 320.283 155.386 c 0,4,5
 378.439 108.984 378.439 108.984 445.641 131.525 c 0,6,7
 533.939 160.63 533.939 160.63 596.158 288.774 c 0,8,9
 648.153 395.876 648.153 395.876 615.397 486.466 c 0,10,11
 586.988 565.043 586.988 565.043 500.218 585.864 c 0,12,13
 398.823 610.195 398.823 610.195 254.245 519.333 c 0,14,15
 249.579 516.4 249.579 516.4 243.147 513.743 c 1,0,1
308.871 691.072 m 1,16,17
 520.058 767.369 520.058 767.369 657.724 647.247 c 0,18,19
 767.565 551.402 767.565 551.402 755.692 386.008 c 0,20,21
 750.108 308.214 750.108 308.214 713.104 231.997 c 0,22,23
 626.866 54.3799 626.866 54.3799 486.336 8.05859 c 0,24,25
 351.613 -35.9212 351.613 -35.9212 237.954 54.7655 c 128,-1,26
 124.296 145.452 124.296 145.452 103.801 324.982 c 0,27,28
 85.5468 484.876 85.5468 484.876 153.576 668.512 c 128,-1,29
 221.605 852.148 221.605 852.148 394.564 953.312 c 128,-1,30
 567.522 1054.48 567.522 1054.48 773.92 1021.29 c 128,-1,31
 980.318 988.102 980.318 988.102 1115.55 853.675 c 0,32,33
 1276.75 693.43 1276.75 693.43 1266.63 467.844 c 128,-1,34
 1256.52 242.259 1256.52 242.259 1075.64 6.46777 c 0,35,36
 1059.48 -14.6025 1059.48 -14.6025 1032.53 -18.1562 c 128,-1,37
 1005.59 -21.709 1005.59 -21.709 984.509 -5.54297 c 128,-1,38
 963.434 10.623 963.434 10.623 959.884 37.5742 c 128,-1,39
 956.334 64.5264 956.334 64.5264 972.498 85.5928 c 0,40,41
 1128.48 288.937 1128.48 288.937 1136.39 465.362 c 128,-1,42
 1144.3 641.787 1144.3 641.787 1031.33 754.091 c 128,-1,43
 918.354 866.396 918.354 866.396 755.635 892.56 c 128,-1,44
 592.915 918.725 592.915 918.725 457.514 839.527 c 0,45,46
 364.636 785.203 364.636 785.203 308.871 691.072 c 1,16,17
EndSplineSet
EndChar

StartChar: e2
Encoding: 101 3399 99
Width: 896
GlyphClass: 2
Flags: MW
LayerCount: 2
Fore
SplineSet
389.657 843.12 m 1,0,1
 420.911 848.979 420.911 848.979 443.183 830.348 c 128,-1,2
 465.454 811.718 465.454 811.718 467.849 784.804 c 128,-1,3
 470.243 757.891 470.243 757.891 490.387 739.204 c 128,-1,4
 510.531 720.517 510.531 720.517 538.006 720.138 c 128,-1,5
 565.661 719.758 565.661 719.758 585.514 738 c 0,6,7
 626.49 775.661 626.49 775.661 593.09 825.265 c 0,8,9
 578.739 846.576 578.739 846.576 552.804 859.5 c 0,10,11
 477.309 897.118 477.309 897.118 389.657 843.12 c 1,0,1
344.228 807.158 m 1,12,13
 261.784 725.927 261.784 725.927 240.742 615.3 c 128,-1,14
 219.699 504.673 219.699 504.673 241.6 406.553 c 0,15,16
 286.969 203.286 286.969 203.286 431.407 133.305 c 0,17,18
 500.983 99.5938 500.983 99.5938 548.768 110.211 c 0,19,20
 707.426 145.465 707.426 145.465 654.265 302.707 c 0,21,22
 635.171 359.188 635.171 359.188 597.605 394.618 c 0,23,24
 537.632 451.181 537.632 451.181 471.074 427.68 c 0,25,26
 430.176 413.238 430.176 413.238 419.964 374.898 c 128,-1,27
 409.753 336.558 409.753 336.558 436.147 317.612 c 128,-1,28
 462.54 298.665 462.54 298.665 466.949 271.845 c 128,-1,29
 471.358 245.025 471.358 245.025 455.869 223.443 c 128,-1,30
 440.382 201.864 440.382 201.864 413.557 197.46 c 128,-1,31
 386.732 193.055 386.732 193.055 365.161 208.54 c 0,32,33
 314.538 244.877 314.538 244.877 297.473 300.446 c 0,34,35
 262.903 413.014 262.903 413.014 339.585 492.066 c 128,-1,36
 416.268 571.117 416.268 571.117 515.977 563.69 c 128,-1,37
 615.687 556.263 615.687 556.263 681.815 493.893 c 128,-1,38
 747.944 431.522 747.944 431.522 771.616 361.505 c 0,39,40
 844.2 146.811 844.2 146.811 699.733 36.1152 c 0,41,42
 652.807 0.157227 652.807 0.157227 592.825 -13.1689 c 0,43,44
 485.016 -37.126 485.016 -37.126 378.498 14.4839 c 128,-1,45
 271.979 66.0938 271.979 66.0938 207.034 160.863 c 128,-1,46
 142.088 255.632 142.088 255.632 114.528 379.102 c 128,-1,47
 86.9688 502.572 86.9688 502.572 111.557 631.841 c 128,-1,48
 136.145 761.109 136.145 761.109 214.075 856.443 c 128,-1,49
 292.006 951.776 292.006 951.776 399.35 989.748 c 128,-1,50
 506.693 1027.72 506.693 1027.72 610.783 975.854 c 0,51,52
 667.414 947.635 667.414 947.635 703.051 894.712 c 128,-1,53
 738.688 841.79 738.688 841.79 735.807 769.354 c 128,-1,54
 732.927 696.918 732.927 696.918 674.245 642.989 c 128,-1,55
 615.563 589.06 615.563 589.06 537.162 590.139 c 128,-1,56
 458.761 591.218 458.761 591.218 401.974 643.899 c 128,-1,57
 345.186 696.583 345.186 696.583 338.321 773.741 c 0,58,59
 336.826 790.531 336.826 790.531 344.228 807.158 c 1,12,13
EndSplineSet
EndChar

StartChar: xx
Encoding: 106 3405 104
Width: 176
GlyphClass: 2
Flags: MW
AnchorPoint: "chandrakkala" -3.0343 -0.167953 mark 0
AnchorPoint: "dotreph" -600 1020 basechar 0
LayerCount: 2
Fore
SplineSet
-211.506 1437.76 m 128,-1,1
 -185.491 1443.09 -185.491 1443.09 -162.8 1428.13 c 128,-1,2
 -140.107 1413.17 -140.107 1413.17 -134.771 1387.14 c 0,3,4
 -95.5483 1195.94 -95.5483 1195.94 -20.8887 1146.17 c 0,5,6
 -1.94616 1133.54 -1.94616 1133.54 19.9058 1144.06 c 0,7,8
 85.8279 1175.8 85.8279 1175.8 111.619 1291.25 c 0,9,10
 120.556 1331.26 120.556 1331.26 120.556 1365.95 c 128,-1,11
 120.556 1400.64 120.556 1400.64 139.774 1419.86 c 128,-1,12
 158.994 1439.08 158.994 1439.08 185.556 1439.08 c 128,-1,13
 212.117 1439.08 212.117 1439.08 231.336 1419.86 c 128,-1,14
 250.556 1400.64 250.556 1400.64 250.556 1358.77 c 0,15,16
 250.556 1201.15 250.556 1201.15 155.844 1088.3 c 0,17,18
 93.8553 1014.44 93.8553 1014.44 4.2334 1009.71 c 0,19,20
 -85.3885 1004.99 -85.3885 1004.99 -155.865 1095.8 c 0,21,22
 -226.341 1186.61 -226.341 1186.61 -262.119 1361.02 c 0,23,24
 -267.456 1387.04 -267.456 1387.04 -252.488 1409.73 c 128,-1,0
 -237.52 1432.42 -237.52 1432.42 -211.506 1437.76 c 128,-1,1
EndSplineSet
EndChar

StartChar: dotreph
Encoding: 107 3406 105
Width: 0
GlyphClass: 4
Flags: MW
AnchorPoint: "dotreph" -601.5 1082.5 mark 0
LayerCount: 2
Fore
SplineSet
-583.853 1091.58 m 0,0,1
 -631.705 1078.9 -631.705 1078.9 -659.194 1123.36 c 128,-1,2
 -686.684 1167.82 -686.684 1167.82 -693.902 1207.45 c 0,3,4
 -710.813 1300.3 -710.813 1300.3 -645.789 1339 c 0,5,6
 -615.153 1356.72 -615.153 1356.72 -579.051 1348.32 c 128,-1,7
 -542.947 1339.91 -542.947 1339.91 -523.168 1311.21 c 128,-1,8
 -503.389 1282.5 -503.389 1282.5 -503.144 1246.59 c 0,9,10
 -502.772 1192.28 -502.772 1192.28 -544.271 1121.44 c 0,11,12
 -557.71 1098.5 -557.71 1098.5 -583.853 1091.58 c 0,0,1
EndSplineSet
EndChar

StartChar: au2
Encoding: 108 3415 106
Width: 1225
GlyphClass: 2
Flags: MW
LayerCount: 2
Fore
SplineSet
638.293 497.116 m 0,0,1
 613.334 445.181 613.334 445.181 565.474 447.346 c 0,2,3
 492.67 450.64 492.67 450.64 483.422 540.879 c 0,4,5
 479.562 578.538 479.562 578.538 459.091 644.787 c 0,6,7
 393.515 857 393.515 857 323.465 857 c 0,8,9
 299.766 857 299.766 857 260.158 820.134 c 128,-1,10
 220.55 783.267 220.55 783.267 210.28 727.465 c 0,11,12
 187.241 602.285 187.241 602.285 301.188 459.303 c 0,13,14
 317.742 438.526 317.742 438.526 314.688 411.519 c 128,-1,15
 311.633 384.51 311.633 384.51 290.864 367.96 c 128,-1,16
 270.101 351.409 270.101 351.409 243.088 354.46 c 128,-1,17
 216.076 357.512 216.076 357.512 199.522 378.283 c 0,18,19
 48.6699 567.576 48.6699 567.576 82.4268 750.994 c 0,20,21
 100.484 849.11 100.484 849.11 174.555 918.055 c 128,-1,22
 248.627 987 248.627 987 331.982 987 c 0,23,24
 496.249 987 496.249 987 585.978 673.112 c 1,25,26
 654.033 786.529 654.033 786.529 743.955 883.83 c 128,-1,27
 833.877 981.131 833.877 981.131 922.753 996.82 c 128,-1,28
 1011.63 1012.51 1011.63 1012.51 1063.18 965.705 c 0,29,30
 1192.3 848.484 1192.3 848.484 1096.37 489.566 c 0,31,32
 1072.2 399.105 1072.2 399.105 1043.45 340.03 c 0,33,34
 948.299 144.532 948.299 144.532 818.484 26.8324 c 128,-1,35
 688.668 -90.8672 688.668 -90.8672 515.013 -146.332 c 0,36,37
 489.716 -154.411 489.716 -154.411 465.558 -141.951 c 128,-1,38
 441.399 -129.492 441.399 -129.492 433.317 -104.189 c 128,-1,39
 425.236 -78.8867 425.236 -78.8867 437.699 -54.7305 c 128,-1,40
 450.163 -30.5742 450.163 -30.5742 475.46 -22.4941 c 0,41,42
 622.33 24.415 622.33 24.415 732.35 124.17 c 128,-1,43
 842.371 223.925 842.371 223.925 926.554 396.915 c 0,44,45
 949.84 444.769 949.84 444.769 970.78 523.13 c 0,46,47
 1019.75 706.363 1019.75 706.363 1000.6 816.448 c 0,48,49
 990.709 873.267 990.709 873.267 975.904 873.034 c 0,50,51
 910.033 871.999 910.033 871.999 815.768 769.999 c 128,-1,52
 721.504 667.999 721.504 667.999 638.293 497.116 c 0,0,1
EndSplineSet
EndChar

StartChar: datemark
Encoding: 110 3449 107
Width: 2161
GlyphClass: 2
Flags: MW
LayerCount: 2
Fore
SplineSet
784.612 590.998 m 1,0,1
 828.508 701.744 828.508 701.744 893.855 789.449 c 0,2,3
 1030.19 972.424 1030.19 972.424 1213.94 1007.9 c 128,-1,4
 1397.69 1043.38 1397.69 1043.38 1543.91 940.893 c 128,-1,5
 1690.13 838.401 1690.13 838.401 1726.49 637.068 c 0,6,7
 1726.58 636.553 1726.58 636.553 1761.06 625.208 c 128,-1,8
 1795.53 613.862 1795.53 613.862 1875.23 573.171 c 128,-1,9
 1954.93 532.479 1954.93 532.479 2005.34 491.849 c 128,-1,10
 2055.74 451.219 2055.74 451.219 2058.64 424.194 c 128,-1,11
 2061.55 397.169 2061.55 397.169 2044.88 376.486 c 128,-1,12
 2028.21 355.807 2028.21 355.807 2001.18 352.907 c 128,-1,13
 1974.15 350.008 1974.15 350.008 1928.99 386.414 c 128,-1,14
 1883.83 422.819 1883.83 422.819 1827.65 451.501 c 128,-1,15
 1771.47 480.184 1771.47 480.184 1735.85 494.252 c 1,16,17
 1734.34 457.023 1734.34 457.023 1728.98 418.032 c 0,18,19
 1707.62 237.568 1707.62 237.568 1577.57 128.689 c 128,-1,20
 1447.52 19.8105 1447.52 19.8105 1341.72 15.5586 c 128,-1,21
 1235.93 11.3066 1235.93 11.3066 1175.67 38.6514 c 128,-1,22
 1115.42 65.9961 1115.42 65.9961 1073.19 128.22 c 128,-1,23
 1030.97 190.444 1030.97 190.444 1028.32 275.818 c 128,-1,24
 1025.67 361.191 1025.67 361.191 1051.86 424.533 c 128,-1,25
 1078.05 487.875 1078.05 487.875 1125.02 534.99 c 128,-1,26
 1172 582.104 1172 582.104 1236.09 613.553 c 128,-1,27
 1300.18 645.002 1300.18 645.002 1373.01 659.543 c 128,-1,28
 1445.83 674.085 1445.83 674.085 1501.64 671.343 c 128,-1,29
 1557.45 668.601 1557.45 668.601 1586.37 665.092 c 1,30,31
 1552.77 775.93 1552.77 775.93 1460.66 840.494 c 128,-1,32
 1368.55 905.058 1368.55 905.058 1236.3 879.51 c 128,-1,33
 1104.04 853.963 1104.04 853.963 999.218 713.276 c 128,-1,34
 894.395 572.59 894.395 572.59 864.134 416.851 c 128,-1,35
 833.874 261.111 833.874 261.111 830.843 181.834 c 128,-1,36
 827.812 102.557 827.812 102.557 826.391 67.4175 c 128,-1,37
 824.97 32.2783 824.97 32.2783 804.986 13.8477 c 128,-1,38
 785.003 -4.58398 785.003 -4.58398 758.471 -3.51172 c 128,-1,39
 732.131 -2.44727 732.131 -2.44727 714.052 17.5127 c 128,-1,40
 695.974 37.4727 695.974 37.4727 696.147 71.7837 c 128,-1,41
 696.321 106.095 696.321 106.095 697.917 187.673 c 128,-1,42
 699.513 269.251 699.513 269.251 686.147 406.498 c 128,-1,43
 672.781 543.745 672.781 543.745 618.186 684.061 c 128,-1,44
 563.591 824.377 563.591 824.377 471.222 860.582 c 0,45,46
 437.467 874.589 437.467 874.589 406.812 869.125 c 128,-1,47
 376.155 863.662 376.155 863.662 341.577 835.854 c 0,48,49
 259.195 769.6 259.195 769.6 222.541 578.965 c 128,-1,50
 185.887 388.33 185.887 388.33 306.861 94.1934 c 0,51,52
 316.965 69.6279 316.965 69.6279 306.498 44.542 c 128,-1,53
 296.031 19.4561 296.031 19.4561 271.472 9.35449 c 128,-1,54
 246.911 -0.746094 246.911 -0.746094 221.824 9.7168 c 128,-1,55
 196.736 20.1797 196.736 20.1797 186.633 44.7441 c 0,56,57
 50.8984 374.77 50.8984 374.77 95.7207 607.885 c 128,-1,58
 140.543 841 140.543 841 260.106 937.157 c 0,59,60
 318.053 983.759 318.053 983.759 384.448 995.592 c 128,-1,61
 450.844 1007.42 450.844 1007.42 518.665 981.616 c 0,62,63
 664.082 924.617 664.082 924.617 746.122 713.766 c 0,64,65
 768.253 656.887 768.253 656.887 784.612 590.998 c 1,0,1
1606.38 530.688 m 1,66,67
 1564.33 538.105 1564.33 538.105 1509.92 540.779 c 128,-1,68
 1455.52 543.452 1455.52 543.452 1398.88 532.143 c 128,-1,69
 1342.24 520.834 1342.24 520.834 1295.49 497.892 c 128,-1,70
 1248.74 474.949 1248.74 474.949 1218.53 444.653 c 128,-1,71
 1188.32 414.357 1188.32 414.357 1172.4 375.838 c 128,-1,72
 1156.47 337.319 1156.47 337.319 1158.1 284.763 c 128,-1,73
 1159.73 232.206 1159.73 232.206 1181.8 199.69 c 128,-1,74
 1203.87 167.175 1203.87 167.175 1231.25 154.749 c 128,-1,75
 1258.62 142.323 1258.62 142.323 1328.33 145.125 c 128,-1,76
 1398.03 147.926 1398.03 147.926 1491.47 226.152 c 128,-1,77
 1584.91 304.379 1584.91 304.379 1600.02 434.472 c 1,78,79
 1606.95 484.368 1606.95 484.368 1606.38 530.688 c 1,66,67
EndSplineSet
EndChar

StartChar: ZWNJ
Encoding: 117 8204 114
Width: 321
GlyphClass: 2
Flags: MW
LayerCount: 2
Fore
SplineSet
66 1032 m 1,0,-1
 225 1032 l 1,1,-1
 225 43 l 1,2,-1
 66 43 l 1,3,-1
 66 1032 l 1,0,-1
EndSplineSet
EndChar

StartChar: ZWJ
Encoding: 118 8205 115
Width: 321
GlyphClass: 2
Flags: MW
LayerCount: 2
Fore
SplineSet
148 1012 m 1,0,-1
 14 804 l 1,1,-1
 -90 804 l 1,2,-1
 96 1076 l 1,3,-1
 -76 1324 l 1,4,-1
 33 1324 l 1,5,-1
 111 1203 l 2,6,7
 120 1189 120 1189 145 1144 c 1,8,-1
 270 1324 l 1,9,-1
 377 1324 l 1,10,-1
 199 1080 l 1,11,-1
 387 804 l 1,12,-1
 283 804 l 1,13,-1
 148 1012 l 1,0,-1
70 888 m 1,14,-1
 224 888 l 1,15,-1
 224 13 l 1,16,-1
 70 13 l 1,17,-1
 70 888 l 1,14,-1
EndSplineSet
EndChar

StartChar: rupee
Encoding: 119 8377 116
Width: 1101
GlyphClass: 2
Flags: MW
LayerCount: 2
Fore
SplineSet
788 1250 m 1,0,1
 831 1195 831 1195 847 1113 c 1,2,-1
 1080 1113 l 1,3,-1
 1027 992 l 1,4,-1
 849 992 l 1,5,6
 825 813 825 813 669 723 c 0,7,8
 576 669 576 669 458 662 c 1,9,-1
 924 3 l 1,10,-1
 718 3 l 1,11,-1
 257 629 l 1,12,-1
 257 752 l 1,13,-1
 379 752 l 2,14,15
 568 752 568 752 651 866 c 0,16,17
 693 924 693 924 693 991 c 2,18,-1
 693 992 l 1,19,-1
 210 992 l 1,20,-1
 274 1113 l 1,21,-1
 679 1113 l 1,22,23
 636 1224 636 1224 502 1243 c 0,24,25
 447 1250 447 1250 366 1250 c 2,26,-1
 210 1250 l 1,27,-1
 274 1370 l 1,28,-1
 1080 1370 l 1,29,-1
 1027 1250 l 1,30,-1
 788 1250 l 1,0,1
EndSplineSet
EndChar

StartChar: uni25CC
Encoding: 120 9676 117
Width: 1131
GlyphClass: 2
Flags: MW
LayerCount: 2
Fore
SplineSet
930 710 m 1,0,1
 865.884 816.86 865.884 816.86 794 843 c 1,2,-1
 868 944 l 1,3,4
 948 892 948 892 980 860 c 1,5,-1
 984 858 l 1,6,7
 1022 811 1022 811 1038 784 c 1,8,-1
 930 710 l 1,0,1
686 1017 m 1,9,-1
 666 897 l 1,10,11
 602 907 602 907 568 907 c 128,-1,12
 534 907 534 907 470 897 c 1,13,-1
 450 1017 l 1,14,15
 521 1033 521 1033 570 1033 c 128,-1,16
 619 1033 619 1033 686 1017 c 1,9,-1
1098 630 m 1,17,18
 1112 573 1112 573 1112 517.5 c 128,-1,19
 1112 462 1112 462 1098 405 c 1,20,-1
 972 426 l 1,21,22
 981 486 981 486 981 514.5 c 128,-1,23
 981 543 981 543 972 609 c 1,24,-1
 1098 630 l 1,17,18
1038 250 m 1,25,26
 980 170 980 170 954 142 c 1,27,-1
 952 142 l 1,28,29
 950 140 950 140 868 91 c 1,30,-1
 794 192 l 1,31,32
 866 236 866 236 888 260 c 1,33,34
 924 312 924 312 930 325 c 1,35,-1
 1038 250 l 1,25,26
348 843 m 1,36,37
 264 796 264 796 252 771 c 1,38,-1
 212 710 l 1,39,-1
 104 784 l 1,40,41
 156 860 156 860 186 888 c 1,42,43
 198 897 198 897 270 944 c 1,44,-1
 348 843 l 1,36,37
170 426 m 1,45,-1
 42 405 l 1,46,47
 30 461 30 461 30 517 c 128,-1,48
 30 573 30 573 42 630 c 1,49,-1
 170 609 l 1,50,51
 158 576 158 576 158 517.5 c 128,-1,52
 158 459 158 459 170 426 c 1,45,-1
686 18 m 1,53,54
 640 4 640 4 571 4 c 128,-1,55
 502 4 502 4 450 18 c 1,56,-1
 470 138 l 1,57,58
 535 128 535 128 568.5 128 c 128,-1,59
 602 128 602 128 666 138 c 1,60,-1
 686 18 l 1,53,54
348 192 m 1,61,-1
 270 91 l 1,62,63
 178 150 178 150 158 175 c 1,64,-1
 156 175 l 1,65,-1
 104 250 l 1,66,-1
 212 325 l 1,67,68
 262 248 262 248 278 237 c 128,-1,69
 294 226 294 226 348 192 c 1,61,-1
EndSplineSet
EndChar

